<?xml version="1.0" encoding="utf-8"?><svg viewBox="0 0 767 371" xmlns="http://www.w3.org/2000/svg" xmlns:xlink="http://www.w3.org/1999/xlink"><style>:root>svg{display:none}:root>svg:target{display:block}</style><svg viewBox="0 0 57 44" id="about-atmosphere" xmlns="http://www.w3.org/2000/svg"><path d="M33.481 16.665c-.77-.675-1.74-1.277-2.891-1.797.826-.855 1.291-1.834 1.291-2.882 0-2.653-3.008-4.94-7.553-5.803.029-.242.045-.486.045-.733A6.188 6.188 0 0021.29.112a.833.833 0 00-.835 0 6.154 6.154 0 00-2.542 2.816 6.184 6.184 0 00-3.785-.195.833.833 0 00-.59.59 6.184 6.184 0 00.138 3.624c-3.015 1.137-4.79 2.986-4.79 5.039 0 1.048.465 2.027 1.291 2.883-3.096 1.398-4.846 3.384-4.846 5.56 0 1.751 1.14 3.35 3.098 4.619-2.177.596-4.028 1.353-5.415 2.223C.523 28.834 0 30.453 0 31.537c0 4.422 7.95 7.08 15.83 7.752a.833.833 0 00.142-1.66c-9.292-.793-14.306-3.73-14.306-6.092 0-2.042 3.483-4.12 8.874-5.292a.812.812 0 00.128-.04c2.17.9 4.887 1.498 7.937 1.671l.048.002a.833.833 0 00.047-1.665c-3.306-.188-6.34-.93-8.542-2.087-2.038-1.07-3.16-2.384-3.16-3.698 0-1.625 1.742-3.25 4.674-4.378 2.092 1.295 5.194 2.101 8.712 2.101s6.62-.806 8.712-2.1c1.349.518 2.485 1.163 3.287 1.866a.841.841 0 001.225-.139.84.84 0 00-.127-1.113zM20.873 1.828a4.517 4.517 0 011.833 3.622 4.5 4.5 0 01-.851 2.625 6.177 6.177 0 00-1.772-3.747c-.22-.22-.454-.419-.7-.6a4.48 4.48 0 011.49-1.9zM15.048 4.24a4.516 4.516 0 013.857 1.266 4.516 4.516 0 011.265 3.857 4.516 4.516 0 01-3.857-1.265 4.516 4.516 0 01-1.265-3.858zm12.504 10.77c-1.9.95-4.446 1.474-7.168 1.474-2.722 0-5.267-.524-7.168-1.474-1.692-.846-2.663-1.949-2.663-3.025 0-1.344 1.475-2.677 3.884-3.545.206.296.438.577.697.836a6.184 6.184 0 005.285 1.735c.283-.043.622-.079.873-.224a6.188 6.188 0 002.612-2.99c3.686.679 6.31 2.402 6.31 4.188.001 1.076-.97 2.179-2.662 3.025z"/><path d="M56.293 29.245a15.073 15.073 0 00-6.725-1.494 15.153 15.153 0 00-1.496-6.72.832.832 0 00-.813-.47 15.15 15.15 0 00-6.56 2.06 15.075 15.075 0 00-4.65-5.063.834.834 0 00-.938 0 15.076 15.076 0 00-4.654 5.072 15.145 15.145 0 00-6.573-2.068.833.833 0 00-.813.469 15.15 15.15 0 00-1.495 6.72 15.073 15.073 0 00-6.726 1.494.833.833 0 00-.469.813 15.054 15.054 0 0021.19 12.615 15.042 15.042 0 0013.705-.69 15.054 15.054 0 007.486-11.925.834.834 0 00-.47-.813zM46.81 22.28a13.486 13.486 0 011.09 5.584 15.031 15.031 0 00-5.273 1.677 15.031 15.031 0 00-1.19-5.418 13.473 13.473 0 015.373-1.843zm-22.477 0c1.906.225 3.749.859 5.387 1.85a15.034 15.034 0 00-1.187 5.42 15.032 15.032 0 00-5.29-1.686 13.48 13.48 0 011.09-5.584zM22.7 40.54a13.385 13.385 0 01-6.602-10.032 13.386 13.386 0 0112.506 1.016 15.05 15.05 0 005.313 10.02A13.383 13.383 0 0122.7 40.54zm25.743 0a13.384 13.384 0 01-11.207 1.008 15.23 15.23 0 003.205-3.719.833.833 0 00-1.422-.867 13.559 13.559 0 01-3.44 3.775 13.387 13.387 0 010-21.468 13.386 13.386 0 015.388 10.734c0 1.54-.258 3.048-.769 4.484a.833.833 0 101.57.558c.407-1.143.67-2.328.79-3.535a13.385 13.385 0 0112.486-1.002 13.385 13.385 0 01-6.601 10.032z"/></svg><svg fill="none" viewBox="0 0 767 371" id="about-bg" xmlns="http://www.w3.org/2000/svg"><g filter="url(#abfilter0_bd_123_2119)" shape-rendering="crispEdges"><path d="M100 132c0-20.435 16.565-37 37-37h9.286c6.864 0 13.594 1.91 19.435 5.515l34.407 21.24c9.631 5.945 22.048-.983 22.048-12.3 0-7.983 6.472-14.455 14.455-14.455H630c20.435 0 37 16.565 37 37v97c0 20.435-16.565 37-37 37H137c-20.435 0-37-16.565-37-37v-97z" fill="#fff" fill-opacity=".5"/><path d="M101 132c0-19.882 16.118-36 36-36h9.286a36.006 36.006 0 0118.91 5.366l34.407 21.24c10.297 6.356 23.573-1.051 23.573-13.151 0-7.431 6.024-13.455 13.455-13.455H630c19.882 0 36 16.118 36 36v97c0 19.882-16.118 36-36 36H137c-19.882 0-36-16.118-36-36v-97z" stroke="#fff" stroke-width="2"/></g><defs><filter id="abfilter0_bd_123_2119" x="0" y="0" width="767" height="371" filterUnits="userSpaceOnUse" color-interpolation-filters="sRGB"><feFlood flood-opacity="0" result="BackgroundImageFix"/><feGaussianBlur in="BackgroundImage" stdDeviation="10"/><feComposite in2="SourceAlpha" operator="in" result="effect1_backgroundBlur_123_2119"/><feColorMatrix in="SourceAlpha" values="0 0 0 0 0 0 0 0 0 0 0 0 0 0 0 0 0 0 127 0" result="hardAlpha"/><feOffset dy="5"/><feGaussianBlur stdDeviation="50"/><feComposite in2="hardAlpha" operator="out"/><feColorMatrix values="0 0 0 0 0.294118 0 0 0 0 0.333333 0 0 0 0 0.439216 0 0 0 0.1 0"/><feBlend in2="effect1_backgroundBlur_123_2119" result="effect2_dropShadow_123_2119"/><feBlend in="SourceGraphic" in2="effect2_dropShadow_123_2119" result="shape"/></filter></defs></svg><svg viewBox="0 0 44 45" id="about-cabinets" xmlns="http://www.w3.org/2000/svg"><path d="M44 3.348V1.93A1.42 1.42 0 0042.58.51H2.84a1.42 1.42 0 00-1.42 1.42v1.42c0 .782.637 1.419 1.42 1.419v24.626A17.553 17.553 0 000 38.982v1.98c0 1.173.955 2.128 2.129 2.128h.832c.186 0 .37.076.501.208l.4.4c.524.524 1.22.812 1.96.812a2.76 2.76 0 002.48-1.532l.457-.914a.705.705 0 01.634-.393h1.252a2.132 2.132 0 002.13-2.129v-.56c0-2.52-.542-4.98-1.568-7.246h24.59a16.133 16.133 0 012.526 8.665v2.69c0 .782.636 1.419 1.419 1.419h1.42a1.42 1.42 0 001.419-1.42V31.736A1.42 1.42 0 0044 30.316v-2.838a1.42 1.42 0 00-1.42-1.42V4.768A1.42 1.42 0 0044 3.348zM2.839 1.93H42.58l.001 1.42H2.84v-1.42zM21.29 4.768v3.326c0 7.99-4.79 15.026-12.209 17.964H4.258V4.768H21.29zM4.258 27.478h4.258v1.419H4.258v-1.42zm7.097 12.064a.71.71 0 01-.71.71H9.393a2.12 2.12 0 00-1.904 1.176l-.458.914c-.23.462-.693.748-1.209.748-.362 0-.701-.14-.957-.396l-.4-.4a2.116 2.116 0 00-1.504-.623h-.832a.71.71 0 01-.71-.71v-1.979c0-3.083.878-6.07 2.525-8.666H8.83a16.133 16.133 0 012.525 8.666v.56zM41.16 43.09h-1.419v-2.689c0-3.055-.785-6.025-2.28-8.665h3.7V43.09zm1.42-12.774H10.495c-.175-.308-.366-.61-.56-.91v-1.928h32.646v2.838zM29.806 24.64c0-.783.637-1.42 1.42-1.42h5.677a1.42 1.42 0 010 2.839h-5.677a1.42 1.42 0 01-1.42-1.42zm11.355 1.42h-1.814c.245-.42.395-.9.395-1.42a2.842 2.842 0 00-2.839-2.839h-5.677a2.842 2.842 0 00-2.839 2.839c0 .52.15 1 .395 1.42h-16.43C18.732 22.394 22.71 15.64 22.71 8.093V4.768H41.16v21.29z"/><path d="M6.53 32.161a9.999 9.999 0 011.986 5.961v.71h1.42v-.71c0-2.44-.807-4.86-2.271-6.812l-1.136.851zM2.839 39.167v1.085h1.42v-1.085c0-1.966.464-3.935 1.344-5.694l-1.27-.635a14.23 14.23 0 00-1.494 6.33zM5.678 35.994h1.42v2.838h-1.42v-2.838zM18.452 7.307v-1.12h-1.42v1.12c0 6.171-3.065 11.9-8.2 15.322l.787 1.181a19.793 19.793 0 008.833-16.503zM5.678 6.188h1.42v12.774h-1.42V6.188zM9.936 9.026h1.419v4.258h-1.42V9.026z"/></svg><svg viewBox="0 0 43 44" id="about-kitchen" xmlns="http://www.w3.org/2000/svg"><path d="M40.866 32.723h-.848a5.614 5.614 0 002.069-4.35c0-3.109-2.548-5.638-5.68-5.638h-8.83a8.262 8.262 0 003.23-3.87h1.422c3.146 0 5.706-2.54 5.706-5.664V8.128c0-1.617-1.325-2.932-2.954-2.932h-3.585V4.138c0-.872-.715-1.581-1.593-1.581h-7.826V2.49A2.503 2.503 0 0019.468 0a2.503 2.503 0 00-2.509 2.49v.067h-4.675c-.878 0-1.593.71-1.593 1.581V5.56c0 .356.291.645.65.645.358 0 .649-.289.649-.645v-1.42c0-.162.132-.293.294-.293h4.675v4.253h-.844c-.897 0-1.627.724-1.627 1.615v3.64c0 .892.73 1.616 1.627 1.616h2.987c.898 0 1.627-.725 1.627-1.615V9.714c0-.89-.73-1.615-1.627-1.615h-.844V3.846h11.545c.162 0 .294.131.294.292v11.686c0 3.81-3.122 6.91-6.96 6.91H18.95c-3.839 0-6.961-3.1-6.961-6.91V8.573a.647.647 0 00-.65-.645.647.647 0 00-.649.645v7.251c0 2.9 1.524 5.452 3.818 6.91H1.221c-.673 0-1.221.544-1.221 1.212v.974c0 .684.463 1.27 1.125 1.424a2.097 2.097 0 011.619 2.029c0 .965-.68 1.81-1.62 2.03A1.453 1.453 0 000 31.825v.974c0 .668.548 1.212 1.22 1.212h.85A5.614 5.614 0 000 38.362C0 41.47 2.548 44 5.68 44h35.186c.673 0 1.221-.544 1.221-1.212v-1.192c0-.583-.424-1.08-1.007-1.182-2.293-.398-2.311-3.705 0-4.106a1.204 1.204 0 001.007-1.181v-1.193c0-.668-.548-1.211-1.22-1.211zm-9.47-23.866h2.85v4.344a2.012 2.012 0 01-2.017 2.002h-.833V8.857zm-.028 7.635h.861c1.828 0 3.316-1.476 3.316-3.291V8.788c0-.673-.551-1.22-1.229-1.22h-2.92V6.485h3.585c.913 0 1.655.737 1.655 1.643V13.2c0 2.412-1.977 4.375-4.407 4.375h-1.024c.078-.354.133-.715.163-1.084zM19.102 9.388c.181 0 .329.146.329.326v3.64c0 .18-.148.327-.329.327h-2.988a.328.328 0 01-.328-.326V9.714c0-.18.147-.326.329-.326h2.987zm1.577-6.831h-2.421V2.49c0-.663.543-1.202 1.21-1.202.668 0 1.21.54 1.21 1.202v.066zM1.299 32.723v-.897c0-.081.051-.152.123-.169.097-.023.193-.05.286-.08h34.7c1.779 0 3.227-1.437 3.227-3.204 0-1.767-1.448-3.204-3.228-3.204H1.71a3.504 3.504 0 00-.287-.08c-.072-.016-.123-.087-.123-.168v-.897h35.108c2.416 0 4.381 1.95 4.381 4.35 0 2.398-1.965 4.349-4.38 4.349H1.298zm16.31-4.994H3.98a3.343 3.343 0 00-.534-1.27h32.961c1.064 0 1.93.858 1.93 1.914a1.924 1.924 0 01-1.93 1.915H3.445c.261-.377.446-.808.535-1.27h13.628c.36 0 .65-.289.65-.645a.647.647 0 00-.65-.644zm23.18 7.322c-.14.027-.277.063-.41.106h-7.261a.647.647 0 00-.65.645c0 .356.291.644.65.644h5.525a3.347 3.347 0 00-.536 1.27H24.492a.647.647 0 00-.649.645c0 .356.29.645.65.645h13.614c.09.463.275.894.536 1.27H5.68c-1.064 0-1.93-.859-1.93-1.915 0-1.055.866-1.915 1.93-1.915h24.402c.359 0 .65-.288.65-.644a.647.647 0 00-.65-.645H5.68c-1.78 0-3.228 1.438-3.228 3.204 0 1.767 1.448 3.205 3.228 3.205h34.699c.133.043.27.078.41.106v1.039H5.678c-2.415 0-4.38-1.951-4.38-4.35 0-2.398 1.965-4.35 4.38-4.35h35.109v1.04z"/></svg><svg viewBox="0 0 48 45" id="about-location" xmlns="http://www.w3.org/2000/svg"><path d="M15.25 25.668a.69.69 0 00.523-.24c.314-.366 7.378-8.67 8.003-15.42h4.297l-1.63 1.63c-.799.799-1.08 2.006-.714 3.076l1.746 5.115-7.584 7.584a.69.69 0 10.975.975l7.887-7.888a.69.69 0 00.165-.71l-1.884-5.521a1.618 1.618 0 01.384-1.657l2.807-2.806c.383-.349.196-1.171-.488-1.177H23.81C23.573 4.112 19.825.51 15.25.51c-4.726 0-8.57 3.846-8.57 8.571 0 6.892 7.718 15.965 8.047 16.348a.69.69 0 00.523.24zm0-23.78c3.966 0 7.192 3.227 7.192 7.192 0 .078-.001.157-.004.236v.004c-.156 5.366-5.477 12.434-7.188 14.571-1.736-2.17-7.192-9.418-7.192-14.81 0-3.966 3.226-7.193 7.192-7.193z"/><path d="M15.25 12.977c2.164.004 3.974-1.797 3.97-3.97 0-2.188-1.781-3.968-3.97-3.968a3.974 3.974 0 00-3.969 3.969c-.025 2.1 1.784 3.99 3.97 3.969zm0-1.379a2.594 2.594 0 01-2.39-1.59h4.78a2.594 2.594 0 01-2.39 1.59zm0-5.18c1.3 0 2.379.962 2.563 2.211h-5.125a2.594 2.594 0 012.562-2.212zM43.426 8.63h-7.191a.693.693 0 00-.488.201l-5.042 5.043a.69.69 0 00-.165.71l1.884 5.521c.2.586.053 1.22-.384 1.657L10.469 43.333c-.386.363-.194 1.169.487 1.177h32.47a3.626 3.626 0 003.623-3.622V12.251a3.626 3.626 0 00-3.623-3.622zm-7.41 1.883l9.654 9.655v2.21l-10.76-10.76 1.105-1.105zm9.654 1.738v5.967l-8.21-8.21h5.967a2.246 2.246 0 012.243 2.243zM33.015 22.737a2.969 2.969 0 00.714-3.077l-1.746-5.114 1.953-1.953 11.421 11.422-9.631 9.632-1.397-1.397a3.473 3.473 0 00-2.473-1.024h-.84c-.566 0-1.097-.22-1.498-.62l-2.186-2.186 5.683-5.683zm-6.658 6.657l2.187 2.187a3.474 3.474 0 002.472 1.024h.84c.566 0 1.098.22 1.498.62l1.397 1.397-8.238 8.238-6.81-6.81 6.654-6.656zm-9.708 9.71l4.028 4.027H12.62l4.028-4.028zm5.977 4.027l-5.003-5.003 1.105-1.104 6.107 6.107h-2.209zm20.8 0H32.35l4.858-4.858a.69.69 0 10-.974-.975l-5.834 5.833h-2.208l17.48-17.48v2.21l-7.153 7.152a.69.69 0 00.974.975l6.178-6.177v11.077a2.246 2.246 0 01-2.244 2.243z"/><path d="M4.593 44.497a.685.685 0 00.353-.19L14.254 35c.317.089.651.138.996.138a3.708 3.708 0 003.704-3.704 3.708 3.708 0 00-3.704-3.704 3.708 3.708 0 00-3.704 3.704c0 1.179.555 2.23 1.416 2.909l-2.244 2.244-9.34-9.339v-9.342l1.838 1.837a.687.687 0 00.975 0 .69.69 0 000-.974L1.38 15.956v-3.705a2.246 2.246 0 012.244-2.243h.509a.69.69 0 000-1.379h-.51A3.626 3.626 0 000 12.251v28.637a3.626 3.626 0 003.623 3.622h.836c.014 0 .06 0 .134-.013zM15.25 29.109a2.328 2.328 0 012.325 2.325 2.328 2.328 0 01-2.325 2.325 2.328 2.328 0 01-2.325-2.325 2.328 2.328 0 012.325-2.325zm-5.507 8.453l-1.105 1.105-7.26-7.26v-2.21l8.365 8.365zm-8.364 3.326v-7.531l6.284 6.284-3.49 3.49h-.55a2.246 2.246 0 01-2.244-2.243z"/></svg><svg viewBox="0 0 52 44" id="about-relax-zone" xmlns="http://www.w3.org/2000/svg"><path d="M44.98 36.814c3.79-2.815 6.069-9.955 6.28-19.788a2.242 2.242 0 00-.645-1.63 2.234 2.234 0 00-1.609-.676h-.558a3.765 3.765 0 00-3.415 2.193l-4.441 9.71c-.516-.443-1.212-.734-2.035-.843v-3.055c0-1.495-1.162-3.004-3.756-3.004H23.785c-1.411 0-2.398.447-3.004 1.095-.607-.648-1.593-1.095-3.005-1.095h-5.839a.751.751 0 000 1.502h5.84c1.368 0 2.252.59 2.252 1.502v6.516a.751.751 0 001.503 0v-6.516c0-.912.884-1.502 2.253-1.502h11.016c1.37 0 2.254.59 2.254 1.502v3.051c-2.068.263-3.005 1.616-3.005 2.958v3.083h-4.273c-.873 0-1.652.49-2.031 1.277a2.233 2.233 0 00.267 2.38c.913 1.146 2.324 2.064 4.03 2.676l-.849 2.68h-9.56l-.492-1.55c2.578-.254 3.747-1.485 3.747-2.706 0-.966-.787-1.752-1.753-1.752h-1.604v-.913c0-.435.535-.59 1.036-.59h3.203a.751.751 0 100-1.502h-3.203c-.725 0-1.343.203-1.788.551-.488-.373-1.15-.55-1.786-.55H7.51v-3.084c0-1.342-.936-2.695-3.004-2.958v-3.05c0-.913.884-1.503 2.253-1.503h2.173a.751.751 0 000-1.502H6.76c-2.594 0-3.756 1.509-3.756 3.005v3.05C.936 26.04 0 27.392 0 28.734v12.848c0 .414.336.75.751.75h4.156a.751.751 0 000-1.501H1.502V28.734c0-.912.885-1.502 2.254-1.502 1.368 0 2.253.59 2.253 1.502v6.088h-.25c-.967 0-1.753.786-1.753 1.752 0 1.221 1.169 2.452 3.747 2.706l-1.186 3.742A.751.751 0 108 43.475l.362-1.142h12.172l.362 1.142a.751.751 0 001.432-.453l-.218-.69h8.61l-.218.69a.751.751 0 101.432.453l.362-1.142h8.515a.751.751 0 100-1.503h-8.04l.714-2.253c1.166.278 2.428.428 3.737.428 2.372 0 4.622-.49 6.435-1.393l1.857 5.863a.752.752 0 001.432-.453l-1.966-6.208zM7.51 33.32h11.483c.5 0 1.035.155 1.035.59v.913H7.511v-1.503zm-2.003 3.255a.25.25 0 01.25-.25h17.378a.25.25 0 01.25.25c0 .409-.795 1.252-3.253 1.252H8.762c-1.504 0-2.312-.314-2.726-.577-.39-.248-.528-.518-.528-.675zm3.33 4.256l.475-1.502h10.269l.475 1.502H8.837zm37.561-23.292a2.259 2.259 0 012.05-1.316h.506l-6.13 13.402a3.764 3.764 0 01-3.342 2.19c.453-.442.83-.97 1.102-1.565L46.4 17.538zM35.552 28.734c0-.912.885-1.502 2.254-1.502 1.026 0 1.79.33 2.1.891l-.687 1.5a3.765 3.765 0 01-3.415 2.194h-.252v-3.083zm-6.365 5.803a.733.733 0 01-.088-.791.738.738 0 01.678-.427h9.632a5.27 5.27 0 004.782-3.07l5.53-12.093c-.359 9.052-2.608 15.648-6.09 17.758-1.693 1.024-3.969 1.589-6.41 1.589-3.444 0-6.598-1.164-8.034-2.966zM3.756 15.215h34.05a.751.751 0 00.75-.752V.752a.751.751 0 00-.75-.751H27.28a.751.751 0 100 1.502h9.775V3.31a56.816 56.816 0 00-6.446 4.131c-1.107-.682-3.975-2.32-5.998-2.32-1.811 0-3.37.793-5.343 1.796-3.046 1.55-7.183 3.654-14.761 3.785V1.502h19.769a.751.751 0 000-1.502H3.756a.751.751 0 00-.752.751v13.713c0 .414.337.75.752.75zm16.193-6.96c1.794-.912 3.211-1.633 4.662-1.633 1.699 0 4.633 1.702 5.62 2.358.27.18.625.165.88-.035.027-.021 2.509-1.96 5.944-3.916v8.683H4.507v-1.508c7.938-.131 12.26-2.33 15.442-3.948z"/></svg><svg viewBox="0 0 58 45" id="about-wifi" xmlns="http://www.w3.org/2000/svg"><path d="M57.839 4.658a2.55 2.55 0 00-2.472-3.153 2.54 2.54 0 00-2.471 1.94l-6.634 27.02a2.54 2.54 0 00-.07.725c-1.038-1.215-2.44-2.408-4.337-3.401a.848.848 0 00-.787 1.503c1.852.97 3.324 2.215 4.407 3.714a11.08 11.08 0 011.446 2.743 11.09 11.09 0 01.632 2.992H10.358a11.142 11.142 0 012.948-6.79c3.128-3.375 8.394-5.086 15.65-5.086 3.386 0 6.382.383 8.902 1.138a.848.848 0 10.487-1.625c-2.678-.803-5.838-1.21-9.39-1.21-7.747 0-13.431 1.894-16.894 5.63-.118.127-.231.254-.341.382a2.54 2.54 0 00-.07-.714L7.55 13.77a.848.848 0 00-1.647.404l4.099 16.698a.85.85 0 01.024.243 3.495 3.495 0 00-1.578.39.855.855 0 01-.093-.23L1.722 4.253a.85.85 0 011.647-.403l1.662 6.769a.848.848 0 101.647-.405L5.017 3.444a2.539 2.539 0 00-3.079-1.866 2.548 2.548 0 00-1.864 3.08L6.708 31.68c.086.349.244.672.46.951a3.492 3.492 0 00-.518 2.819 3.472 3.472 0 002.09 2.41c-.045.339-.07.64-.083.895a2.888 2.888 0 00-2.606 2.87 2.888 2.888 0 002.885 2.885h5.657a.848.848 0 100-1.697H8.936a1.189 1.189 0 01-1.188-1.188c0-.654.533-1.187 1.188-1.187h40.041a1.19 1.19 0 011.188 1.188c0 .654-.533 1.187-1.188 1.187H18.061a.848.848 0 100 1.697h30.916a2.888 2.888 0 002.885-2.884 2.888 2.888 0 00-2.608-2.871 11.722 11.722 0 00-.084-.894 3.472 3.472 0 002.093-2.411 3.492 3.492 0 00-.518-2.819 2.55 2.55 0 00.46-.952l6.634-27.021zM8.298 35.045a1.8 1.8 0 012.197-2.176 12.794 12.794 0 00-1.408 3.271 1.791 1.791 0 01-.79-1.095zM47.91 30.87l6.634-27.023a.846.846 0 011.025-.622.85.85 0 01.622 1.027l-6.634 27.022a.86.86 0 01-.093.228 3.495 3.495 0 00-1.578-.39.854.854 0 01.024-.242zm1.705 4.174a1.79 1.79 0 01-.792 1.097 12.732 12.732 0 00-1.411-3.272c.018-.004.036-.011.055-.015a1.803 1.803 0 012.148 2.19z"/><path d="M19.354 34.282v.679a.848.848 0 101.696 0v-.679a.848.848 0 10-1.697 0zM22.182 34.282v.679a.848.848 0 001.696 0v-.679a.848.848 0 10-1.696 0zM19.704 6.302a12.53 12.53 0 019.252-4.096 12.53 12.53 0 019.253 4.096.846.846 0 001.198.057.848.848 0 00.057-1.199A14.23 14.23 0 0028.956.51a14.23 14.23 0 00-10.508 4.65.848.848 0 101.256 1.142z"/><path d="M34.57 9.607a.846.846 0 001.199.057.849.849 0 00.056-1.199 9.304 9.304 0 00-6.869-3.04 9.305 9.305 0 00-6.87 3.04.848.848 0 001.256 1.142 7.604 7.604 0 015.614-2.485c2.132 0 4.178.906 5.614 2.485zM28.956 10.228c-1.26 0-2.467.535-3.313 1.467a.848.848 0 101.257 1.14 2.782 2.782 0 014.114 0 .846.846 0 001.198.059.848.848 0 00.058-1.199 4.482 4.482 0 00-3.314-1.467z"/></svg><svg viewBox="0 0 36 37" id="advantage-medic" xmlns="http://www.w3.org/2000/svg"><g clip-path="url(#ahclip0_72_606)"><path d="M23.06 22.703a.935.935 0 00-.483-1.206.883.883 0 00-1.167.5.935.935 0 00.483 1.206.883.883 0 001.167-.5zM23.324 11.123c.493 0 .893-.413.893-.923s-.4-.923-.893-.923-.892.413-.892.923.4.924.892.924zM14.066 13.978a.946.946 0 000-1.305.872.872 0 00-1.263 0 .946.946 0 000 1.305c.349.36.914.36 1.262 0z"/><path d="M28.699 5.138C25.814 2.154 21.979.51 17.9.51a14.98 14.98 0 00-9.816 3.695.54.54 0 00-.062.743.498.498 0 00.718.064 13.979 13.979 0 019.16-3.447c7.859 0 14.252 6.614 14.252 14.743 0 5.808-3.226 10.984-8.28 13.39a6.4 6.4 0 00-.569-2.097 12.375 12.375 0 003.778-3.018.54.54 0 00-.05-.744.498.498 0 00-.719.051 11.338 11.338 0 01-3.53 2.8 5.998 5.998 0 00-3.59-2.455.51.51 0 00-.607.402.528.528 0 00.389.629c2.265.514 3.909 2.632 3.909 5.035 0 2.842-2.235 5.155-4.983 5.155-2.747 0-4.983-2.313-4.983-5.155 0-2.403 1.645-4.521 3.91-5.035a.528.528 0 00.388-.628.51.51 0 00-.607-.403 5.998 5.998 0 00-3.59 2.456c-3.83-1.933-6.28-5.96-6.28-10.383 0-6.367 5.007-11.547 11.162-11.547 6.155 0 11.163 5.18 11.163 11.547 0 1.986-.497 3.944-1.437 5.664a.537.537 0 00.193.718.5.5 0 00.694-.2 12.923 12.923 0 001.57-6.182c0-6.948-5.466-12.601-12.183-12.601S5.718 9.36 5.718 16.308c0 4.798 2.643 9.17 6.778 11.293a6.4 6.4 0 00-.569 2.098c-5.053-2.407-8.279-7.583-8.279-13.39 0-3.535 1.228-6.954 3.457-9.627a.54.54 0 00-.053-.744.498.498 0 00-.719.055C3.944 8.857 2.63 12.52 2.63 16.308c0 3.218.93 6.315 2.688 8.955 1.656 2.485 3.935 4.411 6.604 5.587.27 3.167 2.848 5.66 5.98 5.66 3.13 0 5.708-2.493 5.978-5.66 2.67-1.176 4.948-3.102 6.604-5.587a16.092 16.092 0 002.688-8.955c0-4.22-1.588-8.187-4.472-11.17z"/><path d="M20.881 28.88c0-.444-.167-.862-.47-1.176a1.572 1.572 0 00-2.275 0l-.236.244-.236-.244a1.572 1.572 0 00-2.275 0 1.682 1.682 0 00-.47 1.176c0 .445.167.862.47 1.177l.237.244-.236.244a1.682 1.682 0 00-.472 1.176c0 .445.168.863.472 1.177a1.572 1.572 0 002.274 0l.236-.244.236.244a1.571 1.571 0 002.274 0c.304-.315.471-.732.471-1.177 0-.444-.167-.862-.47-1.176l-.237-.244.236-.244c.304-.315.471-.732.471-1.177zm-1.788 1.794l.596.617a.616.616 0 01.173.43.616.616 0 01-.172.43.575.575 0 01-.833 0l-.597-.616a.5.5 0 00-.72 0l-.597.617a.575.575 0 01-.833 0 .616.616 0 01-.172-.43c0-.164.061-.317.172-.432l.597-.616a.54.54 0 000-.746l-.597-.617a.616.616 0 01-.172-.43c0-.164.061-.317.172-.432a.576.576 0 01.833 0l.596.617c.2.206.522.206.721 0l.597-.617a.576.576 0 01.832 0 .616.616 0 01.173.431.616.616 0 01-.172.43l-.597.618a.54.54 0 000 .745zM21.156 9.348a.519.519 0 00-.51-.528h-.227a2.693 2.693 0 00-.378-.94l.162-.168a.54.54 0 000-.746.498.498 0 00-.721 0l-.162.168a2.51 2.51 0 00-.91-.392v-.235a.519.519 0 00-.51-.528.519.519 0 00-.51.528v.235a2.51 2.51 0 00-.91.392l-.161-.168a.498.498 0 00-.721 0 .54.54 0 000 .746l.162.167c-.181.281-.312.6-.378.941h-.228a.519.519 0 00-.51.528c0 .291.228.527.51.527h.228c.066.342.197.66.378.941l-.162.168a.54.54 0 000 .746.5.5 0 00.72 0l.163-.168c.271.187.579.322.91.391v.236c0 .291.228.527.51.527.28 0 .509-.236.509-.527v-.236c.33-.069.638-.204.91-.391l.162.168a.5.5 0 00.72 0 .54.54 0 000-.746l-.161-.168c.18-.28.31-.599.378-.94h.227c.282 0 .51-.237.51-.528zM17.9 10.95c-.855 0-1.55-.719-1.55-1.603s.695-1.604 1.55-1.604c.855 0 1.55.72 1.55 1.604 0 .884-.695 1.603-1.55 1.603zM25.453 20.387c1.227 0 2.226-1.033 2.226-2.303v-3.551c0-1.27-.999-2.303-2.226-2.303-1.228 0-2.226 1.033-2.226 2.303v3.551c0 1.27.998 2.303 2.226 2.303zm-1.207-5.854c0-.689.541-1.249 1.207-1.249.665 0 1.207.56 1.207 1.249v3.551c0 .689-.542 1.248-1.207 1.248-.666 0-1.207-.56-1.207-1.248v-3.551zM8.818 16.715a2.362 2.362 0 000 3.256l2.427 2.512a2.182 2.182 0 001.574.673c.57 0 1.14-.224 1.574-.673a2.362 2.362 0 000-3.257l-2.427-2.511a2.177 2.177 0 00-3.148 0zm5.208 4.14c0 .333-.126.646-.354.882a1.18 1.18 0 01-1.706 0l-2.428-2.511a1.262 1.262 0 01-.353-.883c0-.333.125-.647.353-.883a1.18 1.18 0 011.707 0l2.428 2.511c.227.236.353.55.353.883zM20.54 16.4a.5.5 0 00-.696-.193l-.226.135a1.597 1.597 0 00-.555-.333v-.269a.519.519 0 00-.51-.527.519.519 0 00-.51.527v.27a1.598 1.598 0 00-.555.332l-.226-.135a.5.5 0 00-.696.193.538.538 0 00.187.72l.224.135a1.715 1.715 0 000 .664l-.224.135a.537.537 0 00-.187.72c.094.17.266.264.442.264a.494.494 0 00.254-.071l.226-.135c.16.147.349.26.556.332v.27c0 .29.228.527.51.527.28 0 .51-.236.51-.527v-.27c.206-.071.395-.185.555-.332l.226.135c.08.048.168.07.254.07a.507.507 0 00.442-.263.537.537 0 00-.187-.72l-.224-.135a1.723 1.723 0 000-.664l.224-.135a.538.538 0 00.187-.72zm-2.575 1.187a.6.6 0 01.588-.61.6.6 0 01.59.61.6.6 0 01-.59.609.6.6 0 01-.588-.61z"/></g><defs><clipPath id="ahclip0_72_606"><path fill="#fff" transform="translate(.5 .51)" d="M0 0h34.8v36H0z"/></clipPath></defs></svg><svg viewBox="0 0 37 37" id="advantage-security" xmlns="http://www.w3.org/2000/svg"><g clip-path="url(#aiclip0_72_597)"><path d="M17.893 13.737a.532.532 0 00.802-.091l3.51-5.297a.528.528 0 00-.879-.583l-3.163 4.773-1.757-1.668a.528.528 0 00-.726.764l2.213 2.102z"/><path d="M18.252 21.78c.1.046.212.07.323.07h.005a.772.772 0 00.327-.074c8.019-3.814 9.378-12.042 9.603-14.473a1.26 1.26 0 00-.777-1.286A4.609 4.609 0 0124.9 2.149c-.047-.53-.5-.943-1.034-.943h-.006l-10.804.063a1.033 1.033 0 00-1.029.963 4.61 4.61 0 01-2.79 3.895 1.256 1.256 0 00-.758 1.294c.254 2.428 1.709 10.64 9.772 14.36zm-8.6-14.683a5.66 5.66 0 003.427-4.774L23.85 2.26a5.66 5.66 0 003.477 4.731c.088.037.14.123.132.215-.212 2.278-1.477 9.96-8.887 13.56-7.452-3.512-8.806-11.18-9.045-13.455a.208.208 0 01.125-.214z"/><path d="M10.97 10.02c.063.235.36.45.647.37a.528.528 0 00.37-.646 17.385 17.385 0 01-.335-1.494 7.417 7.417 0 003.017-3.954l7.616-.045a7.416 7.416 0 003.063 3.918c-.082.499-.19 1.002-.318 1.5a.528.528 0 101.02.264c.152-.584.275-1.176.366-1.76a.806.806 0 00-.38-.818 6.365 6.365 0 01-2.799-3.588.815.815 0 00-.775-.572h-.005l-7.973.047a.816.816 0 00-.773.581 6.365 6.365 0 01-2.757 3.62.806.806 0 00-.37.823c.098.583.228 1.173.386 1.754zM24.985 11.584a.527.527 0 00-.689.286c-1.218 2.954-3.148 5.2-5.736 6.678-2.607-1.45-4.565-3.676-5.818-6.62a.528.528 0 00-.97.412c1.367 3.213 3.522 5.635 6.403 7.2a.807.807 0 00.782-.005c2.86-1.596 4.984-4.04 6.314-7.263a.527.527 0 00-.286-.688zM3.883 28.19a1.868 1.868 0 00-1.865 1.865c0 1.03.837 1.866 1.865 1.866a1.868 1.868 0 001.866-1.866 1.868 1.868 0 00-1.866-1.865zm0 2.676a.812.812 0 11.002-1.623.812.812 0 01-.002 1.623z"/><path d="M36.122 23.027a2.197 2.197 0 00-3.034-.587l-6.894 4.614-1.471-.083-.038-.376a3.2 3.2 0 00-2.77-2.863l-7.43-.65c-.25-.04-1.055-.271-3.265-1.539a8.204 8.204 0 00-3.759-1.081v-1.38c0-.692-.563-1.255-1.255-1.255h-4.45c-.693 0-1.256.563-1.256 1.255V32.67c0 .692.563 1.255 1.255 1.255h4.45c.693 0 1.256-.563 1.256-1.255v-.375l6.494 2.46c.014.005.541.202 1.51.11l10.79-1.555.008-.001a5.306 5.306 0 002.534-1.143l6.968-6.267c.821-.73.975-1.964.357-2.872zm-1.06 2.085l-6.96 6.261a4.249 4.249 0 01-2.001.894L15.319 33.82c-.002 0-.006 0-.01.002h-.004c-.323.051-.659.03-.999-.063l-6.845-2.592v-6.023a.527.527 0 10-1.054 0v7.525c0 .11-.09.2-.201.2h-4.45c-.111 0-.201-.09-.201-.2V19.082c0-.11.09-.2.2-.2h4.45c.111 0 .202.09.202.2v3.681a.527.527 0 101.054 0v-1.246a7.144 7.144 0 013.234.941c2.666 1.53 3.41 1.635 3.655 1.67.01 0 .019.002.028.003l7.43.65c.979.145 1.73.932 1.828 1.918l.028.28-9.947.615-.02-.002a1.202 1.202 0 01-.82-.429.527.527 0 10-.81.675c.387.465.933.742 1.537.805.325.034 10.64-.642 10.64-.642l2.067.116a.526.526 0 00.323-.088l7.042-4.713a1.14 1.14 0 011.574.304 1.14 1.14 0 01-.188 1.492z"/></g><defs><clipPath id="aiclip0_72_597"><path fill="#fff" transform="translate(.5 .01)" d="M0 0h36v36H0z"/></clipPath></defs></svg><svg viewBox="0 0 27 37" id="advantage-service" xmlns="http://www.w3.org/2000/svg"><path d="M10.646 14.628v-.563a.527.527 0 00-1.055 0v.563a.527.527 0 101.055 0zM16.882 13.537a.527.527 0 00-.527.528v.563a.527.527 0 101.054 0v-.563a.527.527 0 00-.527-.528zM16.318 12.901h1.128a.527.527 0 000-1.054h-1.128a.527.527 0 100 1.054zM11.21 12.374a.527.527 0 00-.528-.527H9.555a.527.527 0 100 1.054h1.127a.527.527 0 00.527-.527zM16.835 17.553a.527.527 0 00-.517-.634h-5.636a.527.527 0 00-.516.634c.321 1.55 1.723 2.675 3.334 2.675s3.014-1.125 3.335-2.675zm-5.4.42h4.13a2.367 2.367 0 01-2.065 1.2 2.367 2.367 0 01-2.065-1.2z"/><path d="M24.383 27.99l-5.821-2.055-.009-.004c.972-.612 2.041-1.852 1.595-3.756a4.479 4.479 0 01.196-2.584c.21-.374.391-.767.539-1.176.15.078.32.123.5.123h1.128c.41 0 .768-.228.954-.564h.737c.912 0 1.654-.742 1.654-1.655v-2.254c0-.728-.472-1.347-1.127-1.568V7.3c0-4.02-3.27-7.29-7.29-7.29H9.546c-4.02 0-7.29 3.27-7.29 7.29v5.196c-.655.22-1.128.84-1.128 1.568v2.254c0 .913.742 1.655 1.655 1.655h.6v.036c0 .645-.241 1.066-.52 1.553-.356.62-.758 1.324-.595 2.467.183 1.28.064 1.812-1.007 2.434-.84.49-1.312 1.523-1.172 2.572.102.765.51 1.398 1.135 1.808a3.913 3.913 0 00-1.216 2.832v3.807a.527.527 0 001.055 0v-3.807c0-1.208.765-2.29 1.904-2.692l2.973-1.05a9 9 0 005.73 3.944l1.358 2.714a.527.527 0 00.943 0l1.357-2.714a9.009 9.009 0 005.73-3.943l2.973 1.049a2.859 2.859 0 011.904 2.692v3.807a.527.527 0 001.055 0v-3.807a3.915 3.915 0 00-2.608-3.687zm-10.883.766a5.38 5.38 0 01-4.23-2.05 2.787 2.787 0 001.376-2.4v-.785c.65-.223 1.12-.84 1.12-1.565 0-.913-.743-1.655-1.655-1.655h-.563c-.321 0-.621.092-.875.251a6.817 6.817 0 01-1.98-4.782V13.38a1.664 1.664 0 001.135-1.576V10.12a1.73 1.73 0 011.727-1.728h2.254c.677 0 1.284-.304 1.691-.784.407.48 1.014.784 1.691.784a.527.527 0 000-1.054 1.165 1.165 0 01-1.164-1.164.527.527 0 00-1.054 0c0 .642-.522 1.164-1.164 1.164H9.555a2.785 2.785 0 00-2.782 2.782v1.683a.607.607 0 01-.278.51 1.09 1.09 0 00-.893-.466h-.029V7.3A3.986 3.986 0 019.555 3.32h7.89A3.986 3.986 0 0121.428 7.3v4.546h-.043a1.09 1.09 0 00-.892.464.592.592 0 01-.265-.493V10.12a2.785 2.785 0 00-2.781-2.782.527.527 0 100 1.054 1.73 1.73 0 011.727 1.728v1.698c0 .724.47 1.34 1.12 1.56v2.383a6.808 6.808 0 01-6.8 6.795.527.527 0 000 1.054c1.009 0 1.974-.191 2.862-.54v1.236c0 .998.536 1.908 1.376 2.4a5.373 5.373 0 01-4.23 2.05zm-5.643-7.328a3.423 3.423 0 01-3.378-2.89h1.123c.181 0 .352-.045.502-.124A7.872 7.872 0 008 21.37l-.02.058h-.123zm-2.255-8.527c.02 0 .036.017.036.037v4.509c0 .02-.016.036-.036.036H4.475a.036.036 0 01-.037-.036v-4.51c0-.02.017-.036.037-.036h1.127zm3.945 8.455h.564a.6.6 0 010 1.2h-.564a.6.6 0 010-1.2zm8.12 3.856a1.723 1.723 0 01-.258-.906v-1.744a7.903 7.903 0 001.579-1.2c.008.33.047.685.133 1.054.407 1.737-.969 2.564-1.453 2.796zm4.844-7.73h-1.127a.036.036 0 01-.037-.035v-4.51c0-.02.017-.036.037-.036h1.127c.02 0 .036.017.036.037v4.509c0 .02-.016.036-.036.036zm2.29-1.163a.6.6 0 01-.599.6h-.6v-3.454h.6c.33 0 .6.27.6.6v2.254zM9.548 1.065h7.891A6.243 6.243 0 0123.675 7.3v5.11h-.21a1.092 1.092 0 00-.954-.564h-.029V7.3a5.042 5.042 0 00-5.036-5.036H9.555A5.042 5.042 0 004.518 7.3v4.546h-.043c-.41 0-.768.228-.955.563h-.209V7.301a6.243 6.243 0 016.236-6.236zM2.784 16.919a.6.6 0 01-.6-.6v-2.254c0-.33.27-.6.6-.6h.6v3.454h-.6zm-.167 11.07c-.14.05-.277.108-.41.172-.604-.212-.991-.665-1.071-1.264-.083-.623.187-1.248.656-1.521 1.56-.907 1.74-1.969 1.521-3.495-.112-.784.143-1.23.466-1.794l.062-.109a4.477 4.477 0 004.016 2.505h.123c.22.654.84 1.127 1.568 1.127h.043v.696a1.73 1.73 0 01-1.152 1.629l-5.822 2.054zm4.35-.416l1.292-.456a6.432 6.432 0 004.074 2.587l-.61.61a1.09 1.09 0 00-.264.43 7.95 7.95 0 01-4.492-3.171zm7.57 3.528L13.5 33.176l-1.037-2.075a.036.036 0 01.007-.042l1.03-1.03 1.031 1.03c.011.012.014.028.007.042zm1.005-.357a1.091 1.091 0 00-.265-.43l-.61-.61a6.42 6.42 0 004.074-2.587l1.293.456a7.96 7.96 0 01-4.492 3.171z"/></svg><svg viewBox="0 0 37 37" id="advantages-stuff" xmlns="http://www.w3.org/2000/svg"><path d="M27.708 28.003l-5.157-2.209a1.162 1.162 0 01-.705-1.07v-2.07a6.737 6.737 0 003.361-5.307h.339a1.94 1.94 0 001.926-2.135 1.874 1.874 0 00-.558-1.145.515.515 0 00.004-.066v-1.69a8.41 8.41 0 00-3.381-6.742C23.536 2.792 21.277.51 18.5.51c-2.775 0-5.033 2.28-5.036 5.054a8.385 8.385 0 00-3.36 6.145.527.527 0 001.051.075 7.333 7.333 0 012.315-4.851 7.336 7.336 0 015.03-1.986c4.06 0 7.364 3.303 7.364 7.363v1.203a2.06 2.06 0 00-.399-.04H24.7a.6.6 0 01-.6-.599v-.372c0-1.14-.645-2.132-1.59-2.63.486-.289.766-.486.806-.514a.527.527 0 00-.613-.859c-.036.026-3.652 2.566-8.784 3.224a1.165 1.165 0 00-1.019 1.15.6.6 0 01-.6.6h-.845a1.94 1.94 0 00-1.927 2.135c.098.975.98 1.739 2.007 1.739h.258a6.677 6.677 0 001.95 4.23c.427.426.902.788 1.412 1.082v2.066c0 .466-.277.886-.706 1.07l-5.157 2.208a3.342 3.342 0 00-2.028 3.075v4.905a.527.527 0 101.054 0v-4.905c0-.918.546-1.744 1.39-2.106l3.192-1.367v3.341h-1.727c-.912 0-1.655.743-1.655 1.655v2.255c0 .912.743 1.654 1.655 1.654a.527.527 0 100-1.054.6.6 0 01-.6-.6V32.6c0-.33.27-.6.6-.6h4.509c.33 0 .6.27.6.6v2.255a.6.6 0 01-.6.6.527.527 0 100 1.054c.912 0 1.655-.742 1.655-1.654V32.6c0-.912-.743-1.654-1.655-1.654h-1.727V27.95l3.627 2.419a1.652 1.652 0 001.836 0l3.628-2.419v4.188a2.222 2.222 0 00-1.691 2.154 2.22 2.22 0 002.218 2.218 2.22 2.22 0 002.218-2.218 2.222 2.222 0 00-1.69-2.154v-4.533l3.192 1.367a2.288 2.288 0 011.389 2.106v4.905a.527.527 0 101.055 0v-4.905c0-1.34-.797-2.547-2.029-3.075zM14.58 4.859A3.987 3.987 0 0118.5 1.565a3.987 3.987 0 013.922 3.298 8.366 8.366 0 00-3.922-.97 8.394 8.394 0 00-3.92.966zm-1.751 11.96a.528.528 0 00-.528-.527h-.765c-.492 0-.913-.347-.957-.789a.884.884 0 01.877-.975h.845c.912 0 1.655-.742 1.655-1.656 0-.052.041-.095.098-.102 3.02-.388 5.508-1.373 7.143-2.186a1.921 1.921 0 011.85 1.918v.372c0 .912.742 1.654 1.654 1.654h.765c.493 0 .913.347.958.79a.884.884 0 01-.877.975l-.846-.001a.527.527 0 00-.527.527 5.68 5.68 0 01-5.673 5.673c-1.515 0-2.94-.59-4.011-1.662a5.636 5.636 0 01-1.661-4.01zm6.005 12.672a.599.599 0 01-.666 0l-3.782-2.522.48-.205a2.216 2.216 0 001.344-2.04v-1.576a6.73 6.73 0 002.291.399c.804 0 1.576-.143 2.291-.402v1.58c0 .888.528 1.689 1.345 2.039l.48.205-3.783 2.522zm5.903 4.801c0 .642-.521 1.164-1.163 1.164a1.165 1.165 0 01-1.164-1.164 1.165 1.165 0 012.327 0z"/><path d="M15.682 14.601a.527.527 0 00-.528.527v.564a.527.527 0 101.055 0v-.564a.527.527 0 00-.527-.527zM21.318 16.22a.527.527 0 00.528-.528v-.564a.527.527 0 10-1.055 0v.564c0 .291.236.527.527.527zM20.598 18.175a.528.528 0 00-.742-.072c-.342.282-.836.444-1.356.444-.52 0-1.014-.162-1.355-.444a.527.527 0 10-.671.814c.535.441 1.255.684 2.026.684.771 0 1.491-.243 2.026-.684a.527.527 0 00.072-.742zM35.368 26.207l-2.225-.741a.036.036 0 01-.025-.035v-1.45a3.907 3.907 0 001.69-3.216v-1.691a2.785 2.785 0 00-2.78-2.782h-2.255a2.785 2.785 0 00-2.782 2.782v1.69c0 1.333.67 2.511 1.69 3.217v1.45c0 .016-.01.03-.024.035l-.742.247a.527.527 0 10.333 1l.475-.158 1.522 1.142c.193.144.424.216.655.216.23 0 .462-.072.655-.216l1.072-.805v2.45c-.654.22-1.127.84-1.127 1.568 0 .913.742 1.655 1.654 1.655.913 0 1.655-.742 1.655-1.655 0-.728-.473-1.347-1.127-1.568v-2.585l1.353.451a.6.6 0 01.41.57v4.26a.527.527 0 101.055 0v-4.26c0-.714-.455-1.345-1.132-1.57zm-7.323-5.442v-1.691a1.73 1.73 0 011.727-1.727h2.255a1.73 1.73 0 011.727 1.727v1.69A2.858 2.858 0 0130.9 23.62a2.858 2.858 0 01-2.855-2.854zm2.876 6.088a.037.037 0 01-.043 0l-1.254-.94c.072-.147.112-.31.112-.482v-.934a3.895 3.895 0 002.327 0v.934c0 .171.04.335.112.481l-1.254.94zm2.233 4.657a.6.6 0 11.002-1.201.6.6 0 01-.002 1.201zM5.445 27.697c.193.144.424.216.655.216.231 0 .462-.072.655-.216l1.522-1.142.475.159a.525.525 0 00.667-.334.527.527 0 00-.334-.667l-.742-.247a.036.036 0 01-.025-.035v-1.45a3.907 3.907 0 001.691-3.216V18.51a2.22 2.22 0 00-2.218-2.218H4.41a2.22 2.22 0 00-2.218 2.218v2.255c0 1.332.67 2.51 1.69 3.216v1.45c0 .016-.01.03-.024.035l-2.226.741A1.653 1.653 0 00.5 27.777v4.26a.527.527 0 101.055 0v-4.26a.6.6 0 01.41-.569l1.917-.639v2.687h-.6c-.602 0-1.091.489-1.091 1.09v1.128c0 .601.49 1.09 1.09 1.09a.527.527 0 100-1.054.036.036 0 01-.035-.036v-1.127c0-.02.016-.037.036-.037h2.254c.02 0 .037.017.037.037v1.127c0 .02-.016.036-.037.036a.527.527 0 100 1.055c.602 0 1.091-.49 1.091-1.091v-1.127c0-.602-.489-1.091-1.09-1.091h-.6v-1.941l.508.381zM4.41 17.346h3.382c.642 0 1.164.522 1.164 1.163v1.142a6.414 6.414 0 01-3.336-1.283c-.387-.3-.93-.305-1.322-.01l-1.051.787v-.636c0-.641.522-1.163 1.163-1.163zm-1.163 3.418v-.3l1.683-1.263c.008-.006.025-.014.042 0a7.369 7.369 0 003.984 1.508v.055A2.858 2.858 0 016.1 23.619a2.858 2.858 0 01-2.854-2.854zM6.1 24.674c.405 0 .796-.062 1.164-.177v.934c0 .171.04.335.112.482l-1.254.94a.036.036 0 01-.044 0l-1.254-.94c.072-.147.113-.31.113-.482v-.934c.367.115.758.177 1.163.177z"/></svg><svg fill="none" viewBox="0 0 24 24" id="call" xmlns="http://www.w3.org/2000/svg"><path d="M14.392 6.682a.887.887 0 00-1.042.705.893.893 0 00.703 1.045 3.59 3.59 0 012.85 2.847v.001a.891.891 0 101.747-.342 5.365 5.365 0 00-4.258-4.256z" fill="#919EBE"/><path d="M14.368 2.675a.889.889 0 00-.678.19.931.931 0 00.471 1.66 7.493 7.493 0 016.65 6.647.93.93 0 101.85-.207 9.34 9.34 0 00-8.293-8.29z" fill="#919EBE"/><path fill-rule="evenodd" clip-rule="evenodd" d="M11.54 13.797c3.919 3.918 4.808-.614 7.303 1.88 2.406 2.404 3.789 2.886.74 5.933-.381.307-2.807 3.998-11.331-4.524C-.274 8.563 3.415 6.134 3.722 5.753c3.055-3.056 3.529-1.665 5.934.74 2.496 2.494-2.035 3.386 1.884 7.304z" fill="#919EBE"/></svg><svg viewBox="0 0 24 24" id="facebook" xmlns="http://www.w3.org/2000/svg"><g clip-path="url(#amclip0_55_916)"><path d="M24 12.073C24 5.404 18.627-.002 12-.002 5.37 0-.003 5.404-.003 12.075c0 6.025 4.39 11.02 10.125 11.926v-8.438H7.077v-3.489h3.048V9.413c0-3.025 1.793-4.696 4.533-4.696 1.314 0 2.687.235 2.687.235v2.97H15.83c-1.49 0-1.954.932-1.954 1.887v2.265h3.327l-.531 3.489h-2.798V24C19.611 23.093 24 18.099 24 12.073z"/></g><defs><clipPath id="amclip0_55_916"><path fill="#fff" d="M0 0h24v24H0z"/></clipPath></defs></svg><svg fill="none" viewBox="0 0 22 21" id="footer-button-icon" xmlns="http://www.w3.org/2000/svg"><path fill-rule="evenodd" clip-rule="evenodd" d="M16.159.51C19.489.51 22 3.227 22 6.83v6.868c0 1.844-.652 3.51-1.837 4.692-1.063 1.059-2.442 1.62-3.988 1.62H6.322c-1.543 0-2.921-.56-3.985-1.62C1.152 17.208.5 15.542.5 13.698V6.83C.5 3.227 3.011.51 6.341.51h9.818zm0 1.5H6.341C3.826 2.01 2 4.037 2 6.83v6.868c0 1.443.496 2.732 1.396 3.629.776.775 1.789 1.183 2.929 1.183h9.834c.002-.002.01 0 .016 0 1.141 0 2.153-.408 2.929-1.183.901-.897 1.396-2.186 1.396-3.63V6.83c0-2.793-1.826-4.82-4.341-4.82zm1.576 4.629a.75.75 0 01-.109 1.055l-4.444 3.612a3.042 3.042 0 01-3.799.006L4.898 7.696a.751.751 0 01.941-1.168l4.481 3.612a1.544 1.544 0 001.923-.004l4.436-3.606a.75.75 0 011.056.109z" fill="#fff"/></svg><svg viewBox="0 0 28 29" id="footer-facebook" xmlns="http://www.w3.org/2000/svg"><path d="M28 14.106C28 6.326 21.732.018 14 .018 6.265.02-.003 6.325-.003 14.108c0 7.03 5.12 12.857 11.812 13.914v-9.844H8.257v-4.07h3.556V11c0-3.53 2.09-5.48 5.288-5.48 1.533 0 3.134.276 3.134.276v3.465H18.47c-1.738 0-2.28 1.086-2.28 2.201v2.643h3.88l-.619 4.07h-3.263v9.844C22.88 26.963 28 21.135 28 14.106z"/></svg><svg viewBox="0 0 31 30" id="hand" xmlns="http://www.w3.org/2000/svg"><path d="M20.188 13.125v-1.406a2.344 2.344 0 00-4.688 0v-7.5a2.344 2.344 0 00-4.687 0v14.215L8.246 13.98a2.346 2.346 0 10-4.066 2.344C8 24.375 10.32 27.187 15.5 27.187a9.375 9.375 0 009.375-9.375v-4.687a2.344 2.344 0 00-4.687 0z"/></svg><svg viewBox="0 0 71 70" id="header-item1" xmlns="http://www.w3.org/2000/svg"><g clip-path="url(#aqclip0_55_945)"><path d="M51.757 13.218l5.66 2.43a14.984 14.984 0 013.325 1.966 1.026 1.026 0 001.443-.176 1.028 1.028 0 00-.176-1.443 17.052 17.052 0 00-3.78-2.236l-5.661-2.43a9.59 9.59 0 01-2.843-1.876 9.67 9.67 0 01-2.987-6.97V1.028a1.028 1.028 0 10-2.056 0v1.455c0 3.18 1.321 6.263 3.624 8.458 1.01.961 2.17 1.727 3.45 2.277zM70.131 58.578l-1.195-2.298a1.134 1.134 0 01-.127-.52V44.27a5.824 5.824 0 00-1.884-4.292l.002-.038v-3.407a16.988 16.988 0 00-1.615-17.095 1.028 1.028 0 10-1.67 1.2 14.934 14.934 0 011.33 15.217 1.03 1.03 0 00-.101.447v1.914l-9.625-8.22v-1.195a1.028 1.028 0 10-2.056 0v14.381c0 1.405-.253 2.807-.737 4.124l-.181-.302a3.723 3.723 0 00-2.404-1.734 3.76 3.76 0 00-4.273 5.148l2.831 6.608a12.816 12.816 0 003.168 4.442l.001.07.458 7.239a1.028 1.028 0 002.052-.13l-.354-5.594c.344.2.698.387 1.062.556l1.159.538 4.021 5.436a1.026 1.026 0 001.438.216c.456-.338.553-.982.215-1.438l-4.177-5.647a1.028 1.028 0 00-.393-.32l-1.396-.65a10.762 10.762 0 01-5.364-5.528l-2.831-6.608a1.703 1.703 0 013.024-1.546l2.069 3.449a2.408 2.408 0 002.054 1.162h1.401c1.18 0 2.175-.845 2.364-2.01l.21-1.291a1.028 1.028 0 10-2.029-.33l-.21 1.29a.338.338 0 01-.335.285h-1.401a.341.341 0 01-.291-.164l-.59-.983a14.047 14.047 0 001.496-6.288V39.09l2.363 2.824a.366.366 0 01.081.294l-.399 2.452a1.028 1.028 0 102.03.33l.398-2.452a2.42 2.42 0 00-.533-1.944l-3.94-4.707V32.7l10.182 8.697a3.772 3.772 0 011.324 2.872v11.49c0 .51.124 1.018.36 1.47l1.194 2.297a1.028 1.028 0 101.824-.948zM42.76 41.883a8.865 8.865 0 00-2.935 6.583 8.87 8.87 0 001.016 4.122 1.028 1.028 0 101.82-.959 6.806 6.806 0 01-.78-3.163c0-1.924.821-3.767 2.254-5.055a1.028 1.028 0 10-1.375-1.528z"/><path d="M46.847 39.806a1.028 1.028 0 00.423 2.012 6.91 6.91 0 012.64-.034 1.029 1.029 0 00.37-2.022 8.966 8.966 0 00-3.433.044zM24.787 0c-.568 0-1.028.46-1.028 1.028v1.455a9.67 9.67 0 01-2.986 6.97 9.596 9.596 0 01-2.843 1.876l-5.661 2.43a16.837 16.837 0 00-9.209 9.658c-1.61 4.308-1.428 8.956.51 13.116v3.407l.002.036a5.709 5.709 0 00-1.884 4.24v1.822a1.028 1.028 0 102.056 0v-1.822c0-1.073.468-2.088 1.284-2.785L15.25 32.7v3.187l-3.94 4.708a2.421 2.421 0 00-.534 1.944l1.323 8.124a2.386 2.386 0 002.364 2.01h1.401c.837 0 1.624-.446 2.054-1.163l2.07-3.448a1.686 1.686 0 011.088-.785 1.703 1.703 0 011.935 2.332l-2.831 6.607a10.762 10.762 0 01-5.364 5.529l-1.396.648a1.027 1.027 0 00-.393.321l-4.177 5.647a1.028 1.028 0 101.653 1.222l4.021-5.436 1.158-.538c.365-.17.719-.355 1.063-.556l-.354 5.594a1.028 1.028 0 002.052.13l.458-7.24c.002-.023.001-.045 0-.069a12.82 12.82 0 003.168-4.442l2.832-6.608a3.76 3.76 0 00-4.273-5.148 3.722 3.722 0 00-2.404 1.734l-.181.302a11.98 11.98 0 01-.738-4.124V28.8a1.028 1.028 0 10-2.056 0v1.195l-9.624 8.22v-1.914a1.03 1.03 0 00-.102-.447 14.798 14.798 0 01-.538-11.717 14.8 14.8 0 018.094-8.49l5.66-2.43a11.65 11.65 0 003.451-2.277 11.736 11.736 0 003.624-8.458V1.028C25.815.46 25.355 0 24.787 0zm-8.63 50.453a.34.34 0 01-.291.164h-1.402a.338.338 0 01-.335-.284l-1.323-8.124a.366.366 0 01.081-.294l2.364-2.824v4.09c0 2.177.517 4.346 1.495 6.29l-.59.982z"/><path d="M2.716 49.392c-.568 0-1.028.46-1.028 1.028v5.367c0 .163-.04.324-.114.468L.366 58.578a1.028 1.028 0 001.824.948l1.208-2.323c.226-.435.346-.925.346-1.416V50.42c0-.568-.46-1.028-1.028-1.028zM27.737 41.883a1.028 1.028 0 10-1.374 1.529 6.808 6.808 0 012.254 5.054c0 1.102-.27 2.196-.78 3.163a1.028 1.028 0 001.819.96 8.87 8.87 0 001.017-4.123 8.866 8.866 0 00-2.936-6.583zM20.217 39.762a1.028 1.028 0 00.37 2.022 6.912 6.912 0 012.64.034 1.029 1.029 0 00.423-2.012 8.976 8.976 0 00-3.433-.044zM35.358 0c-.568 0-1.028.46-1.028 1.028v2.404a1.028 1.028 0 102.056 0V1.028C36.386.46 35.926 0 35.358 0zM35.358 9.2c-.568 0-1.028.46-1.028 1.028v2.404a1.028 1.028 0 102.056 0v-2.404c0-.568-.46-1.028-1.028-1.028zM35.358 18.4c-.568 0-1.028.46-1.028 1.027v2.404a1.028 1.028 0 102.056 0v-2.404c0-.567-.46-1.028-1.028-1.028zM35.358 27.6c-.568 0-1.028.46-1.028 1.028v2.404a1.028 1.028 0 102.056 0v-2.404c0-.568-.46-1.028-1.028-1.028zM35.358 36.8c-.568 0-1.028.46-1.028 1.027v2.404a1.028 1.028 0 102.056 0v-2.404c0-.568-.46-1.028-1.028-1.028zM35.358 45.999c-.568 0-1.028.46-1.028 1.028v2.404a1.028 1.028 0 102.056 0v-2.404c0-.568-.46-1.028-1.028-1.028zM35.358 55.2c-.568 0-1.028.46-1.028 1.027v2.404a1.028 1.028 0 102.056 0v-2.404c0-.568-.46-1.028-1.028-1.028zM35.358 64.399c-.568 0-1.028.46-1.028 1.028v2.404a1.028 1.028 0 102.056 0v-2.404c0-.568-.46-1.028-1.028-1.028z"/></g><defs><clipPath id="aqclip0_55_945"><path fill="#fff" transform="translate(.25)" d="M0 0h70v70H0z"/></clipPath></defs></svg><svg viewBox="0 0 71 70" id="header-item2" xmlns="http://www.w3.org/2000/svg"><g clip-path="url(#arclip0_55_966)"><path d="M41.58 30.795l10.59 2.583 10.589-.877c3.328 0 5.985-1.104 6.71-4.077a1.152 1.152 0 00-.846-1.393l-13.545.052-13.545-3.409-.546 2.239L53.87 29.16l12.883-.213c-.743 1.078-2.475 1.177-3.994 1.413l-10.043.78-10.59-2.583-.545 2.238z"/><path fill-rule="evenodd" clip-rule="evenodd" d="M43.2 40.899l.978.449s8.24 3.95 8.979 4.31a7.172 7.172 0 014.019 6.437l-.03 11.347 4.302 1.402a3.871 3.871 0 012.573 2.79h5.397a1.152 1.152 0 110 2.304H36.042v-2.304h15.435a3.518 3.518 0 01-.32-1.566l.034-1.381-1.306-9.738a2.039 2.039 0 00-1.752-1.76l-11.79-1.569h-.3v-2.34c.077-.006.156-.004.234.006l12.16 1.619a4.346 4.346 0 013.733 3.752l.865 6.75h1.81l.026-9.318a4.856 4.856 0 00-2.72-4.359c-.75-.363-9.381-4.5-9.381-4.5h-6.728v-2.304h5.832v-.027H43.2zm17.535 26.135l-5.097-1.66a1.152 1.152 0 01-.795-1.096v-.566H53.37l.013.071.013.064c.05.255.107.542.101.792l-.037 1.486c.055.765.463 1.184 1.225 1.26h6.642a1.579 1.579 0 00-.592-.35z"/><path fill-rule="evenodd" clip-rule="evenodd" d="M31.834 42.236l-1.651-1.14-.772-1.573-.636-1.338-1.1-3.106-.025-5.04.025-2.304c.056-.725.148-1.505.502-2.33.354-.826.669-1.416 1.234-2.07.566-.652 1.06-1.144 1.711-1.594a7.198 7.198 0 01-2.366-5.293v-5.721-.174c-.002-.21-.003-.419.02-.626-2.87-1.769-3.375-5.91-.994-8.314 2.616-2.642 7.228-1.785 8.712 1.625 3.522.099 7.224 2.213 7.637 6.155.123 1.174-.165 2.433-.994 3.305l.025 3.685a7.245 7.245 0 01-2.586 5.57c.534.404 1.01.87 1.421 1.383l1.288 2.305c.24.666.39 1.37.447 2.094l.025 2.304v11.309l2.344 1.124-14.267-.236zm9.619-4.853v3.543H30.458l-.504-3.543h11.498zM29.419 3.234c.57-.575 1.351-.9 2.161-.9.995 0 1.89.471 2.453 1.227a7.47 7.47 0 00-3.09 1.856 7.624 7.624 0 00-1.5 2.123c-1.17-1.159-1.181-3.138-.024-4.306zm6.841 2.303c2.56.01 5.299 1.42 5.58 4.096.161 1.542-.983 2.057-2.303 2.057-3.15 0-5.997 1.196-8.46 3.094v-4.067c.004-2.84 2.328-5.18 5.183-5.18zm3.46 8.458c.33.003.522.005 1.12-.11l.017 2.513a4.86 4.86 0 01-1.415 3.47 4.85 4.85 0 01-3.45 1.446h-.019a4.919 4.919 0 01-4.77-3.738c2.525-1.908 5.007-3.582 8.333-3.582l.185.001zm-3.756 9.624h.027a7.234 7.234 0 002.31-.386l.016.01.032.018a5.754 5.754 0 012.093 1.847l.004.005.02.032a5.73 5.73 0 01.987 3.219v6.715H29.954v-6.715c0-1.176.357-2.29.987-3.22l.01-.015a5.74 5.74 0 012.398-2.005 7.154 7.154 0 002.615.495zM25.028 43.18c-2.711 1.13-5.497 2.3-5.865 2.478a7.172 7.172 0 00-4.018 6.437l.029 11.347-4.302 1.402a3.87 3.87 0 00-2.573 2.79H2.902a1.152 1.152 0 100 2.304h33.376v-2.304H20.844a3.521 3.521 0 00.32-1.566l-.035-1.381 1.307-9.738a2.039 2.039 0 011.751-1.76l11.79-1.569h.301v-2.34a1.162 1.162 0 00-.235.006l-1.748.233a1.152 1.152 0 01-.865.834c-1.165.26-2.205.13-3.127-.303l-6.42.855a4.346 4.346 0 00-3.733 3.752l-.865 6.75h-1.81l-.026-9.318a4.856 4.856 0 012.72-4.359c.427-.207 3.405-1.635 5.894-2.828l-1.035-1.723zm-8.345 22.194l-5.097 1.66a1.579 1.579 0 00-.592.35h6.642c.761-.075 1.17-.494 1.224-1.259l-.037-1.486c-.006-.25.05-.537.101-.792l.013-.064.014-.071h-1.473v.566c0 .5-.321.941-.796 1.096z"/><path d="M31.442 43.23l-1.121-2.252.125-.052h5.832v2.303h-4.836z"/><path d="M30.446 40.926l-.006-.027h.006v.027zM24.224 36.36l6.707-11.282-2.029-1.205-6.707 11.282c-.886 1.49-.424 3.401 1.032 4.267l-.241-.922 1.238-2.14zM29.9 29.582l-1.106 1.861-1.56 2.888-1.338 2.36 1.652 1.534.759-1.345.838-1.41.71-1.46.045-4.428z"/><path d="M21.885 36.836l.157 1.31 2.028 3.42 2.735 4.554c1.472 2.986 3.637 4.88 6.625 4.216a1.152 1.152 0 00.874-1.375l-6.037-12.125-2.398-.165 5.89 11.46c-1.296-.19-2.15-1.7-3.034-2.958l-5.142-8.662-1.698.325z"/></g><defs><clipPath id="arclip0_55_966"><path fill="#fff" transform="translate(.75)" d="M0 0h70v70H0z"/></clipPath></defs></svg><svg viewBox="0 0 71 70" id="header-item3" xmlns="http://www.w3.org/2000/svg"><g clip-path="url(#asclip0_55_978)" fill-rule="evenodd" clip-rule="evenodd"><path d="M9.63 52.023c.328.461.222 1.101-.24 1.43l-1.55 1.111-.921.66a2.35 2.35 0 01-1.304.44c-.813.022-1.86.02-2.747.01a.356.356 0 00-.362.351v7.624c0 .19.153.342.342.342h3.2l.055.006c4.442.481 13.452 1.447 14.244 1.5.128.009.288.025.475.044 1.498.15 4.79.483 7.955-1.405a366.36 366.36 0 007.224-4.43 1.025 1.025 0 111.096 1.734c-1.123.71-4.143 2.592-7.269 4.457-3.805 2.27-7.81 1.838-9.238 1.684-.16-.018-.288-.031-.379-.038-.845-.056-9.856-1.023-14.274-1.501h-3.09a2.393 2.393 0 01-2.392-2.393v-7.624a2.406 2.406 0 012.436-2.401c.88.01 1.896.011 2.669-.01a.299.299 0 00.165-.058l.917-.657L8.2 51.785a1.025 1.025 0 011.43.238zM31.226 47.735l-8.948 5.005-1.002-1.79 8.974-5.019.012-.006c1.73-.906 3.4-.66 4.271.508.84 1.125.608 2.788-.821 3.612-.574.331-1.593.936-2.474 1.462a715.17 715.17 0 00-1.484.889l-.128.077-.528-.88-.528-.878.128-.078a410.282 410.282 0 011.489-.89c.879-.525 1.911-1.138 2.5-1.478.207-.12.261-.247.276-.32a.362.362 0 00-.073-.289c-.084-.113-.532-.514-1.664.075zm-3.535 3.508l.879-.528.528.879.528.879-.88.528-1.055-1.758z"/><path d="M36.939 49.136c-.02-.022-.573-.505-2.297.422l-.904.485-.97-1.807.903-.485c1.967-1.056 3.806-1.117 4.812.036 1.032 1.18.511 2.865-.806 3.625-.579.334-1.192.692-1.661.966l-.572.336-.163.095-.057.034-.884.52-1.04-1.766.883-.52.49.833-.49-.834.058-.034.164-.096a514.498 514.498 0 012.247-1.31c.225-.13.295-.276.313-.352.018-.076-.001-.12-.026-.148zM45.486 51.541c.868 1.223.634 2.992-.676 4.132l-.024.02-5.151 3.96a1.025 1.025 0 01-1.25-1.626l5.1-3.92c.581-.52.518-1.112.328-1.379-.093-.13-.244-.24-.491-.265-.26-.026-.7.037-1.315.415l-.874.536-1.073-1.748.874-.536c.89-.546 1.775-.79 2.595-.707.834.085 1.52.503 1.957 1.118z"/><path d="M41.638 53.124a2.132 2.132 0 001.104-1.64 2.618 2.618 0 00-.476-1.807 2.792 2.792 0 00-1.696-1.118c-.74-.162-1.563-.047-2.41.355l-.045.022-.043.026c-2.156 1.293-4.864 2.702-5.947 3.243a1.16 1.16 0 00-.027.014 2.76 2.76 0 00-.445-.43c-.61-.473-1.44-.733-2.434-.785a94.56 94.56 0 00-8.024-.013c-1.582-.8-3.43-1.037-5.05-1.036-1.727.002-3.31.275-4.27.537a1.025 1.025 0 00.54 1.979c.794-.217 2.198-.463 3.731-.465 1.546-.002 3.113.246 4.317.918.168.093.358.138.55.129a92.058 92.058 0 018.1 0c.714.036 1.1.214 1.285.358.17.132.209.256.214.348.012.225-.19.604-.693.67-3.004.401-8.446 1.094-11.136 1.436a1.025 1.025 0 00-.368 1.913c1.148.638 2.932 1.23 4.71 1.608 1.764.376 3.698.58 5.127.327 3.3-.587 5.592-1.845 13.386-6.59zm-9.001 1.022c-.17 1.166-1.148 2.143-2.447 2.317-1.775.236-4.397.574-6.801.882l.163.035c1.688.36 3.308.497 4.34.314 2.85-.507 4.795-1.522 12.704-6.337l.028-.017.03-.015c.028-.015.044-.026.052-.089a.575.575 0 00-.116-.377.742.742 0 00-.46-.297c-.208-.045-.552-.042-1.049.186-2.21 1.323-4.94 2.742-6.038 3.291-.131.066-.27.1-.406.107zM61.148 20.008a1.025 1.025 0 011.448.075c2.358 2.611 3.542 6.044 4.133 9.372.592 3.337.605 6.666.543 9.152-.002.051.008.1.029.147l2.22 5.076a2.393 2.393 0 01-1.152 3.113L61.626 50.2a1.025 1.025 0 11-.892-1.847l6.744-3.256a.342.342 0 00.164-.444l-2.22-5.076a2.393 2.393 0 01-.2-1.02c.06-2.447.044-5.612-.512-8.743-.558-3.14-1.64-6.146-3.636-8.356a1.025 1.025 0 01.074-1.449zM40.236 21.54c.518.228.754.833.526 1.351l-.45 1.024c-.719 1.645-.133 2.137-.002 2.203.223.113 1.015.162 1.811-1.005.574-.84 1.454-1.254 2.361-1.388.894-.131 1.87-.003 2.798.278 1.842.558 3.773 1.804 4.899 3.428 1.267 1.828 2.269 4.4 2.397 6.663.064 1.133-.085 2.292-.636 3.246-.578 1.002-1.543 1.677-2.862 1.875-2.055.308-3.75-.59-5.058-1.739-1.297-1.138-2.337-2.63-3.114-3.748-.545-.785-1.087-1.231-1.509-1.44-.435-.216-.633-.139-.657-.126-.012.006-.036.02-.065.076a.916.916 0 00-.08.399c-.009.44.146 1.153.678 2.138l.009.017 3.9 7.941c.03.063.066.094.09.108.513.292 1.232.654 2.057 1.07l.8.402c1.128.573 2.357 1.214 3.346 1.84 1.763 1.117 3.543 2.62 4.638 3.788.189.201.425.23.562.176l1.435-.565a1.025 1.025 0 01.75 1.909l-1.435.564c-1.034.407-2.135.036-2.807-.68-.975-1.04-2.62-2.433-4.24-3.46-.898-.568-2.047-1.17-3.177-1.742l-.752-.38c-.838-.421-1.629-.82-2.194-1.142a2.286 2.286 0 01-.914-.984l-3.883-7.906c-.624-1.161-.933-2.227-.913-3.14.02-.93.402-1.802 1.239-2.243.803-.424 1.73-.29 2.524.102.806.4 1.594 1.116 2.283 2.108.795 1.146 1.703 2.43 2.782 3.377 1.067.937 2.175 1.436 3.401 1.252.732-.11 1.139-.437 1.39-.872.278-.482.416-1.194.365-2.105-.104-1.828-.948-4.041-2.035-5.61-.817-1.178-2.325-2.185-3.809-2.634-.734-.223-1.394-.287-1.904-.212-.499.074-.795.265-.966.516-1.118 1.636-2.931 2.437-4.43 1.678-1.592-.805-1.846-2.809-.951-4.855l.45-1.026a1.026 1.026 0 011.352-.527zM45.687 17.796l1.969.63a1.025 1.025 0 01-.625 1.954l-1.45-.464-3.903.832a1.025 1.025 0 11-.428-2.006l4.437-.946z"/><path d="M41.61 16.032c.285.345.919.78 2.145 1.075 3.276.788 6.316 2.273 8.762 3.825 2.437 1.546 4.345 3.197 5.342 4.368a1.025 1.025 0 11-1.561 1.33c-.827-.971-2.56-2.495-4.88-3.967-2.31-1.465-5.141-2.84-8.143-3.562-1.474-.354-2.576-.953-3.244-1.76-.697-.84-.872-1.86-.523-2.786.67-1.775 2.928-2.643 5.29-2.031l3.085.61a1.025 1.025 0 01-.397 2.011l-3.148-.622-.032-.008c-1.756-.465-2.707.308-2.879.764-.073.193-.075.443.183.753z"/><path d="M44.101 7.528c1.31-1.224 3.456-1.13 5.313.338.307.242.744.58 1.27.986 1.108.855 2.612 2.016 4.126 3.238 2.232 1.803 4.615 3.84 5.981 5.409a1.025 1.025 0 01-1.547 1.346c-1.231-1.415-3.48-3.348-5.723-5.16a230.49 230.49 0 00-4.041-3.172c-.541-.418-.999-.77-1.338-1.038-1.341-1.061-2.305-.762-2.64-.449-.181.17-.296.419-.274.75.022.33.19.808.7 1.36l4.91 4.092.035.034c1.767 1.777 3.18 4.602 4.565 7.374l.068.136.459.917-1.835.918-.458-.918c-1.453-2.906-2.724-5.424-4.22-6.948l-4.93-4.108-.041-.043c-.793-.833-1.239-1.758-1.3-2.68-.061-.929.28-1.782.92-2.382zM42.38 28.324a1.025 1.025 0 01-.497 1.362L13.118 43.041a1.025 1.025 0 11-.864-1.86L41.02 27.826a1.025 1.025 0 011.362.498zM12.054 12.25c.323-.466.962-.581 1.427-.258.813.564 1.612 1.696 1.751 3.3.14 1.612-.39 3.605-2.047 5.93-.898 1.26-1.245 2.27-1.32 3.06-.072.779.113 1.42.416 1.966.31.56.75 1.027 1.189 1.424.185.167.359.312.525.452l.096.08.006.005c.165.137.39.326.544.512.43.515 1.305 1.861 1.263 3.637-.044 1.86-1.085 3.902-3.958 5.744a1.025 1.025 0 11-1.107-1.727c2.459-1.576 2.99-3.055 3.015-4.066.026-1.095-.534-1.971-.788-2.275a1.245 1.245 0 00-.073-.07 7.745 7.745 0 00-.219-.188l-.086-.073c-.167-.139-.376-.313-.593-.51-.516-.466-1.14-1.109-1.607-1.95a5.351 5.351 0 01-.664-3.153c.116-1.235.64-2.583 1.69-4.058 1.461-2.05 1.762-3.567 1.675-4.563-.087-1.006-.573-1.582-.877-1.792a1.025 1.025 0 01-.258-1.428zM4.577 2.955a1.025 1.025 0 011.45-.013c.78.767 1.705 2.132 1.979 3.809.284 1.739-.151 3.725-1.966 5.571-.924.94-1.136 1.517-1.163 1.834-.024.28.078.562.424.998.153.194.326.384.53.607l.089.098c.23.254.494.548.729.872.482.666.896 1.53.773 2.642-.205 1.845-1.017 2.876-1.754 3.758l-.09.108c-.67.797-1.23 1.465-1.53 2.69-.338 1.386-.242 2.361.155 3.132.409.79 1.222 1.536 2.666 2.274a1.025 1.025 0 11-.933 1.826c-1.632-.834-2.87-1.832-3.555-3.16-.696-1.349-.737-2.87-.324-4.559.415-1.697 1.246-2.686 1.921-3.488l.117-.14c.664-.793 1.152-1.437 1.288-2.668.048-.425-.085-.784-.395-1.212a8.352 8.352 0 00-.586-.696l-.084-.092c-.199-.218-.424-.465-.625-.719-.466-.59-.95-1.392-.86-2.445.087-1.017.686-2.021 1.744-3.097 1.357-1.38 1.583-2.71 1.405-3.804-.19-1.157-.85-2.144-1.392-2.676a1.025 1.025 0 01-.013-1.45z"/></g><defs><clipPath id="asclip0_55_978"><path fill="#fff" transform="translate(.25)" d="M0 0h70v70H0z"/></clipPath></defs></svg><svg viewBox="0 0 71 70" id="header-item4" xmlns="http://www.w3.org/2000/svg"><g clip-path="url(#atclip0_55_996)"><path fill-rule="evenodd" clip-rule="evenodd" d="M9.18 30.817a12.304 12.304 0 01-.109-1.63 1.432 1.432 0 01-.007-.123 4.221 4.221 0 00-.745-2.314L2.007 17.57c-.66-.96.029-2.27 1.194-2.27H6.04c1.093 0 2.132.384 2.926 1.082l6.445 5.686a21.828 21.828 0 014.322-6.57 2.003 2.003 0 01.426-1.69A19.98 19.98 0 0131.416 7.01c.106-.023.184-.022.273-.02l.108-.001C29.8 4.055 31.89 0 35.5 0 39.105 0 41.2 4.052 39.2 6.989h.106c.089 0 .168-.002.274.02 4.357.91 8.336 3.301 11.205 6.736.407.487.56 1.111.44 1.712.753.763 1.768 1.998 2.586 3.26.02-.005.06-.02.118-.041a11 11 0 018.895.559.981.981 0 01-.908 1.74 9.022 9.022 0 00-7.098-.533c.322.613.614 1.241.875 1.881 3.938-1.222 7.96 1.246 8.851 5.068-.16.022-.32.05-.478.087a5.42 5.42 0 01-1.492.132c-.736-2.587-3.492-4.232-6.224-3.434.07.225.134.452.195.679a6.791 6.791 0 00-1.988.184 19.737 19.737 0 00-1.824-4.31H18.26a19.837 19.837 0 00-2.422 12.465 1.246 1.246 0 01-.472-.476 4.461 4.461 0 00-1.661-1.68c-.05-2.34.27-4.71.981-6.992L7.68 17.864c-.78-.65-1.522-.626-2.401-.598-.343.011-.706.023-1.1-.004l5.758 8.376a6.178 6.178 0 011.095 3.468 10.364 10.364 0 00.07 1.266 4.773 4.773 0 00-1.922.445zM38.012 4.476A2.516 2.516 0 0035.5 1.963a2.516 2.516 0 00-2.513 2.513 2.516 2.516 0 002.513 2.513 2.516 2.516 0 002.513-2.513zM31.72 8.952a18.011 18.011 0 00-10.048 6.108c-.015.018-.05.034-.049.047.007.097 1.937.056 27.578.056.086 0 .132-.098.08-.16a18.018 18.018 0 00-10.002-6.051H31.72zm19.736 9.813a19.978 19.978 0 00-1.353-1.639H20.896c-.48.523-.934 1.072-1.353 1.64h31.912z"/><path d="M68.738 28.476a10.896 10.896 0 00-2.094-5.952.982.982 0 00-1.587 1.156 8.932 8.932 0 011.617 3.823 5.677 5.677 0 012.064.973zM24.275 35.742a1.036 1.036 0 00-1.455-.172c-.444.35-.841.755-1.181 1.205a1.036 1.036 0 101.653 1.25c.234-.31.506-.588.81-.828.45-.354.527-1.006.173-1.455zM22.387 40.725c0-.194.012-.39.037-.58a1.036 1.036 0 00-2.055-.267 6.614 6.614 0 00-.001 1.688 1.036 1.036 0 102.055-.264 4.52 4.52 0 01-.036-.577zM32.12 36.78a6.603 6.603 0 00-1.18-1.206 1.036 1.036 0 10-1.285 1.626c.304.24.576.519.81.828a1.035 1.035 0 001.45.204c.458-.345.55-.994.205-1.451zM58.794 31.864H54.65a3.112 3.112 0 00-3.108 3.11 3.112 3.112 0 003.108 3.108h4.145a3.112 3.112 0 003.11-3.109 3.112 3.112 0 00-3.11-3.109zm0 4.145H54.65a1.037 1.037 0 010-2.072h4.145a1.037 1.037 0 010 2.072z"/><path fill-rule="evenodd" clip-rule="evenodd" d="M39.684 35.924a2.198 2.198 0 01-1.55 1.19 5.908 5.908 0 00-1.07.32c-2.457-7.584-12.387-9.814-17.872-4.155a4.463 4.463 0 00-2.403.026 1.232 1.232 0 01-1.423-.587c-.708-1.275-2.05-2.14-3.589-2.314-1.531-.174-3.02.362-3.992 1.443-.495.565-1.362.516-1.995.377-1.556-.354-3.208.2-4.21 1.414C.704 34.7.51 36.082 1.055 37.326c.347.81.984 1.51 1.791 1.969 1.279.733 1.208 1.33 1.185 1.53a5.386 5.386 0 001.025 3.794 5.072 5.072 0 00-2.896 1.895 5.141 5.141 0 00-.854 4.535c1.41 5.002 4.676 6.525 9.391 8.725 1.389.648 2.903 1.354 4.533 2.225a7.746 7.746 0 002.397 5.014 7.84 7.84 0 005.43 2.179h24.501a7.84 7.84 0 005.431-2.179 7.747 7.747 0 002.397-5.012c1.632-.873 3.15-1.58 4.54-2.228 4.702-2.19 7.962-3.709 9.377-8.699.45-1.587.14-3.25-.852-4.561a5.049 5.049 0 00-3.803-2.02 7.226 7.226 0 001.388-5.111c-.043-.353-.17-1.426 1.92-2.617 1.078-.61 1.924-1.534 2.381-2.593.73-1.652.484-3.405-.671-4.81-1.329-1.613-3.53-2.353-5.6-1.884-1.039.227-2.458.294-3.323-.689-1.286-1.423-3.28-2.134-5.336-1.9-2.062.233-3.857 1.384-4.8 3.073a2.234 2.234 0 01-1.824 1.141L46.25 28.5h-1.5s-.92-.442-1.319-.84a1.036 1.036 0 10-1.465 1.465c.286.287.608.517.95.693a6.812 6.812 0 00-.718.524 1.032 1.032 0 00-.287-.347 4.549 4.549 0 01-.818-.819 1.036 1.036 0 10-1.642 1.266 6.615 6.615 0 001.193 1.194c.082.063.171.112.263.147a6.064 6.064 0 00-.85 1.966l-.373 2.175zm-4.446 2.644c-.96-3.72-4.344-6.478-8.361-6.478-4.762 0-8.636 3.873-8.636 8.635a8.57 8.57 0 00.865 3.76h2.417a1.036 1.036 0 011.766-1.063c.233.31.505.588.81.829.086.068.159.147.217.234h2.016a3.805 3.805 0 01-3.255-3.76 1.036 1.036 0 012.073 0 1.73 1.73 0 001.727 1.727 1.73 1.73 0 001.727-1.727 1.73 1.73 0 00-1.727-1.727c-.425 0-.79-.256-.95-.622h-.087v-3.178a1.036 1.036 0 012.073 0v1.872a3.806 3.806 0 012.764 3.655 3.805 3.805 0 01-3.256 3.76h2.014c.059-.085.13-.164.216-.231a4.54 4.54 0 00.81-.828 1.036 1.036 0 011.768 1.06h.831a6.315 6.315 0 01.075-2.363 1.036 1.036 0 01-1.805-.817 4.522 4.522 0 000-1.157 1.037 1.037 0 012.056-.264 6.618 6.618 0 01.039 1.28 6.694 6.694 0 011.813-2.597zM2.956 36.501c.171.4.504.759.917.994 2.042 1.17 2.332 2.587 2.216 3.57-.11.946.219 1.925.878 2.614.214.225.307.52.282.806h2.463a3.09 3.09 0 01-.593-.46 3.112 3.112 0 010-4.396l2.932-2.93a3.112 3.112 0 014.396 0c.131.13.246.272.349.419.238-.665.54-1.299.899-1.895a2.225 2.225 0 00-.32.07 3.298 3.298 0 01-3.82-1.565c-.385-.695-1.136-1.166-2.011-1.265-.867-.098-1.693.186-2.209.76-.898 1.025-2.321 1.392-3.998 1.023a2.211 2.211 0 00-2.159.71c-.268.326-.524.857-.222 1.545zm13.231 4.854l-2.67 2.67a3.095 3.095 0 01-.593.46h3.93a10.612 10.612 0 01-.667-3.13zm-5.602 1.205a1.038 1.038 0 001.466 0l2.93-2.93c.195-.195.301-.455.301-.733a1.028 1.028 0 00-1.033-1.034c-.279 0-.539.107-.733.3l-2.931 2.932c-.194.194-.3.454-.3.733 0 .278.106.538.3.732zm56.723 7.949a3.11 3.11 0 00-.511-2.746 2.996 2.996 0 00-2.406-1.205H34.84c-.125.05-.254.075-.382.075-.131 0-.26-.028-.38-.075H6.223c-.952 0-1.83.44-2.411 1.207a3.085 3.085 0 00-.512 2.721c1.247 4.42 4.108 5.674 8.245 7.487 1.432.628 3.016 1.322 4.74 2.238h5.203a1.036 1.036 0 010 2.072h-4.136c.446 2.723 2.868 4.836 5.705 4.836h24.5c2.837 0 5.26-2.112 5.705-4.836H25.633a1.036 1.036 0 010-2.072h28.7c1.725-.917 3.312-1.611 4.745-2.239 4.124-1.805 6.98-3.055 8.23-7.463zM50.035 39.926a6.32 6.32 0 00-6.088 4.56h12.14c-.73-2.665-3.16-4.56-6.052-4.56zm12.56 3.79a5.121 5.121 0 001.382-4.093c-.15-1.27.24-3.112 2.956-4.66.68-.384 1.226-.974 1.505-1.62.553-1.254.004-2.206-.372-2.663-.823-1-2.25-1.473-3.549-1.18-2.245.492-4.133.019-5.321-1.331-.83-.919-2.163-1.38-3.555-1.221-1.4.158-2.606.917-3.227 2.029a4.293 4.293 0 01-4.957 2.03c-1.206-.357-2.586-.08-3.698.742-1.12.828-1.77 2.03-1.784 3.296-.047 2.024-1.499 3.746-3.453 4.105-1.22.24-2.33 1.101-2.954 2.301-.503.966-.638 2.039-.398 3.034h6.642a8.384 8.384 0 018.223-6.632c4.043 0 7.405 2.792 8.18 6.632h4.094a1.033 1.033 0 01.287-.768z"/></g><defs><clipPath id="atclip0_55_996"><path fill="#fff" transform="translate(.75)" d="M0 0h70v70H0z"/></clipPath></defs></svg><svg viewBox="0 0 24 24" id="instagram" xmlns="http://www.w3.org/2000/svg"><path d="M12 0C8.743 0 8.334.015 7.054.072 5.776.132 4.905.333 4.14.63c-.8.301-1.526.774-2.125 1.385A5.89 5.89 0 00.63 4.14c-.297.762-.5 1.635-.558 2.91C.015 8.332 0 8.74 0 12.002c0 3.257.015 3.665.072 4.945.06 1.278.261 2.15.558 2.913a5.894 5.894 0 001.385 2.125 5.856 5.856 0 002.123 1.385c.766.297 1.636.5 2.913.558C8.332 23.985 8.742 24 12 24c3.26 0 3.666-.015 4.947-.072 1.277-.06 2.151-.261 2.915-.558a5.875 5.875 0 002.123-1.385 5.894 5.894 0 001.385-2.125c.296-.764.498-1.635.558-2.913.057-1.28.072-1.688.072-4.947 0-3.26-.015-3.668-.072-4.949-.06-1.276-.262-2.149-.558-2.911a5.89 5.89 0 00-1.385-2.125A5.867 5.867 0 0019.86.63c-.765-.297-1.638-.5-2.915-.558C15.665.015 15.258 0 11.997 0h.005H12zm-1.075 2.163H12c3.205 0 3.584.01 4.848.069 1.17.052 1.806.249 2.23.412.559.218.96.479 1.38.899.42.42.679.819.896 1.38.165.421.36 1.058.413 2.228.058 1.264.07 1.643.07 4.846 0 3.203-.012 3.584-.07 4.848-.053 1.17-.249 1.805-.413 2.228-.192.52-.499.992-.898 1.378-.42.42-.819.68-1.38.897-.42.165-1.056.36-2.228.414-1.264.057-1.643.07-4.848.07-3.204 0-3.585-.013-4.849-.07-1.17-.054-1.804-.249-2.228-.414a3.716 3.716 0 01-1.38-.897 3.72 3.72 0 01-.9-1.38c-.163-.422-.36-1.058-.412-2.228-.057-1.264-.069-1.643-.069-4.849 0-3.204.012-3.582.069-4.846.054-1.17.249-1.806.414-2.23.218-.559.478-.96.899-1.38.42-.42.819-.679 1.38-.896.423-.165 1.057-.36 2.227-.414 1.107-.052 1.536-.067 3.772-.068v.003zm7.482 1.992a1.44 1.44 0 100 2.88 1.44 1.44 0 000-2.88zm-6.405 1.683a6.163 6.163 0 10-.193 12.325 6.163 6.163 0 00.193-12.325zm0 2.162a4 4 0 110 8 4 4 0 010-8z"/></svg><svg viewBox="0 0 28 29" id="instagram-footer" xmlns="http://www.w3.org/2000/svg"><path d="M14 .02c-3.8 0-4.277.017-5.77.084-1.493.07-2.51.304-3.4.65A6.855 6.855 0 002.35 2.37 6.872 6.872 0 00.735 4.85C.389 5.739.152 6.757.084 8.245.017 9.74 0 10.217 0 14.022c0 3.8.018 4.277.084 5.77.07 1.49.304 2.507.651 3.398.359.92.836 1.7 1.615 2.48a6.832 6.832 0 002.478 1.615c.893.346 1.908.582 3.399.65 1.494.067 1.97.085 5.773.085s4.277-.018 5.771-.084c1.49-.07 2.51-.305 3.4-.651a6.852 6.852 0 002.479-1.616 6.875 6.875 0 001.615-2.48c.345-.89.581-1.907.651-3.398.067-1.492.084-1.968.084-5.771s-.017-4.279-.084-5.773c-.07-1.49-.306-2.508-.651-3.397a6.87 6.87 0 00-1.615-2.48A6.843 6.843 0 0023.17.755c-.893-.347-1.911-.583-3.4-.651C18.275.037 17.8.02 13.996.02h.006H14zm-1.255 2.523h1.257c3.738 0 4.18.013 5.656.08 1.365.062 2.107.291 2.6.482.653.254 1.12.558 1.61 1.048s.793.956 1.047 1.61c.192.492.42 1.234.481 2.599.068 1.475.082 1.918.082 5.654 0 3.737-.014 4.181-.082 5.656-.061 1.365-.29 2.105-.481 2.599a4.324 4.324 0 01-1.049 1.608c-.49.49-.955.793-1.61 1.047-.49.192-1.232.42-2.598.483-1.476.066-1.918.082-5.656.082-3.738 0-4.183-.016-5.658-.082-1.365-.063-2.105-.29-2.599-.483a4.338 4.338 0 01-1.61-1.047 4.34 4.34 0 01-1.05-1.61c-.19-.491-.42-1.233-.481-2.598-.067-1.476-.08-1.918-.08-5.658 0-3.738.014-4.18.08-5.654.063-1.365.29-2.107.483-2.601a4.344 4.344 0 011.048-1.61c.49-.49.956-.793 1.61-1.046.494-.193 1.234-.42 2.599-.483 1.292-.06 1.792-.077 4.401-.08v.004zm8.73 2.324a1.68 1.68 0 100 3.361 1.68 1.68 0 000-3.36zm-7.473 1.964a7.191 7.191 0 10-.225 14.38 7.191 7.191 0 00.225-14.38zm0 2.522a4.667 4.667 0 110 9.334 4.667 4.667 0 010-9.334z"/></svg><svg viewBox="0 0 12 19" id="next" xmlns="http://www.w3.org/2000/svg"><path d="M6.192 18.182a5.289 5.289 0 01-3.763-1.578 5.422 5.422 0 01-1.56-3.81V6.328c0-1.429.562-2.8 1.56-3.81A5.289 5.289 0 016.192.94c1.411 0 2.765.568 3.763 1.578a5.422 5.422 0 011.559 3.81v6.466c0 .707-.138 1.408-.405 2.062a5.394 5.394 0 01-1.154 1.748c-.494.5-1.08.897-1.727 1.168-.645.27-1.337.41-2.036.41zm0-16.164c-1.13 0-2.212.454-3.01 1.262a4.338 4.338 0 00-1.248 3.048v6.466c0 1.143.449 2.24 1.247 3.048a4.231 4.231 0 003.01 1.262c1.13 0 2.213-.454 3.011-1.262a4.338 4.338 0 001.247-3.048V6.328c0-1.143-.448-2.24-1.247-3.048a4.231 4.231 0 00-3.01-1.262z"/><path d="M6.192 7.944a.529.529 0 01-.376-.158.542.542 0 01-.156-.38V5.25c0-.143.056-.28.156-.38a.529.529 0 01.752 0c.1.1.156.237.156.38v2.155c0 .143-.056.28-.156.381a.529.529 0 01-.376.158z"/></svg><svg viewBox="0 0 16 16" id="person" xmlns="http://www.w3.org/2000/svg"><g fill="none" fill-rule="evenodd"><path d="M-4-4h24v24H-4z"/><path d="M8 1.9a2.1 2.1 0 110 4.2 2.1 2.1 0 010-4.2zm0 9c2.97 0 6.1 1.46 6.1 2.1v1.1H1.9V13c0-.64 3.13-2.1 6.1-2.1zM8 0C5.79 0 4 1.79 4 4s1.79 4 4 4 4-1.79 4-4-1.79-4-4-4zm0 9c-2.67 0-8 1.34-8 4v2c0 .55.45 1 1 1h14c.55 0 1-.45 1-1v-2c0-2.66-5.33-4-8-4z" fill="#C78C8E"/></g></svg><svg fill="none" viewBox="0 0 47 50" id="process-date" xmlns="http://www.w3.org/2000/svg"><path d="M4.869 22.497h1.673c.835 0 1.514-.68 1.514-1.514V19.31c0-.835-.679-1.514-1.514-1.514H4.87c-.835 0-1.514.68-1.514 1.514v1.673c0 .835.68 1.514 1.514 1.514zM4.82 19.31c0-.027.022-.049.049-.049h1.673c.027 0 .05.022.05.049v1.673a.049.049 0 01-.05.049H4.87a.049.049 0 01-.049-.049V19.31zM11.34 22.497h1.674c.834 0 1.513-.68 1.513-1.514V19.31c0-.835-.679-1.514-1.513-1.514H11.34c-.835 0-1.514.68-1.514 1.514v1.673c0 .835.679 1.514 1.514 1.514zm-.048-3.187c0-.027.022-.049.049-.049h1.673c.027 0 .049.022.049.049v1.673a.049.049 0 01-.05.049h-1.672a.049.049 0 01-.05-.049V19.31zM17.812 22.497h1.673c.835 0 1.514-.68 1.514-1.514V19.31c0-.835-.68-1.514-1.514-1.514h-1.673c-.835 0-1.514.68-1.514 1.514v1.673c0 .835.68 1.514 1.514 1.514zm-.049-3.187c0-.027.022-.049.049-.049h1.673c.027 0 .049.022.049.049v1.673a.049.049 0 01-.049.049h-1.673a.049.049 0 01-.049-.049V19.31zM25.956 22.497c.835 0 1.514-.68 1.514-1.514V19.31c0-.835-.679-1.514-1.514-1.514h-1.673c-.835 0-1.514.68-1.514 1.514v1.673c0 .835.68 1.514 1.514 1.514h1.673zm-1.722-1.514V19.31c0-.027.022-.049.05-.049h1.672c.027 0 .05.022.05.049v1.673a.049.049 0 01-.05.049h-1.673a.049.049 0 01-.049-.049zM32.427 22.497c.834 0 1.513-.68 1.513-1.514V19.31c0-.835-.679-1.514-1.513-1.514h-1.674c-.834 0-1.513.68-1.513 1.514v1.673c0 .835.679 1.514 1.514 1.514h1.673zm-1.722-1.514V19.31c0-.027.022-.049.049-.049h1.673c.026 0 .048.022.048.049v1.673a.049.049 0 01-.048.049h-1.674a.049.049 0 01-.048-.049zM38.898 22.497c.835 0 1.514-.68 1.514-1.514V19.31c0-.835-.68-1.514-1.514-1.514h-1.673c-.835 0-1.514.68-1.514 1.514v1.673c0 .835.68 1.514 1.514 1.514h1.673zm-1.722-1.514V19.31c0-.027.022-.049.049-.049h1.673c.027 0 .049.022.049.049v1.673a.049.049 0 01-.05.049h-1.672a.049.049 0 01-.049-.049zM3.355 27.454c0 .835.68 1.514 1.514 1.514h1.673c.835 0 1.514-.679 1.514-1.514v-1.673c0-.834-.679-1.513-1.514-1.513H4.87c-.835 0-1.514.679-1.514 1.513v1.673zm1.465-1.673c0-.027.022-.049.049-.049h1.673c.027 0 .05.022.05.05v1.672a.049.049 0 01-.05.05H4.87a.049.049 0 01-.049-.05v-1.673zM9.827 27.454c0 .835.679 1.514 1.514 1.514h1.673c.834 0 1.513-.679 1.513-1.514v-1.673c0-.834-.679-1.513-1.513-1.513H11.34c-.835 0-1.514.679-1.514 1.513v1.673zm1.465-1.673c0-.027.022-.049.049-.049h1.673c.027 0 .049.022.049.05v1.672a.049.049 0 01-.05.05h-1.672a.049.049 0 01-.05-.05v-1.673zM16.298 27.454c0 .835.68 1.514 1.514 1.514h1.673c.835 0 1.514-.679 1.514-1.514v-1.673c0-.834-.68-1.513-1.514-1.513h-1.673c-.835 0-1.514.679-1.514 1.513v1.673zm1.465-1.673c0-.027.022-.049.049-.049h1.673c.027 0 .049.022.049.05v1.672a.049.049 0 01-.049.05h-1.673a.049.049 0 01-.049-.05v-1.673zM3.355 33.926c0 .834.68 1.514 1.514 1.514h1.673c.835 0 1.514-.68 1.514-1.514v-1.673c0-.835-.679-1.514-1.514-1.514H4.87c-.835 0-1.514.679-1.514 1.514v1.673zm1.465-1.673c0-.027.022-.05.049-.05h1.673c.027 0 .05.023.05.05v1.673a.049.049 0 01-.05.049H4.87a.049.049 0 01-.049-.05v-1.672zM9.827 33.926c0 .834.679 1.514 1.514 1.514h1.673c.834 0 1.513-.68 1.513-1.514v-1.673c0-.835-.679-1.514-1.513-1.514H11.34c-.835 0-1.514.679-1.514 1.514v1.673zm1.465-1.673c0-.027.022-.05.049-.05h1.673c.027 0 .049.023.049.05v1.673a.049.049 0 01-.05.049h-1.672a.049.049 0 01-.05-.05v-1.672zM16.298 33.926c0 .834.68 1.514 1.514 1.514h1.673c.835 0 1.514-.68 1.514-1.514v-1.673c0-.835-.68-1.514-1.514-1.514h-1.673c-.835 0-1.514.679-1.514 1.514v1.673zm1.465-1.673c0-.027.022-.05.049-.05h1.673c.027 0 .049.023.049.05v1.673a.049.049 0 01-.049.049h-1.673a.049.049 0 01-.049-.05v-1.672z" fill="#E1ADAE"/><path d="M43.65 28.614V7.204a3.972 3.972 0 00-3.968-3.968h-5.74v-.481A2.758 2.758 0 0031.186 0a2.758 2.758 0 00-2.755 2.755v.48H15.335v-.48A2.758 2.758 0 0012.58 0a2.758 2.758 0 00-2.754 2.755v.48h-5.74A3.973 3.973 0 00.12 7.205v11.478a.732.732 0 101.464 0v-2.657h40.603V27.2a12.807 12.807 0 00-8.168-2.932c-2.39 0-4.629.655-6.548 1.795v-.254c0-.85-.691-1.541-1.541-1.541H24.31c-.85 0-1.541.691-1.541 1.54v1.619c0 .777.578 1.42 1.326 1.524a12.807 12.807 0 00-2.944 8.183l.001.076H4.087a2.506 2.506 0 01-2.503-2.503V21.611a.732.732 0 10-1.465 0v16.332a3.972 3.972 0 003.968 3.968h1.772a.732.732 0 100-1.465H4.087a2.506 2.506 0 01-2.503-2.503v-.16a3.95 3.95 0 002.503.892h17.158c.072.604.187 1.195.34 1.771H8.788a.732.732 0 100 1.465h13.284c1.9 4.736 6.54 8.089 11.946 8.089 7.095 0 12.867-5.772 12.867-12.866 0-3.265-1.223-6.25-3.234-8.52zM29.898 2.754c0-.71.578-1.29 1.29-1.29.71 0 1.29.58 1.29 1.29V6.8c0 .712-.58 1.29-1.29 1.29-.712 0-1.29-.578-1.29-1.29V2.755zm-18.606 0c0-.71.578-1.29 1.29-1.29.71 0 1.29.58 1.29 1.29V6.8c0 .712-.58 1.29-1.29 1.29-.712 0-1.29-.578-1.29-1.29V2.755zM4.087 4.7h5.739v1.771H8.94a.732.732 0 100 1.465h1.132a2.758 2.758 0 002.509 1.618 2.758 2.758 0 002.508-1.618h1.132a.732.732 0 100-1.465h-.886v-1.77h13.097v1.77h-.885a.732.732 0 100 1.465h1.131a2.758 2.758 0 002.509 1.618 2.758 2.758 0 002.508-1.618h1.132a.732.732 0 100-1.465h-.886v-1.77h5.741a2.506 2.506 0 012.504 2.503v4.12H1.584v-4.12A2.506 2.506 0 014.087 4.7zm-2.503 9.86v-1.77h40.602v1.77H1.584zm22.65 11.249c0-.042.035-.077.077-.077h1.618c.042 0 .076.035.076.077v1.266c-.173.139-.343.281-.508.428H24.31a.077.077 0 01-.077-.076v-1.618zm9.784 22.726c-6.286 0-11.401-5.114-11.401-11.401s5.115-11.402 11.401-11.402c6.287 0 11.402 5.115 11.402 11.402 0 6.286-5.115 11.401-11.402 11.401z" fill="#E1ADAE"/><path d="M34.018 27.503c-5.31 0-9.63 4.32-9.63 9.63 0 5.311 4.32 9.631 9.63 9.631 5.31 0 9.63-4.32 9.63-9.63 0-5.31-4.32-9.63-9.63-9.63zm0 17.797c-4.502 0-8.165-3.664-8.165-8.166 0-4.503 3.663-8.166 8.165-8.166 4.503 0 8.166 3.663 8.166 8.166 0 4.502-3.663 8.166-8.166 8.166z" fill="#E1ADAE"/><path d="M38.063 36.401h-1.812a2.36 2.36 0 00-1.5-1.5v-3.43a.732.732 0 00-1.465 0v3.43a2.354 2.354 0 00-1.618 2.233 2.353 2.353 0 002.35 2.35c1.04 0 1.925-.68 2.233-1.618h1.812a.732.732 0 100-1.465zm-4.045 1.618a.886.886 0 010-1.77.886.886 0 010 1.77z" fill="#E1ADAE"/></svg><svg fill="none" viewBox="0 0 49 50" id="process-payment" xmlns="http://www.w3.org/2000/svg"><path fill-rule="evenodd" clip-rule="evenodd" d="M40.3 13.684l-2.146 2.594 1.391 2.222a2.832 2.832 0 01-.896 3.903l-3.21 2.011h-2.76l1.605-1.005a7.861 7.861 0 011.81-7.66l-2.857-4.56a7.86 7.86 0 01-7.836-1.86l-18.74 11.74a7.858 7.858 0 01-1.94 8.059l2.789 4.451a7.8 7.8 0 012.66-.45v1.464a6.347 6.347 0 00-1.86.265l1.444 2.304c.11.175.253.317.416.422v1.585a2.822 2.822 0 01-1.657-1.23L1.126 26.15a2.832 2.832 0 01.897-3.904l12.019-7.53 11.17-13.507A2.832 2.832 0 0129.199.83l10.723 8.867a2.832 2.832 0 01.377 3.987zm-22.314-1.439L26.34 2.142a1.367 1.367 0 011.925-.183l10.722 8.867c.582.481.664 1.343.182 1.925l-1.835 2.22-5.176-8.263a2.832 2.832 0 00-3.903-.896l-10.27 6.433zm11.047-5.192l-2.345 1.47a6.397 6.397 0 005.74 1.373l-1.51-2.41a1.367 1.367 0 00-1.885-.433zm6.55 15.543l2.288-1.434c.64-.401.834-1.245.433-1.885l-1.4-2.235a6.398 6.398 0 00-1.322 5.553zm-32.783.89l2.574-1.612c.568 2.1.02 4.366-1.454 5.975L2.368 25.37c-.401-.64-.207-1.484.432-1.885z" fill="#E1ADAE"/><path d="M10.17 27.665v1.729l-1.392.871a.732.732 0 11-.777-1.24l2.169-1.36zM14.26 24.414h-1.534a7.992 7.992 0 1115.415 0H26.61a6.527 6.527 0 10-12.35 0z" fill="#E1ADAE"/><path fill-rule="evenodd" clip-rule="evenodd" d="M22.684 24.414h-4.509a3.091 3.091 0 114.51 0zm-2.304-.49a1.626 1.626 0 10.1-3.25 1.626 1.626 0 00-.1 3.25z" fill="#E1ADAE"/><path d="M29.495 15.56a.733.733 0 00.778 1.24l2.587-1.62a.732.732 0 10-.777-1.242l-2.588 1.621zM39.397 41.648c-.62 0-1.124.503-1.124 1.122v2.79c0 .62.504 1.124 1.123 1.124h4.438c.62 0 1.124-.504 1.124-1.123v-2.79c0-.62-.504-1.123-1.123-1.123h-4.438zm4.096 3.57h-3.755v-2.106h3.755v2.107zM26.016 41.648c-.62 0-1.123.503-1.123 1.122v2.79c0 .62.503 1.124 1.123 1.124h9.387c.619 0 1.123-.504 1.123-1.123v-2.79c0-.62-.504-1.123-1.123-1.123h-9.387zm9.045 3.57h-8.704v-2.106h8.704v2.107zM17.122 45.219a.733.733 0 000 1.465h4.677a.732.732 0 100-1.465h-4.677z" fill="#E1ADAE"/><path fill-rule="evenodd" clip-rule="evenodd" d="M45.54 24.37a3.354 3.354 0 013.35 3.351v13.194a.732.732 0 01-1.465 0v-4.64H11.654V46.55c0 1.04.846 1.886 1.886 1.886h32c1.04 0 1.885-.846 1.885-1.886v-2.706a.732.732 0 111.465 0v2.706a3.355 3.355 0 01-3.35 3.351h-32a3.355 3.355 0 01-3.351-3.35V27.72a3.354 3.354 0 013.35-3.35h32zm0 1.465h-32c-1.04 0-1.886.846-1.886 1.886v2.565h35.771v-2.565c0-1.04-.846-1.886-1.886-1.886zm-33.886 5.916v3.058h35.771v-3.058H11.654z" fill="#E1ADAE"/></svg><svg fill="none" viewBox="0 0 47 50" id="process-sotrudnik" xmlns="http://www.w3.org/2000/svg"><path d="M45.77 31.748a.732.732 0 00.731-.732v-1.148c0-3.97-3.401-5.415-3.546-5.475l-.014-.005-6.788-2.63h-.001l-1.092-.422a.02.02 0 01-.014-.02v-1.767a6.291 6.291 0 002.347-4.061 2.904 2.904 0 002.675-2.89c0-.69-.246-1.35-.685-1.867V8.297C39.383 3.722 35.661 0 31.086 0c-4.575 0-8.297 3.722-8.297 8.297v2.498a2.73 2.73 0 00-.685 1.803c0 .034.002.066.003.1a8.257 8.257 0 00-5.206-1.843c-4.575 0-8.297 3.722-8.297 8.297v2.498a2.732 2.732 0 00-.685 1.803 2.903 2.903 0 002.677 2.89 6.362 6.362 0 002.479 4.161v1.64a.06.06 0 01-.039.056L5.19 35.242l-.014.006c-.145.06-3.547 1.504-3.547 5.475v7.135c0 1.18.96 2.142 2.142 2.142h11.422a.732.732 0 100-1.465H8.357v-6.6a.732.732 0 10-1.465 0v6.6H3.77a.678.678 0 01-.677-.677v-7.135c0-2.94 2.48-4.052 2.635-4.118l6.212-2.409c.579.615 2.078 2.484 4.962 2.484 1.691 0 3.276-.694 4.46-1.952l.537-.57 6.316 2.446c.438.192 1.03.604 1.495 1.113.596.657 1.142 1.634 1.142 3.006v7.135a.678.678 0 01-.677.677h-3.122v-6.6a.732.732 0 10-1.465 0v6.6H18.61a.732.732 0 100 1.465h11.565c1.18 0 2.142-.96 2.142-2.142v-7.135c0-.579-.074-1.103-.198-1.578h12.24a2.146 2.146 0 002.143-2.142v-2.57a.732.732 0 10-1.465 0v2.57a.678.678 0 01-.677.677h-3.122v-6.6a.732.732 0 10-1.465 0v6.6h-8.265c-.66-1.105-1.797-2.046-2.738-2.432l-.014-.006-7.881-3.051a.021.021 0 01-.013-.02v-1.766a6.302 6.302 0 002.347-4.062c1.574-.139 2.698-1.456 2.675-2.907l.241-.094c.675.718 2.14 2.483 4.961 2.483 1.692 0 3.276-.693 4.46-1.952l.537-.57 6.32 2.447c1.435.62 2.634 2.19 2.634 4.118v1.148c0 .404.328.732.732.732zm-14.604-12.32c-2.95 0-4.986-2.278-4.986-4.825v-4.288c2.783.146 5.754-.657 8.22-2.222.89.956 1.414 1.502 1.592 1.716 0 5.52 0 4.706-.003 4.877a4.828 4.828 0 01-4.822 4.742zm-3.945 1.917l-1.722.668a2.844 2.844 0 00-.3-.427v-2.434c0-1.347-.325-2.62-.897-3.745.156.039.316.066.48.081a6.363 6.363 0 002.477 4.162v1.64a.06.06 0 01-.038.055zm-3.949 3.505v-2.794c.691.15 1.147.737 1.147 1.397 0 .669-.46 1.248-1.147 1.397zm1.444-13.61v2.758a1.429 1.429 0 01-1.147-1.4c0-.646.514-1.177 1.146-1.358zm12.74 2.758V11.2c1.521.329 1.527 2.468 0 2.797zm-13.202-5.7a6.84 6.84 0 016.832-6.833 6.84 6.84 0 016.833 6.832v1.506c-.15-.04-.305-.07-.462-.087v-.002c0-.596-.1-.592-2.11-2.752a1.245 1.245 0 00-1.595-.195c-2.29 1.496-5.094 2.26-7.696 2.073h-.004c-.58-.042-1.12.33-1.286.895a3.787 3.787 0 00-.512.111V8.297zM10.069 19.151a6.84 6.84 0 016.833-6.833 6.84 6.84 0 016.832 6.833v1.506a3.06 3.06 0 00-.462-.087v-.002c0-.6-.106-.6-2.109-2.753a1.247 1.247 0 00-1.596-.194c-2.25 1.47-5.05 2.262-7.696 2.072a1.25 1.25 0 00-1.29.896c-.158.02-.389.073-.512.111v-1.549zm.462 2.943v2.758c-1.41-.304-1.635-2.291 0-2.758zm1.465 3.363V21.17c2.836.148 5.803-.69 8.219-2.223.89.957 1.411 1.5 1.592 1.716v4.795c0 2.626-2.14 4.825-4.825 4.825-2.985 0-4.986-2.314-4.986-4.825zm1.418 8.167l.152-.059c.592-.23.974-.788.974-1.422v-.834c.782.3 1.629.438 2.442.438.848 0 1.68-.175 2.415-.482v.905c0 .577.325 1.144 1.028 1.416-2.116 2.247-5.058 2.113-7.01.038zm17.672-9.265c-1.277 0-2.453-.49-3.487-1.59l.152-.059c.591-.23.973-.787.973-1.422v-.834c.783.3 1.63.438 2.442.438.854 0 1.688-.178 2.416-.482v.905c0 .577.325 1.144 1.027 1.416-.964 1.024-2.087 1.628-3.523 1.628z" fill="#E1ADAE"/><path fill-rule="evenodd" clip-rule="evenodd" d="M12.769 1.851c-.923-.1-1.8-.127-2.64-.038A.732.732 0 019.975.357c.976-.104 1.963-.07 2.952.038a.732.732 0 01-.157 1.456zm2.127-.427a.732.732 0 01.855-.585l.726.138c.665.127 1.333.255 2.015.37a.733.733 0 01-.242 1.444c-.7-.118-1.392-.25-2.061-.378l-.708-.134a.733.733 0 01-.585-.855zm-6.87.091a.732.732 0 01-.342.978c-.7.337-1.396.814-2.087 1.479a.732.732 0 01-1.016-1.055c.795-.765 1.617-1.335 2.468-1.744a.732.732 0 01.978.342zm12.394.85a.732.732 0 01.784-.679c.882.064 1.777.074 2.688.002a.732.732 0 01.117 1.46 19.12 19.12 0 01-2.911 0 .732.732 0 01-.678-.784zM3.717 4.99c.334.227.42.683.193 1.017-.241.354-.482.736-.721 1.148-.25.43-.47.855-.66 1.275a.732.732 0 01-1.334-.607c.212-.466.454-.934.727-1.404.256-.44.515-.852.777-1.236a.732.732 0 011.018-.193zm-2.64 5.269a.732.732 0 01.58.858 10.351 10.351 0 00-.16 2.792.732.732 0 11-1.46.116c-.082-1.024-.03-2.09.182-3.186a.733.733 0 01.859-.58zm.078 5.948c.38-.137.8.06.938.44a12.02 12.02 0 001.271 2.525.732.732 0 01-1.224.805 13.482 13.482 0 01-1.426-2.833c-.137-.38.06-.8.441-.937zm2.98 5.172a.732.732 0 011.036-.003 14.07 14.07 0 002.214 1.796.732.732 0 01-.8 1.227 15.536 15.536 0 01-2.446-1.984.732.732 0 01-.003-1.036zm4.845 3.5a.732.732 0 01.92-.478c.477.15.913.235 1.294.259l-.09 1.462a6.926 6.926 0 01-1.646-.325.732.732 0 01-.478-.919z" fill="#E1ADAE"/></svg><svg fill="none" viewBox="0 0 51 49" id="process-zayavka" xmlns="http://www.w3.org/2000/svg"><path d="M45.289 4.227H41.12a.732.732 0 100 1.464h4.168a3.757 3.757 0 013.748 3.758v27.973a3.757 3.757 0 01-3.748 3.758H5.715a3.757 3.757 0 01-3.748-3.758v-5.185a.732.732 0 10-1.465 0v5.185c0 2.88 2.339 5.223 5.213 5.223h14.87L19.11 47.46h-3.248a.732.732 0 100 1.465h19.28a.732.732 0 000-1.465h-3.248l-1.475-4.816h14.87c2.874 0 5.213-2.343 5.213-5.223V9.45c0-2.88-2.339-5.222-5.213-5.222zM20.642 47.46l1.475-4.816h6.77l1.475 4.816h-9.72zM1.234 29.563a.732.732 0 00.733-.733V9.45a3.757 3.757 0 013.748-3.758h2.127a.732.732 0 100-1.465H5.715C2.841 4.227.502 6.57.502 9.449V28.83c0 .405.328.733.732.733z" fill="#E1ADAE"/><path d="M47.58 9.328a2.32 2.32 0 00-2.316-2.32h-2.607a.732.732 0 100 1.466h2.607c.47 0 .85.383.85.854v14.361a.732.732 0 101.466 0V9.328zM47.58 34.518v-7.38a.732.732 0 10-1.465 0v7.38a.854.854 0 01-.851.854H5.74a.854.854 0 01-.85-.854V9.328c0-.471.38-.854.85-.854h1.38a.732.732 0 100-1.465H5.74a2.32 2.32 0 00-2.316 2.319v25.19a2.32 2.32 0 002.316 2.319h39.524a2.32 2.32 0 002.316-2.32zM6.757 38.28a.732.732 0 100 1.464H9.75a.732.732 0 100-1.465H6.757zM12.617 38.28a.732.732 0 100 1.464h2.992a.732.732 0 100-1.465h-2.992z" fill="#E1ADAE"/><path d="M11.158 28.095H8.02a.732.732 0 100 1.465h3.138a.732.732 0 000-1.465zM43.045 9.961H33.07a.732.732 0 100 1.465h9.975a.732.732 0 100-1.465zM7.287 32.245c0 .405.328.733.733.733h5.088a.732.732 0 100-1.465H8.02a.732.732 0 00-.733.732zM27.455 14.111c0 .405.328.733.733.733h14.854a.732.732 0 100-1.465H28.187a.732.732 0 00-.732.732z" fill="#E1ADAE"/><path fill-rule="evenodd" clip-rule="evenodd" d="M36.974 18.855L41.12 23a3.371 3.371 0 01.003 4.759l-.003.003a12.942 12.942 0 01-2.546 1.98.652.652 0 01-.665-1.12 11.589 11.589 0 001.816-1.333l-7.186-7.184a5.318 5.318 0 01-6.418-.867l-3.257-3.256a5.314 5.314 0 01-.867-6.417L14.81 2.381c-4.073 4.552-3.924 11.572.448 15.943l8.518 8.515a11.584 11.584 0 005.634 3.113c2.076.47 4.239.364 6.255-.307a.652.652 0 01.411 1.236 12.945 12.945 0 01-9.902-.718l-1.303-.758c-.397-.262-.78-.547-1.147-.853l-.968-.89-8.42-8.417c-5.034-5.034-5.034-13.225 0-18.259h.001A3.343 3.343 0 0116.715 0h.007c.897 0 1.742.35 2.378.986l4.144 4.143c1.322 1.322 1.356 3.442.09 4.76a4.017 4.017 0 00.45 5.17l3.257 3.257a4.02 4.02 0 005.174.45c1.317-1.266 3.438-1.232 4.76.09zM16.717 1.303c-.327 0-.641.076-.924.218l6.956 6.954c.136-.284.206-.6.2-.932a2.145 2.145 0 00-.627-1.493l-4.144-4.143a2.048 2.048 0 00-1.457-.604h-.005zm19.335 18.473a2.156 2.156 0 00-2.421-.423l6.952 6.95a2.067 2.067 0 00-.386-2.383l-4.145-4.144z" fill="#E1ADAE"/></svg><svg fill="none" viewBox="0 0 56 56" id="stuff-advantages" xmlns="http://www.w3.org/2000/svg"><path d="M42.84 42.766l-8.03-3.435a1.808 1.808 0 01-1.1-1.664v-3.22c2.921-1.68 4.96-4.725 5.236-8.257h.527c.85 0 1.666-.362 2.236-.992.571-.63.85-1.478.764-2.328a2.914 2.914 0 00-.87-1.781.813.813 0 00.008-.103v-2.63c0-4.286-2.072-8.097-5.267-10.487C36.343 3.549 32.824 0 28.5 0c-4.322 0-7.839 3.546-7.844 7.862-.385.288-.757.598-1.112.93a13.037 13.037 0 00-4.122 8.629.82.82 0 001.639.116 11.402 11.402 0 013.605-7.547A11.433 11.433 0 0128.5 6.901c6.324 0 11.468 5.139 11.468 11.455v1.87a3.216 3.216 0 00-.62-.06h-1.192a.935.935 0 01-.934-.933v-.58a4.628 4.628 0 00-2.476-4.092A18.75 18.75 0 0036 13.762a.82.82 0 00.19-1.143.822.822 0 00-1.144-.192c-.056.04-5.689 3.991-13.68 5.016a1.813 1.813 0 00-1.588 1.79c0 .514-.419.933-.934.933h-1.317c-.85 0-1.666.361-2.236.991a3.023 3.023 0 00-.764 2.328c.152 1.517 1.525 2.705 3.126 2.705h.401a10.38 10.38 0 003.038 6.58 10.534 10.534 0 002.198 1.683v3.214c0 .725-.432 1.378-1.1 1.663l-8.03 3.436A5.198 5.198 0 0011 47.55v7.63a.82.82 0 001.643 0v-7.63c0-1.428.849-2.714 2.163-3.276l4.972-2.127v5.198h-2.69a2.578 2.578 0 00-2.577 2.574v3.507A2.578 2.578 0 0017.088 56a.82.82 0 100-1.64.935.935 0 01-.934-.934V49.92c0-.514.42-.933.934-.933h7.023c.515 0 .934.419.934.933v3.507c0 .515-.419.933-.934.933a.82.82 0 100 1.64 2.578 2.578 0 002.577-2.573V49.92a2.578 2.578 0 00-2.577-2.574h-2.69v-4.66l5.65 3.761a2.576 2.576 0 002.859 0l5.65-3.762v6.514a3.457 3.457 0 00-2.634 3.351c0 1.903 1.55 3.451 3.455 3.451a3.457 3.457 0 003.454-3.45 3.457 3.457 0 00-2.633-3.352v-7.05l4.972 2.126a3.56 3.56 0 012.163 3.276v7.63a.82.82 0 001.643 0v-7.63a5.198 5.198 0 00-3.16-4.784zm-20.447-36A6.208 6.208 0 0128.5 1.64a6.208 6.208 0 016.108 5.13 13.041 13.041 0 00-6.108-1.51c-2.154 0-4.242.522-6.107 1.504zM19.666 25.37a.82.82 0 00-.822-.82h-1.192c-.767 0-1.422-.54-1.49-1.228-.04-.395.083-.773.347-1.064.26-.287.631-.452 1.018-.452h1.317a2.579 2.579 0 002.577-2.577c0-.08.065-.148.154-.159 4.703-.603 8.577-2.135 11.123-3.4a2.99 2.99 0 012.881 2.984v.578a2.578 2.578 0 002.577 2.574h1.191c.767 0 1.422.54 1.492 1.227a1.377 1.377 0 01-1.366 1.516h-1.317a.82.82 0 00-.821.82c0 4.866-3.964 8.825-8.835 8.825a8.782 8.782 0 01-6.247-2.585 8.762 8.762 0 01-2.587-6.24zm9.352 19.711a.933.933 0 01-1.036 0l-5.892-3.923.748-.32a3.447 3.447 0 002.094-3.171v-2.453c1.13.408 2.332.62 3.568.62 1.252 0 2.454-.22 3.568-.625v2.458c0 1.382.822 2.627 2.094 3.172l.748.32-5.892 3.922zm9.194 7.468a1.813 1.813 0 01-3.624 0 1.813 1.813 0 013.624 0z" fill="#E1ADAE"/><path d="M24 22c-.552 0-1 .438-1 .978v1.044c0 .54.448.978 1 .978s1-.438 1-.978v-1.044A.989.989 0 0024 22zM33 25c.552 0 1-.438 1-.978v-1.044A.989.989 0 0033 22c-.552 0-1 .438-1 .978v1.044c0 .54.448.978 1 .978zM31.81 27.356c-.293-.417-.817-.476-1.171-.133-.54.523-1.32.822-2.139.822-.82 0-1.6-.3-2.139-.822-.354-.343-.879-.284-1.17.133-.293.416-.243 1.032.112 1.376.844.818 1.98 1.268 3.197 1.268s2.353-.45 3.197-1.268c.355-.343.405-.96.113-1.376zM54.215 40.233l-3.51-1.14a.056.056 0 01-.04-.052v-2.228c1.61-1.085 2.668-2.895 2.668-4.941v-2.598c0-2.357-1.97-4.274-4.389-4.274h-3.556C42.968 25 41 26.917 41 29.274v2.598c0 2.046 1.057 3.856 2.667 4.94v2.229a.056.056 0 01-.039.053l-1.17.38a.806.806 0 00-.526 1.024.83.83 0 00.789.555.852.852 0 00.263-.042l.75-.244 2.4 1.754a1.75 1.75 0 001.032.333c.365 0 .729-.111 1.033-.333l1.692-1.236v3.764c-1.032.34-1.778 1.29-1.778 2.409 0 1.402 1.17 2.542 2.61 2.542 1.439 0 2.61-1.14 2.61-2.542 0-1.118-.746-2.07-1.778-2.409v-3.971l2.134.692a.923.923 0 01.647.875v6.545c0 .447.373.81.832.81.46 0 .832-.363.832-.81v-6.545c0-1.096-.718-2.065-1.785-2.412zm-11.552-8.361v-2.598c0-1.463 1.223-2.654 2.725-2.654h3.556c1.502 0 2.725 1.19 2.725 2.654v2.598c0 2.417-2.02 4.385-4.503 4.385s-4.503-1.968-4.503-4.385zm4.537 9.353a.059.059 0 01-.068 0l-1.978-1.445c.113-.225.177-.477.177-.74v-1.435c.58.177 1.196.272 1.835.272a6.3 6.3 0 001.836-.272v1.436c0 .263.063.514.176.739L47.2 41.225zm3.522 7.155a.935.935 0 01-.946-.922c0-.508.425-.922.946-.922.522 0 .947.414.947.922a.935.935 0 01-.947.922zM7.8 42.52a1.75 1.75 0 001.034.334 1.75 1.75 0 001.032-.333l2.4-1.754.75.244a.849.849 0 00.263.041.83.83 0 00.79-.554.806.806 0 00-.527-1.025l-1.17-.38a.056.056 0 01-.04-.052v-2.228C13.943 35.728 15 33.918 15 31.872v-3.464C15 26.528 13.43 25 11.5 25H6.167c-1.93 0-3.499 1.529-3.499 3.408v3.464c0 2.046 1.058 3.856 2.667 4.94v2.229a.056.056 0 01-.039.053l-3.51 1.14C.717 40.58 0 41.548 0 42.643v6.546c0 .447.372.81.832.81.46 0 .832-.363.832-.81v-6.545c0-.398.26-.749.647-.875l3.023-.981v4.127h-.946c-.949 0-1.72.752-1.72 1.676v1.732c0 .924.771 1.676 1.72 1.676.46 0 .832-.363.832-.81a.821.821 0 00-.832-.81.057.057 0 01-.057-.056v-1.732c0-.03.026-.056.057-.056h3.556c.032 0 .058.025.058.056v1.732c0 .03-.026.056-.058.056a.821.821 0 00-.831.81c0 .447.372.81.831.81.95 0 1.721-.752 1.721-1.676v-1.732c0-.924-.772-1.676-1.72-1.676h-.947v-2.981l.803.586zm-1.634-15.9h5.335c1.012 0 1.835.802 1.835 1.788v1.754c-2.668-.217-4.539-1.424-5.262-1.971a1.759 1.759 0 00-2.085-.017L4.33 29.385v-.977c0-.986.823-1.788 1.835-1.788zm-1.835 5.252v-.461l2.656-1.94c.012-.01.038-.022.066-.001a11.798 11.798 0 006.283 2.317v.084c0 2.418-2.02 4.386-4.503 4.386-2.482 0-4.502-1.967-4.502-4.385zm4.503 6.005c.638 0 1.255-.095 1.835-.272v1.436c0 .263.063.514.177.74l-1.978 1.444a.059.059 0 01-.069 0L6.821 39.78c.114-.225.177-.477.177-.74v-1.435c.58.177 1.197.272 1.836.272z" fill="#E1ADAE"/></svg><svg viewBox="0 0 24 24" id="tel" xmlns="http://www.w3.org/2000/svg"><path d="M14.418 5.49a.854.854 0 00-1.004.68.862.862 0 00.678 1.01 3.462 3.462 0 012.743 2.75.86.86 0 001.006.681.865.865 0 00.677-1.011 5.174 5.174 0 00-4.1-4.11z"/><path d="M14.356 2.008a.817.817 0 00-.625.176.852.852 0 00-.323.584.86.86 0 00.757.95 6.912 6.912 0 016.126 6.139.857.857 0 101.704-.192c-.454-4.058-3.595-7.206-7.639-7.657z"/><path fill-rule="evenodd" clip-rule="evenodd" d="M11.032 12.972c3.989 3.988 4.894-.625 7.434 1.913 2.448 2.448 3.856 2.938.753 6.04-.388.312-2.857 4.07-11.534-4.605C-.993 7.644 2.762 5.172 3.074 4.784c3.11-3.11 3.592-1.695 6.04.753 2.54 2.54-2.071 3.447 1.918 7.435z"/></svg><svg viewBox="0 0 24 24" id="telegram" xmlns="http://www.w3.org/2000/svg"><path d="M24 12a12 12 0 11-24 0 12 12 0 0124 0zM12.43 8.859a583.248 583.248 0 00-6.998 3.015c-.568.225-.866.447-.893.663-.045.364.413.508 1.035.705l.263.082c.612.2 1.437.433 1.864.441.39.01.824-.15 1.302-.48 3.268-2.206 4.956-3.32 5.061-3.345.075-.018.18-.038.249.024.07.062.063.18.055.212-.045.194-1.84 1.861-2.768 2.726-.29.27-.495.46-.537.504-.093.094-.187.187-.283.278-.57.55-.995.96.023 1.633.49.323.883.589 1.275.856.426.291.852.58 1.404.944.14.09.275.187.405.28.496.354.945.672 1.495.621.322-.03.653-.33.821-1.23.398-2.126 1.179-6.729 1.359-8.627a2.14 2.14 0 00-.02-.472.506.506 0 00-.17-.325.789.789 0 00-.465-.14c-.45.007-1.145.249-4.476 1.635z"/></svg><svg viewBox="0 0 28 29" id="telegram-footer" xmlns="http://www.w3.org/2000/svg"><path d="M28 14.02a14 14 0 11-28 0 14 14 0 0128 0zm-13.498-3.665c-1.361.567-4.084 1.74-8.165 3.518-.662.262-1.01.521-1.042.773-.052.425.482.593 1.208.823l.306.096c.714.233 1.677.504 2.176.514.455.011.96-.175 1.519-.56 3.813-2.574 5.781-3.874 5.904-3.902.087-.021.21-.046.29.028.083.072.074.21.065.247-.052.226-2.147 2.171-3.23 3.18-.338.315-.578.537-.627.588-.108.11-.217.218-.329.325-.665.64-1.162 1.12.027 1.904.572.378 1.03.688 1.487 1 .497.339.994.677 1.638 1.1.163.105.32.219.473.327.579.413 1.102.784 1.744.725.375-.035.761-.385.957-1.435.464-2.48 1.376-7.85 1.586-10.064a2.492 2.492 0 00-.023-.552.59.59 0 00-.2-.38.92.92 0 00-.542-.162c-.525.009-1.335.29-5.222 1.907z"/></svg><svg fill="none" viewBox="0 0 29 28" id="time" xmlns="http://www.w3.org/2000/svg"><g clip-path="url(#bgclip0_72_794)"><path fill-rule="evenodd" clip-rule="evenodd" d="M14.5 2.333c6.433 0 11.667 5.234 11.667 11.667S20.933 25.667 14.5 25.667 2.833 20.433 2.833 14 8.067 2.333 14.5 2.333zm0 1.75c-5.468 0-9.917 4.449-9.917 9.917s4.449 9.917 9.917 9.917 9.917-4.449 9.917-9.917-4.449-9.917-9.917-9.917zm-.395 4.195c.484 0 .875.392.875.875v5.159l3.972 2.368a.877.877 0 01-.897 1.505l-4.398-2.624a.88.88 0 01-.427-.752V9.153c0-.483.392-.875.875-.875z" fill="#C78C8E"/></g><defs><clipPath id="bgclip0_72_794"><path fill="#fff" transform="translate(.5)" d="M0 0h28v28H0z"/></clipPath></defs></svg><svg fill="none" viewBox="0 0 29 28" id="users" xmlns="http://www.w3.org/2000/svg"><path fill-rule="evenodd" clip-rule="evenodd" d="M14.368 16.816h.131l.295.001c2.253.015 7.4.243 7.4 3.732 0 3.465-4.968 3.691-7.365 3.706h-.888c-2.252-.015-7.4-.242-7.4-3.726 0-3.47 5.148-3.697 7.4-3.712h.427zm0 1.75c-2.772 0-6.077.341-6.077 1.963 0 1.585 3.107 1.955 5.823 1.976l.254.001c2.772 0 6.076-.34 6.076-1.957 0-1.639-3.304-1.983-6.076-1.983zm9.279-2.223c2.827.423 3.42 1.751 3.42 2.79 0 .635-.249 1.794-1.917 2.43a.876.876 0 01-.623-1.636c.79-.301.79-.634.79-.793 0-.511-.65-.868-1.93-1.06a.877.877 0 01-.736-.996.88.88 0 01.996-.735zm-17.563.735a.877.877 0 01-.736.996c-1.281.192-1.931.549-1.931 1.06 0 .16 0 .49.792.793a.875.875 0 11-.623 1.636c-1.67-.637-1.92-1.796-1.92-2.43 0-1.038.595-2.367 3.423-2.79a.88.88 0 01.995.735zm8.284-12.411c2.94 0 5.33 2.391 5.33 5.33s-2.39 5.33-5.33 5.33h-.032a5.274 5.274 0 01-3.755-1.57 5.272 5.272 0 01-1.543-3.763 5.335 5.335 0 015.33-5.327zm0 1.75a3.584 3.584 0 00-3.58 3.58 3.538 3.538 0 001.034 2.527 3.542 3.542 0 002.517 1.054l.029.875v-.875a3.584 3.584 0 003.58-3.58 3.585 3.585 0 00-3.58-3.581zm7.22-.608a4.213 4.213 0 013.541 4.172 4.25 4.25 0 01-3.64 4.182.876.876 0 01-.242-1.734 2.488 2.488 0 002.132-2.45 2.468 2.468 0 00-2.075-2.443.875.875 0 01.284-1.727zM8.153 6.53a.875.875 0 01-.721 1.006 2.469 2.469 0 00-2.076 2.445 2.487 2.487 0 002.13 2.448.874.874 0 11-.24 1.734 4.248 4.248 0 01-3.64-4.18A4.214 4.214 0 017.147 5.81a.87.87 0 011.006.721z" fill="#C78C8E"/></svg><svg viewBox="0 0 24 24" id="whatsapp" xmlns="http://www.w3.org/2000/svg"><g clip-path="url(#biclip0_55_918)"><path d="M20.401 3.49A11.782 11.782 0 0011.991 0C5.441 0 .102 5.337.096 11.89c0 2.098.549 4.14 1.585 5.947L0 24l6.306-1.653a11.9 11.9 0 005.685 1.448h.006c6.552 0 11.889-5.337 11.895-11.895A11.847 11.847 0 0020.4 3.49h.002zm-8.41 18.292a9.86 9.86 0 01-5.034-1.38l-.36-.216-3.741.98.999-3.649-.234-.376a9.84 9.84 0 01-1.51-5.258c0-5.439 4.435-9.876 9.886-9.876a9.84 9.84 0 016.99 2.897 9.837 9.837 0 012.892 6.99c-.006 5.458-4.442 9.888-9.888 9.888zm5.422-7.401c-.295-.149-1.755-.867-2.029-.97-.273-.097-.473-.148-.668.15-.199.295-.769.968-.94 1.162-.171.2-.348.222-.645.075-.296-.15-1.254-.462-2.388-1.478-.885-.787-1.478-1.762-1.655-2.058-.17-.297-.016-.456.133-.604.13-.132.295-.348.444-.52.15-.17.199-.296.296-.494.098-.201.051-.372-.022-.52-.075-.15-.668-1.615-.918-2.206-.24-.583-.485-.502-.668-.51-.17-.01-.37-.01-.57-.01a1.094 1.094 0 00-.793.37c-.273.297-1.037 1.016-1.037 2.481 0 1.466 1.066 2.874 1.215 3.074.147.2 2.091 3.198 5.075 4.488.705.307 1.26.489 1.694.627.712.228 1.356.193 1.869.12.57-.087 1.756-.72 2.007-1.415.245-.696.245-1.29.17-1.414-.073-.126-.273-.2-.57-.348z"/></g><defs><clipPath id="biclip0_55_918"><path fill="#fff" d="M0 0h24v24H0z"/></clipPath></defs></svg><svg viewBox="0 0 28 29" id="whatsapp-footer" xmlns="http://www.w3.org/2000/svg"><path d="M23.802 4.09A13.745 13.745 0 0013.989.02C6.347.02.12 6.246.112 13.89c0 2.449.64 4.83 1.85 6.94L0 28.02l7.357-1.929a13.883 13.883 0 006.632 1.69h.007c7.644 0 13.871-6.227 13.878-13.878A13.822 13.822 0 0023.8 4.09h.002zm-9.813 21.342c-2.066 0-4.095-.556-5.873-1.61l-.42-.252-4.364 1.144 1.165-4.258-.272-.439a11.48 11.48 0 01-1.763-6.134c0-6.345 5.175-11.522 11.534-11.522a11.48 11.48 0 018.155 3.38 11.475 11.475 0 013.375 8.155c-.008 6.368-5.182 11.536-11.537 11.536zm6.327-8.635c-.345-.173-2.048-1.011-2.368-1.13-.319-.114-.551-.174-.779.173-.233.345-.898 1.13-1.097 1.356-.2.233-.406.26-.752.088-.345-.175-1.463-.54-2.787-1.724-1.032-.919-1.723-2.056-1.93-2.401-.2-.347-.019-.532.154-.705.152-.154.345-.406.518-.606.175-.2.233-.346.347-.577.114-.235.06-.434-.027-.608-.087-.173-.778-1.883-1.07-2.572-.28-.68-.566-.586-.78-.595-.199-.012-.431-.012-.664-.012a1.276 1.276 0 00-.926.432c-.318.346-1.21 1.185-1.21 2.894 0 1.71 1.243 3.353 1.418 3.586.172.233 2.44 3.731 5.92 5.236.823.359 1.47.57 1.976.732.831.266 1.582.225 2.18.14.666-.102 2.05-.84 2.342-1.65.287-.813.287-1.506.2-1.65-.086-.148-.319-.234-.665-.407z"/></svg></svg>