<svg width="1792" height="879" viewBox="0 0 1792 879" fill="none" xmlns="http://www.w3.org/2000/svg">
<circle cx="896" cy="439.51" r="438.5" stroke="#C8D1E8"/>
<g filter="url(#filter0_b_72_441)">
<circle cx="896" cy="439.51" r="365.582" fill="#EBF0FB"/>
</g>
<g filter="url(#filter1_b_72_441)">
<path d="M350.055 429.021C375.892 438.594 395.895 452.537 410.064 470.85C424.233 489.163 431.318 511.222 431.318 537.028C431.318 575.319 415.482 605.078 383.81 626.305C352.139 647.115 306.298 657.521 246.289 657.521H0V220.499H233.787C292.129 220.499 336.094 230.904 365.682 251.715C395.687 272.525 410.689 300.203 410.689 334.749C410.689 355.143 405.48 373.456 395.062 389.689C385.06 405.921 370.058 419.032 350.055 429.021ZM145.023 323.511V388.44H213.784C245.872 388.44 261.916 377.619 261.916 355.976C261.916 334.333 245.872 323.511 213.784 323.511H145.023ZM233.787 554.508C266.292 554.508 282.544 543.063 282.544 520.171C282.544 497.279 266.292 485.834 233.787 485.834H145.023V554.508H233.787Z" fill="white" fill-opacity="0.4"/>
<path d="M884.787 546.392V657.521H520.98V220.499H876.661V331.627H666.003V382.821H851.032V488.955H666.003V546.392H884.787Z" fill="white" fill-opacity="0.4"/>
<path d="M1142.23 667.51C1105.98 667.51 1070.56 663.556 1035.97 655.648C1001.8 647.324 973.667 636.294 951.58 622.559L999.087 515.176C1019.92 527.247 1043.26 537.028 1069.1 544.519C1094.94 551.595 1119.73 555.133 1143.49 555.133C1163.9 555.133 1178.49 553.26 1187.24 549.514C1195.99 545.352 1200.37 539.317 1200.37 531.409C1200.37 522.252 1194.53 515.385 1182.87 510.806C1171.61 506.228 1152.86 501.233 1126.61 495.823C1092.85 488.747 1064.72 481.255 1042.22 473.347C1019.72 465.023 1000.13 451.704 983.46 433.391C966.791 414.661 958.456 389.481 958.456 357.849C958.456 330.379 966.166 305.406 981.585 282.931C997.004 260.455 1019.92 242.766 1050.35 229.864C1081.18 216.961 1118.48 210.51 1162.24 210.51C1192.24 210.51 1221.62 213.839 1250.38 220.499C1279.55 226.742 1305.18 236.107 1327.26 248.593L1282.88 355.351C1239.96 333.708 1199.33 322.887 1160.99 322.887C1123.07 322.887 1104.1 332.043 1104.1 350.357C1104.1 359.097 1109.73 365.757 1120.98 370.335C1132.23 374.497 1150.78 379.075 1176.62 384.07C1209.95 390.313 1238.08 397.597 1261 405.921C1283.92 413.829 1303.72 426.94 1320.39 445.253C1337.47 463.566 1346.02 488.539 1346.02 520.171C1346.02 547.641 1338.31 572.614 1322.89 595.089C1307.47 617.148 1284.34 634.837 1253.5 648.156C1223.08 661.059 1185.99 667.51 1142.23 667.51Z" fill="white" fill-opacity="0.4"/>
<path d="M1516.33 334.749H1388.19V220.499H1792V334.749H1663.85V657.521H1516.33V334.749Z" fill="white" fill-opacity="0.4"/>
</g>
<defs>
<filter id="filter0_b_72_441" x="510.418" y="53.9282" width="771.164" height="771.164" filterUnits="userSpaceOnUse" color-interpolation-filters="sRGB">
<feFlood flood-opacity="0" result="BackgroundImageFix"/>
<feGaussianBlur in="BackgroundImage" stdDeviation="10"/>
<feComposite in2="SourceAlpha" operator="in" result="effect1_backgroundBlur_72_441"/>
<feBlend mode="normal" in="SourceGraphic" in2="effect1_backgroundBlur_72_441" result="shape"/>
</filter>
<filter id="filter1_b_72_441" x="-20" y="190.51" width="1832" height="497" filterUnits="userSpaceOnUse" color-interpolation-filters="sRGB">
<feFlood flood-opacity="0" result="BackgroundImageFix"/>
<feGaussianBlur in="BackgroundImage" stdDeviation="10"/>
<feComposite in2="SourceAlpha" operator="in" result="effect1_backgroundBlur_72_441"/>
<feBlend mode="normal" in="SourceGraphic" in2="effect1_backgroundBlur_72_441" result="shape"/>
</filter>
</defs>
</svg>
