<svg width="30" height="31" viewBox="0 0 30 31" fill="none" xmlns="http://www.w3.org/2000/svg">
<path fill-rule="evenodd" clip-rule="evenodd" d="M-9.39904e-07 22.0128C-1.16211e-06 27.0963 3.567 30.5103 8.874 30.5103L21.126 30.5103C26.433 30.5103 30 27.0963 30 22.0128L30 9.00925C30 3.92576 26.433 0.510255 21.126 0.510255L8.874 0.510254C3.567 0.510254 -1.49296e-07 3.92575 -3.71503e-07 9.00925L-9.39904e-07 22.0128ZM2.25 22.0128L2.25 9.00925C2.25 5.21425 4.8495 2.76025 8.874 2.76025L21.126 2.76025C25.1505 2.76026 27.75 5.21426 27.75 9.00925L27.75 22.0128C27.75 25.8078 25.1505 28.2603 21.126 28.2603L8.874 28.2603C4.8495 28.2603 2.25 25.8078 2.25 22.0128ZM7.74585 15.5103C7.74585 16.1313 8.24985 16.6353 8.87085 16.6353L18.405 16.6353L14.6893 20.3358C14.2468 20.7753 14.2498 21.4863 14.6863 21.9258C15.1243 22.3653 15.8368 22.3683 16.2779 21.9288L21.9239 16.3068C21.9599 16.27 21.9931 16.232 22.0237 16.1919L21.9239 16.3068C21.9837 16.2477 22.0362 16.1825 22.0806 16.1126C22.0898 16.0956 22.0998 16.0789 22.1093 16.062C22.129 16.03 22.1459 15.996 22.1612 15.9612C22.164 15.9514 22.1678 15.9424 22.1715 15.9333C22.1871 15.8985 22.1997 15.8621 22.2105 15.8251C22.2158 15.8022 22.2217 15.7793 22.2268 15.7563C22.2345 15.7281 22.2397 15.6998 22.2438 15.6712C22.2457 15.6483 22.2484 15.6243 22.2503 15.6001C22.2542 15.5698 22.2553 15.5401 22.2553 15.5103L22.248 15.4218L22.2436 15.3577C22.2432 15.3546 22.2427 15.3516 22.2423 15.3485L22.2553 15.5103C22.2553 15.427 22.2461 15.3445 22.2282 15.2644C22.2217 15.2412 22.2158 15.2183 22.2093 15.1958C22.1997 15.1584 22.1871 15.122 22.1726 15.0864C22.1678 15.0781 22.164 15.0691 22.1601 15.0602C22.1459 15.0245 22.129 14.9905 22.1102 14.9574C22.0998 14.9416 22.0898 14.9249 22.0795 14.9086C22.0631 14.8805 22.0445 14.8537 22.0246 14.8278C21.9899 14.7843 21.9528 14.7425 21.9128 14.7036L16.2779 9.09175C15.8368 8.65225 15.1244 8.65526 14.6863 9.09475C14.2498 9.53575 14.2468 10.2468 14.6893 10.6848L18.405 14.3853L8.87085 14.3853C8.24985 14.3853 7.74585 14.8893 7.74585 15.5103Z" fill="#E1ADAE"/>
</svg>
