<svg width="1792" height="457" viewBox="0 0 1792 457" fill="none" xmlns="http://www.w3.org/2000/svg">
<g filter="url(#filter0_b_173_4897)">
<path d="M350.055 218.511C375.892 228.084 395.895 242.027 410.064 260.34C424.233 278.653 431.318 300.713 431.318 326.518C431.318 364.809 415.482 394.568 383.81 415.795C352.139 436.606 306.298 447.011 246.289 447.011H0V9.98905H233.787C292.129 9.98905 336.094 20.3943 365.682 41.2049C395.687 62.0155 410.689 89.6935 410.689 124.239C410.689 144.633 405.48 162.947 395.062 179.179C385.06 195.411 370.058 208.522 350.055 218.511ZM145.023 113.001V177.93H213.784C245.872 177.93 261.916 167.109 261.916 145.466C261.916 123.823 245.872 113.001 213.784 113.001H145.023ZM233.787 343.999C266.292 343.999 282.544 332.553 282.544 309.661C282.544 286.77 266.292 275.324 233.787 275.324H145.023V343.999H233.787Z" fill="white" fill-opacity="0.4"/>
<path d="M884.787 335.883V447.011H520.98V9.98905H876.661V121.117H666.003V172.311H851.032V278.445H666.003V335.883H884.787Z" fill="white" fill-opacity="0.4"/>
<path d="M1142.23 457C1105.98 457 1070.56 453.046 1035.97 445.138C1001.8 436.814 973.667 425.784 951.58 412.049L999.087 304.667C1019.92 316.737 1043.26 326.518 1069.1 334.01C1094.94 341.085 1119.73 344.623 1143.49 344.623C1163.9 344.623 1178.49 342.75 1187.24 339.004C1195.99 334.842 1200.37 328.807 1200.37 320.899C1200.37 311.742 1194.53 304.875 1182.87 300.296C1171.61 295.718 1152.86 290.724 1126.61 285.313C1092.85 278.237 1064.72 270.745 1042.22 262.837C1019.72 254.513 1000.13 241.194 983.46 222.881C966.791 204.152 958.456 178.971 958.456 147.339C958.456 119.869 966.166 94.8962 981.585 72.4208C997.004 49.9453 1019.92 32.2564 1050.35 19.3538C1081.18 6.45127 1118.48 0 1162.24 0C1192.24 0 1221.62 3.32968 1250.38 9.98905C1279.55 16.2322 1305.18 25.597 1327.26 38.0833L1282.88 144.842C1239.96 123.199 1199.33 112.377 1160.99 112.377C1123.07 112.377 1104.1 121.534 1104.1 139.847C1104.1 148.587 1109.73 155.247 1120.98 159.825C1132.23 163.987 1150.78 168.566 1176.62 173.56C1209.95 179.803 1238.08 187.087 1261 195.411C1283.92 203.319 1303.72 216.43 1320.39 234.743C1337.47 253.056 1346.02 278.029 1346.02 309.661C1346.02 337.131 1338.31 362.104 1322.89 384.579C1307.47 406.638 1284.34 424.327 1253.5 437.646C1223.08 450.549 1185.99 457 1142.23 457Z" fill="white" fill-opacity="0.4"/>
<path d="M1516.33 124.239H1388.19V9.98905H1792V124.239H1663.85V447.011H1516.33V124.239Z" fill="white" fill-opacity="0.4"/>
</g>
<defs>
<filter id="filter0_b_173_4897" x="-20" y="-20" width="1832" height="497" filterUnits="userSpaceOnUse" color-interpolation-filters="sRGB">
<feFlood flood-opacity="0" result="BackgroundImageFix"/>
<feGaussianBlur in="BackgroundImage" stdDeviation="10"/>
<feComposite in2="SourceAlpha" operator="in" result="effect1_backgroundBlur_173_4897"/>
<feBlend mode="normal" in="SourceGraphic" in2="effect1_backgroundBlur_173_4897" result="shape"/>
</filter>
</defs>
</svg>
