<svg width="48" height="48" viewBox="0 0 48 48" fill="none" xmlns="http://www.w3.org/2000/svg">
<g clip-path="url(#clip0_72_1151)">
<path d="M16.803 0C16.4122 0 16.0954 0.316792 16.0954 0.707546V1.70886C16.0954 3.51292 15.3463 5.2614 14.04 6.50593C13.8566 6.68084 13.6533 6.85187 13.4358 7.01451C13.1229 7.24848 13.0587 7.69187 13.2928 8.00489C13.4317 8.19074 13.6446 8.28885 13.86 8.28885C14.0074 8.28885 14.1561 8.243 14.2832 8.14791C14.5455 7.95178 14.7922 7.74404 15.0163 7.53055C16.6015 6.02027 17.5105 3.89839 17.5105 1.70905V0.707546C17.5105 0.316792 17.1937 0 16.803 0V0Z" fill="#E1ADAE"/>
<path d="M11.7969 8.69032C11.6428 8.33126 11.2268 8.16513 10.8676 8.31928L8.18698 9.47003C5.22765 10.7404 2.97671 13.1013 1.84879 16.1178C0.74002 19.0829 0.865963 22.2821 2.20002 25.1449V35.8706C2.20002 36.2613 2.51681 36.5781 2.90756 36.5781C3.29832 36.5781 3.61511 36.2613 3.61511 35.8706V24.9857C3.61511 24.8792 3.59105 24.7741 3.54473 24.6781C2.31436 22.1289 2.18285 19.2647 3.17426 16.6134C4.16567 13.9621 6.14406 11.887 8.74519 10.7703L11.4258 9.61956C11.7849 9.46541 11.951 9.04937 11.7969 8.69032V8.69032Z" fill="#E1ADAE"/>
<path d="M12.5956 33.5391C11.9798 32.3661 11.6543 31.046 11.6543 29.721V19.8231C11.6543 19.4324 11.3375 19.1156 10.9467 19.1156C10.556 19.1156 10.2392 19.4324 10.2392 19.8231V29.721V31.4037C10.2392 32.0831 10.0632 32.7553 9.73004 33.3476L9.37853 33.9726C9.18702 34.3132 9.30787 34.7446 9.64843 34.9361C9.75815 34.9977 9.87711 35.0271 9.99457 35.0271C10.2419 35.0271 10.482 34.8972 10.6119 34.6662L10.9634 34.0412C11.0188 33.9428 11.0708 33.8427 11.1198 33.7413C11.1902 33.8949 11.2641 34.0471 11.3427 34.1968L11.7722 35.015C11.788 35.0449 11.7951 35.0786 11.793 35.1124L11.4533 40.4766C11.4286 40.8666 11.7248 41.2027 12.1148 41.2273C12.1299 41.2283 12.145 41.2289 12.1601 41.2289C12.5304 41.2289 12.8418 40.9407 12.8656 40.5659L13.2052 35.2017C13.2237 34.9089 13.1614 34.6168 13.0251 34.3572L12.5956 33.5391Z" fill="#E1ADAE"/>
<path d="M12.0135 42.8301C11.625 42.8058 11.2873 43.1015 11.2627 43.4915L11.0249 47.2474C11.0002 47.6374 11.2963 47.9735 11.6863 47.9981C11.7015 47.9991 11.7166 47.9996 11.7317 47.9996C12.102 47.9996 12.4134 47.7115 12.4371 47.3367L12.675 43.5809C12.6996 43.191 12.4035 42.8549 12.0135 42.8301V42.8301Z" fill="#E1ADAE"/>
<path d="M45.382 16.7833C45.4707 16.7833 45.5609 16.7665 45.6482 16.731C46.0101 16.5839 46.1845 16.1712 46.0373 15.8092C44.8723 12.9422 42.6643 10.6909 39.8199 9.46989L35.9237 7.79734C35.1975 7.48555 34.5392 7.05102 33.967 6.50584C32.6608 5.2614 31.9117 3.51292 31.9117 1.70886V0.707546C31.9117 0.316792 31.5949 0 31.2041 0C30.8134 0 30.4966 0.316792 30.4966 0.707546V1.70886C30.4966 3.89829 31.4057 6.02008 32.9908 7.53036C33.6853 8.19196 34.4842 8.71932 35.3655 9.09762L39.2617 10.7702C41.7617 11.8434 43.7024 13.8222 44.7264 16.3419C44.838 16.6168 45.1027 16.7833 45.382 16.7833V16.7833Z" fill="#E1ADAE"/>
<path d="M46.8385 19.018C46.7982 18.6294 46.4503 18.3467 46.0617 18.3873C45.673 18.4276 45.3907 18.7754 45.4309 19.1641C45.6268 21.0522 45.2917 22.9589 44.462 24.6781C44.4157 24.7741 44.3916 24.8792 44.3916 24.9857V35.8706C44.3916 36.2613 44.7084 36.5781 45.0992 36.5781C45.4899 36.5781 45.8067 36.2613 45.8067 35.8706V25.1448C46.6992 23.2279 47.0559 21.1133 46.8385 19.018V19.018Z" fill="#E1ADAE"/>
<path d="M38.2767 33.3476C37.9436 32.7554 37.7676 32.0832 37.7676 31.4038V29.7211V19.8231C37.7676 19.4324 37.4508 19.1156 37.06 19.1156C36.6693 19.1156 36.3525 19.4324 36.3525 19.8231V29.721C36.3525 31.0458 36.027 32.3661 35.4111 33.539L34.9817 34.3571C34.8453 34.6168 34.783 34.9089 34.8015 35.2018L35.5698 47.3372C35.5935 47.712 35.9049 48.0001 36.2753 48.0001C36.2903 48.0001 36.3055 47.9996 36.3207 47.9986C36.7107 47.9738 37.0068 47.6377 36.9821 47.2477L36.2138 35.1124C36.2117 35.0786 36.2189 35.0449 36.2346 35.0148L36.6642 34.1967C36.7427 34.047 36.8166 33.8948 36.8871 33.7412C36.936 33.8427 36.988 33.9427 37.0434 34.0411L37.3949 34.6662C37.5247 34.8972 37.7649 35.0271 38.0123 35.0271C38.1297 35.0271 38.2488 34.9977 38.3584 34.9361C38.699 34.7446 38.8198 34.3132 38.6283 33.9726L38.2767 33.3476Z" fill="#E1ADAE"/>
<path d="M28.1643 12.1062L27.7653 10.4596C27.6471 9.97174 27.214 9.63098 26.7121 9.63098H21.2001C20.6981 9.63098 20.265 9.97174 20.1469 10.4594L19.7478 12.1062C18.6983 12.2369 17.8833 13.1346 17.8833 14.219V14.32C17.8833 15.4902 18.8323 16.4427 20.0009 16.4489L19.7478 17.4934C18.6983 17.6242 17.8833 18.5219 17.8833 19.6062V19.7072C17.8833 20.8774 18.8323 21.8298 20.0009 21.8361L19.7478 22.8806C18.6983 23.0113 17.8833 23.9091 17.8833 24.9934V25.0945C17.8833 26.2647 18.8323 27.2172 20.0009 27.2234L19.7478 28.2679C18.6983 28.3987 17.8833 29.2963 17.8833 30.3807V30.4818C17.8833 31.652 18.8323 32.6044 20.0009 32.6107L19.7478 33.6552C18.6983 33.7859 17.8833 34.6837 17.8833 35.768V35.8689C17.8833 37.0391 18.8323 37.9916 20.0009 37.9979L19.7478 39.0424C18.6983 39.1732 17.8833 40.0708 17.8833 41.1553V41.2563C17.8833 42.4303 18.8385 43.3854 20.0125 43.3854H20.5676L22.3755 44.7102C22.645 44.9077 22.9413 45.0469 23.2486 45.1318V47.2926C23.2486 47.6834 23.5654 48.0001 23.9561 48.0001C24.3469 48.0001 24.6637 47.6834 24.6637 47.2926V45.1318C24.9709 45.0468 25.2673 44.9077 25.5368 44.7102L27.3446 43.3854H27.8997C29.0738 43.3854 30.0289 42.4303 30.0289 41.2563V41.1553C30.0289 40.0708 29.2139 39.1732 28.1644 39.0424L27.9113 37.9979C29.08 37.9916 30.0289 37.0391 30.0289 35.8689V35.768C30.0289 34.6836 29.2139 33.7859 28.1644 33.6552L27.9113 32.6107C29.08 32.6044 30.0289 31.652 30.0289 30.4818V30.3807C30.0289 29.2963 29.2139 28.3987 28.1644 28.2679L27.9113 27.2234C29.08 27.2172 30.0289 26.2647 30.0289 25.0945V24.9935C30.0289 23.9091 29.2139 23.0114 28.1644 22.8807L27.9113 21.8362C29.08 21.8299 30.0289 20.8775 30.0289 19.7073V19.6063C30.0289 18.5219 29.2139 17.6243 28.1644 17.4935L27.9113 16.449C29.08 16.4428 30.0289 15.4903 30.0289 14.3201V14.2191C30.0288 13.1346 29.2139 12.2369 28.1643 12.1062V12.1062ZM28.6138 41.1553V41.2564C28.6138 41.6502 28.2934 41.9704 27.8996 41.9704H27.2361C27.0041 41.9704 26.7826 42.0429 26.5955 42.18L24.7003 43.5688C24.6883 43.5776 24.6757 43.5852 24.6636 43.5936V42.029C24.6636 41.6383 24.3468 41.3215 23.956 41.3215C23.5653 41.3215 23.2485 41.6383 23.2485 42.029V43.5935C23.2363 43.5852 23.2238 43.5775 23.2118 43.5687L21.3165 42.18C21.1294 42.0428 20.9079 41.9703 20.6759 41.9703H20.0124C19.6187 41.9703 19.2983 41.65 19.2983 41.2563V41.1553C19.2983 40.7615 19.6187 40.4412 20.0124 40.4412C20.5144 40.4412 20.9474 40.1005 21.0657 39.6128L21.3228 38.5517L22.3754 39.3229C22.8482 39.6694 23.402 39.8426 23.956 39.8425C24.51 39.8425 25.064 39.6693 25.5367 39.3229L26.5892 38.5516L26.8464 39.6126C26.9645 40.1004 27.3976 40.4411 27.8996 40.4411C28.2934 40.4412 28.6138 40.7616 28.6138 41.1553V41.1553ZM28.6138 35.7681V35.869C28.6138 36.2628 28.2934 36.5832 27.8996 36.5832H27.2361C27.0041 36.5832 26.7826 36.6556 26.5955 36.7927L24.7003 38.1816C24.6883 38.1904 24.6757 38.198 24.6636 38.2063V36.6418C24.6636 36.251 24.3468 35.9342 23.956 35.9342C23.5653 35.9342 23.2485 36.251 23.2485 36.6418V38.2062C23.2363 38.1979 23.2238 38.1903 23.2118 38.1815L21.3165 36.7927C21.1294 36.6555 20.9079 36.5831 20.6759 36.5831H20.0124C19.6187 36.5831 19.2983 36.2627 19.2983 35.8689V35.768C19.2983 35.3742 19.6187 35.0539 20.0124 35.0539C20.5144 35.0539 20.9475 34.7131 21.0657 34.2255L21.3228 33.1643L22.3754 33.9356C22.8481 34.2821 23.4021 34.4552 23.956 34.4552C24.51 34.4552 25.0639 34.282 25.5367 33.9356L26.5892 33.1643L26.8463 34.2253C26.9644 34.7131 27.3975 35.0539 27.8995 35.0539C28.2934 35.0539 28.6138 35.3743 28.6138 35.7681ZM28.6138 30.3807V30.4818C28.6138 30.8756 28.2934 31.1959 27.8996 31.1959H27.2361C27.0041 31.1959 26.7826 31.2684 26.5955 31.4055L24.7003 32.7943C24.6883 32.8031 24.6757 32.8107 24.6636 32.819V31.2545C24.6636 30.8638 24.3468 30.547 23.956 30.547C23.5653 30.547 23.2485 30.8638 23.2485 31.2545V32.819C23.2363 32.8107 23.2238 32.8031 23.2118 32.7943L21.3165 31.4056C21.1295 31.2685 20.9079 31.196 20.6759 31.196H20.0124C19.6187 31.196 19.2983 30.8757 19.2983 30.4819V30.3808C19.2983 29.9871 19.6187 29.6668 20.0124 29.6668C20.5144 29.6668 20.9474 29.3261 21.0657 28.8384L21.3228 27.7773L22.3754 28.5485C22.8482 28.895 23.402 29.0682 23.956 29.0681C24.51 29.0681 25.064 28.8949 25.5367 28.5485L26.5892 27.7772L26.8464 28.8382C26.9645 29.326 27.3976 29.6667 27.8996 29.6667C28.2934 29.6667 28.6138 29.987 28.6138 30.3807V30.3807ZM28.6138 24.9935V25.0945C28.6138 25.4883 28.2934 25.8086 27.8996 25.8086H27.2361C27.0041 25.8086 26.7826 25.881 26.5955 26.0181L24.7003 27.407C24.6883 27.4158 24.6757 27.4234 24.6636 27.4317V25.8672C24.6636 25.4764 24.3468 25.1596 23.956 25.1596C23.5653 25.1596 23.2485 25.4764 23.2485 25.8672V27.4316C23.2363 27.4233 23.2238 27.4157 23.2118 27.4069L21.3165 26.0181C21.1294 25.8809 20.9079 25.8085 20.6759 25.8085H20.0124C19.6187 25.8085 19.2983 25.4881 19.2983 25.0944V24.9934C19.2983 24.5996 19.6187 24.2793 20.0124 24.2793C20.5144 24.2793 20.9475 23.9385 21.0657 23.4509L21.3228 22.3897L22.3754 23.161C22.8482 23.5075 23.402 23.6807 23.956 23.6806C24.51 23.6806 25.064 23.5074 25.5367 23.161L26.5892 22.3896L26.8463 23.4506C26.9644 23.9384 27.3975 24.2792 27.8995 24.2792C28.2934 24.2793 28.6138 24.5997 28.6138 24.9935V24.9935ZM28.6138 19.6062V19.7072C28.6138 20.101 28.2934 20.4213 27.8996 20.4213H27.2361C27.0041 20.4213 26.7826 20.4938 26.5955 20.6309L24.7003 22.0197C24.6883 22.0285 24.6757 22.0361 24.6636 22.0444V20.4799C24.6636 20.0892 24.3468 19.7724 23.956 19.7724C23.5653 19.7724 23.2485 20.0892 23.2485 20.4799V22.0444C23.2363 22.036 23.2238 22.0284 23.2118 22.0196L21.3165 20.6309C21.1294 20.4937 20.9079 20.4212 20.6759 20.4212H20.0124C19.6187 20.4212 19.2983 20.1009 19.2983 19.7071V19.6061C19.2983 19.2124 19.6187 18.892 20.0124 18.892C20.5144 18.892 20.9475 18.5512 21.0657 18.0636L21.3228 17.0025L22.3754 17.7738C22.8482 18.1203 23.402 18.2935 23.956 18.2934C24.51 18.2934 25.064 18.1202 25.5367 17.7738L26.5892 17.0025L26.8464 18.0634C26.9645 18.5512 27.3976 18.892 27.8996 18.892C28.2934 18.8921 28.6138 19.2125 28.6138 19.6062V19.6062ZM28.6138 14.32C28.6138 14.7138 28.2934 15.0341 27.8996 15.0341H27.2361C27.0041 15.0341 26.7826 15.1065 26.5955 15.2436L24.7003 16.6325C24.6883 16.6412 24.6757 16.6489 24.6636 16.6572V15.0927C24.6636 14.7019 24.3468 14.3851 23.956 14.3851C23.5653 14.3851 23.2485 14.7019 23.2485 15.0927V16.6572C23.2363 16.6489 23.2238 16.6412 23.2118 16.6325L21.3165 15.2437C21.1294 15.1065 20.9079 15.0341 20.6759 15.0341H20.0124C19.6187 15.0341 19.2983 14.7137 19.2983 14.32V14.219C19.2983 13.8252 19.6187 13.5049 20.0124 13.5049C20.5144 13.5049 20.9474 13.1643 21.0657 12.6765L21.4607 11.0462H26.4512L26.8463 12.6764C26.9644 13.1643 27.3975 13.5049 27.8995 13.5049C28.2933 13.5049 28.6137 13.8253 28.6137 14.219V14.32H28.6138Z" fill="#E1ADAE"/>
<path d="M23.9561 8.15048C24.3468 8.15048 24.6636 7.83369 24.6636 7.44294V5.72879C24.6636 5.33803 24.3468 5.02124 23.9561 5.02124C23.5653 5.02124 23.2485 5.33803 23.2485 5.72879V7.44294C23.2485 7.83369 23.5653 8.15048 23.9561 8.15048V8.15048Z" fill="#E1ADAE"/>
<path d="M23.9561 3.12933C24.3468 3.12933 24.6636 2.81254 24.6636 2.42179V0.707546C24.6636 0.316792 24.3468 0 23.9561 0C23.5653 0 23.2485 0.316792 23.2485 0.707546V2.42169C23.2485 2.81254 23.5653 3.12933 23.9561 3.12933V3.12933Z" fill="#E1ADAE"/>
</g>
<defs>
<clipPath id="clip0_72_1151">
<rect width="48" height="48" fill="white"/>
</clipPath>
</defs>
</svg>
