<svg width="1792" height="879" viewBox="0 0 1792 879" fill="none" xmlns="http://www.w3.org/2000/svg">
<circle cx="896" cy="439.51" r="438.5" stroke="#C8D1E8"/>
<g filter="url(#filter0_b_72_946)">
<circle cx="896" cy="439.51" r="365.582" fill="#EBF0FB"/>
</g>
<g filter="url(#filter1_b_72_946)">
<path d="M179.24 330.749V516.212H117.817V379.234H61.4236V516.212H0V330.749H179.24Z" fill="white" fill-opacity="0.4"/>
<path d="M322.151 520.451C302.206 520.451 284.291 516.3 268.405 507.999C252.52 499.697 240.076 488.216 231.075 473.555C222.073 458.718 217.572 442.027 217.572 423.48C217.572 404.934 222.073 388.331 231.075 373.67C240.076 358.833 252.52 347.264 268.405 338.962C284.291 330.661 302.206 326.51 322.151 326.51C342.096 326.51 360.011 330.661 375.897 338.962C391.782 347.264 404.226 358.833 413.227 373.67C422.229 388.331 426.73 404.934 426.73 423.48C426.73 442.027 422.229 458.718 413.227 473.555C404.226 488.216 391.782 499.697 375.897 507.999C360.011 516.3 342.096 520.451 322.151 520.451ZM322.151 469.846C329.917 469.846 336.889 467.992 343.067 464.282C349.421 460.396 354.451 455.009 358.158 448.121C361.865 441.055 363.718 432.842 363.718 423.48C363.718 414.119 361.865 405.994 358.158 399.105C354.451 392.04 349.421 386.653 343.067 382.944C336.889 379.058 329.917 377.115 322.151 377.115C314.385 377.115 307.325 379.058 300.97 382.944C294.793 386.653 289.851 392.04 286.144 399.105C282.438 405.994 280.584 414.119 280.584 423.48C280.584 432.842 282.438 441.055 286.144 448.121C289.851 455.009 294.793 460.396 300.97 464.282C307.325 467.992 314.385 469.846 322.151 469.846Z" fill="white" fill-opacity="0.4"/>
<path d="M667.766 467.727V552.51H610.579V516.212H505.206V552.51H448.018V467.727H453.313C464.08 467.727 471.67 460.926 476.082 447.326C480.495 433.725 483.319 413.677 484.555 387.183L486.673 330.749H643.409V467.727H667.766ZM538.83 392.482C538.124 410.321 536.712 425.512 534.594 438.053C532.475 450.417 529.21 460.308 524.798 467.727H581.985V379.234H539.359L538.83 392.482Z" fill="white" fill-opacity="0.4"/>
<path d="M883.876 330.749V516.212H822.452V379.234H766.059V516.212H704.636V330.749H883.876Z" fill="white" fill-opacity="0.4"/>
<path d="M932.533 330.749H993.957V427.19L1057.76 330.749H1116.54V516.212H1055.12V420.036L991.574 516.212H932.533V330.749Z" fill="white" fill-opacity="0.4"/>
<path d="M1258.54 520.451C1238.95 520.451 1221.3 516.389 1205.59 508.264C1189.88 499.962 1177.52 488.481 1168.52 473.82C1159.7 458.983 1155.28 442.203 1155.28 423.48C1155.28 404.758 1159.7 388.066 1168.52 373.405C1177.52 358.568 1189.88 347.087 1205.59 338.962C1221.3 330.661 1238.95 326.51 1258.54 326.51C1276.54 326.51 1292.6 329.689 1306.72 336.048C1320.84 342.407 1332.49 351.591 1341.67 363.602L1302.22 398.84C1290.75 384.357 1277.25 377.115 1261.71 377.115C1248.65 377.115 1238.15 381.354 1230.21 389.832C1222.27 398.134 1218.29 409.35 1218.29 423.48C1218.29 437.611 1222.27 448.915 1230.21 457.394C1238.15 465.695 1248.65 469.846 1261.71 469.846C1277.25 469.846 1290.75 462.604 1302.22 448.121L1341.67 483.359C1332.49 495.369 1320.84 504.554 1306.72 510.913C1292.6 517.272 1276.54 520.451 1258.54 520.451Z" fill="white" fill-opacity="0.4"/>
<path d="M1505.9 420.831L1560.71 516.212H1490.28L1454.8 449.18H1437.33V516.212H1374.85V330.749H1437.33V399.9H1456.39L1495.84 330.749H1560.97L1505.9 420.831Z" fill="white" fill-opacity="0.4"/>
<path d="M1714.96 483.888H1644.53L1632.09 516.212H1568.55L1649.56 330.749H1710.98L1792 516.212H1727.4L1714.96 483.888ZM1697.75 438.847L1679.74 392.217L1661.74 438.847H1697.75Z" fill="white" fill-opacity="0.4"/>
</g>
<defs>
<filter id="filter0_b_72_946" x="510.418" y="53.9277" width="771.164" height="771.164" filterUnits="userSpaceOnUse" color-interpolation-filters="sRGB">
<feFlood flood-opacity="0" result="BackgroundImageFix"/>
<feGaussianBlur in="BackgroundImage" stdDeviation="10"/>
<feComposite in2="SourceAlpha" operator="in" result="effect1_backgroundBlur_72_946"/>
<feBlend mode="normal" in="SourceGraphic" in2="effect1_backgroundBlur_72_946" result="shape"/>
</filter>
<filter id="filter1_b_72_946" x="-20" y="306.51" width="1832" height="266" filterUnits="userSpaceOnUse" color-interpolation-filters="sRGB">
<feFlood flood-opacity="0" result="BackgroundImageFix"/>
<feGaussianBlur in="BackgroundImage" stdDeviation="10"/>
<feComposite in2="SourceAlpha" operator="in" result="effect1_backgroundBlur_72_946"/>
<feBlend mode="normal" in="SourceGraphic" in2="effect1_backgroundBlur_72_946" result="shape"/>
</filter>
</defs>
</svg>
