<svg width="1920" height="646" viewBox="0 0 1920 646" fill="none" xmlns="http://www.w3.org/2000/svg">
<mask id="mask0_55_863" style="mask-type:alpha" maskUnits="userSpaceOnUse" x="0" y="0" width="1920" height="646">
<ellipse rx="960" ry="323" transform="matrix(1 0 0 -1 960 323)" fill="#C4C4C4"/>
</mask>
<g mask="url(#mask0_55_863)">
<g filter="url(#filter0_b_55_863)">
<path d="M260.023 121.7C298.112 121.7 331.292 127.983 359.564 140.548C387.836 153.113 409.629 171.176 424.943 194.736C440.257 218.296 447.914 245.783 447.914 277.196C447.914 308.609 440.257 336.096 424.943 359.656C409.629 383.216 387.836 401.279 359.564 413.844C331.292 426.409 298.112 432.692 260.023 432.692H200.534V534H61.5305V121.7H260.023ZM251.188 325.494C270.036 325.494 284.172 321.371 293.596 313.125C303.02 304.486 307.732 292.51 307.732 277.196C307.732 261.882 303.02 250.102 293.596 241.856C284.172 233.217 270.036 228.898 251.188 228.898H200.534V325.494H251.188ZM928.488 121.7L762.979 432.103C743.346 469.014 719.197 497.089 690.532 516.33C662.26 535.571 631.043 545.191 596.881 545.191C570.572 545.191 543.871 539.694 516.777 528.699L549.172 428.569C566.449 433.281 580.585 435.637 591.58 435.637C601.789 435.637 610.428 433.87 617.496 430.336C624.957 426.802 632.025 420.912 638.7 412.666L480.848 121.7H627.509L709.38 295.455L794.196 121.7H928.488ZM1280.72 321.96L1402.65 534H1245.97L1167.05 384.983H1128.17V534H989.169V121.7H1128.17V275.429H1170.58L1258.34 121.7H1403.24L1280.72 321.96ZM1466.92 121.7H1603.56V336.096L1745.51 121.7H1876.27V534H1739.62V320.193L1598.26 534H1466.92V121.7Z" fill="white" fill-opacity="0.8"/>
</g>
</g>
<defs>
<filter id="filter0_b_55_863" x="41.5304" y="101.7" width="1854.74" height="463.491" filterUnits="userSpaceOnUse" color-interpolation-filters="sRGB">
<feFlood flood-opacity="0" result="BackgroundImageFix"/>
<feGaussianBlur in="BackgroundImage" stdDeviation="10"/>
<feComposite in2="SourceAlpha" operator="in" result="effect1_backgroundBlur_55_863"/>
<feBlend mode="normal" in="SourceGraphic" in2="effect1_backgroundBlur_55_863" result="shape"/>
</filter>
</defs>
</svg>
