<svg width="31" height="30" viewBox="0 0 31 30" fill="none" xmlns="http://www.w3.org/2000/svg">
<path d="M20.1876 13.125V11.7188C20.1876 11.0971 19.9406 10.501 19.5011 10.0615C19.0616 9.62193 18.4654 9.375 17.8438 9.375C17.2222 9.375 16.6261 9.62193 16.1865 10.0615C15.747 10.501 15.5001 11.0971 15.5001 11.7188V4.21875C15.5001 3.59715 15.2531 3.00101 14.8136 2.56147C14.3741 2.12193 13.7779 1.875 13.1563 1.875C12.5347 1.875 11.9386 2.12193 11.499 2.56147C11.0595 3.00101 10.8126 3.59715 10.8126 4.21875V18.4336L8.24616 13.9805C7.93536 13.4412 7.42308 13.0475 6.82201 12.886C6.22094 12.7245 5.58032 12.8083 5.04109 13.1191C4.50185 13.4299 4.10816 13.9422 3.94663 14.5433C3.7851 15.1444 3.86896 15.785 4.17976 16.3242C8.00007 24.375 10.3204 27.1875 15.5001 27.1875C16.7312 27.1875 17.9503 26.945 19.0877 26.4739C20.2252 26.0027 21.2586 25.3122 22.1292 24.4416C22.9997 23.5711 23.6903 22.5376 24.1614 21.4002C24.6326 20.2627 24.8751 19.0436 24.8751 17.8125V13.125C24.8751 12.5034 24.6281 11.9073 24.1886 11.4677C23.7491 11.0282 23.1529 10.7812 22.5313 10.7812C21.9097 10.7812 21.3136 11.0282 20.874 11.4677C20.4345 11.9073 20.1876 12.5034 20.1876 13.125V13.125Z" stroke="white" stroke-width="1.5" stroke-linecap="round" stroke-linejoin="round"/>
</svg>
