<svg width="700" height="780" viewBox="0 0 700 780" fill="none" xmlns="http://www.w3.org/2000/svg">
<g filter="url(#filter0_bd_72_785)">
<path d="M100 96.6052C100 70.8659 120.866 50 146.605 50C158.249 50 169.47 54.3584 178.062 62.2172L219.64 100.251C238.193 117.223 268.072 104.061 268.072 78.9155C268.072 62.9459 281.018 50 296.988 50H365.969H386.753H550C577.614 50 600 72.3858 600 100V580C600 607.614 577.614 630 550 630H150C122.386 630 100 607.614 100 580V96.6052Z" fill="white" fill-opacity="0.5" shape-rendering="crispEdges"/>
<path d="M101.5 96.6052C101.5 71.6943 121.694 51.5 146.605 51.5C157.874 51.5 168.734 55.7181 177.049 63.324L218.627 101.358C238.143 119.21 269.572 105.365 269.572 78.9155C269.572 63.7743 281.846 51.5 296.988 51.5H365.969H386.753H550C576.786 51.5 598.5 73.2142 598.5 100V580C598.5 606.786 576.786 628.5 550 628.5H150C123.214 628.5 101.5 606.786 101.5 580V96.6052Z" stroke="white" stroke-width="3" shape-rendering="crispEdges"/>
</g>
<defs>
<filter id="filter0_bd_72_785" x="0" y="0" width="700" height="780" filterUnits="userSpaceOnUse" color-interpolation-filters="sRGB">
<feFlood flood-opacity="0" result="BackgroundImageFix"/>
<feGaussianBlur in="BackgroundImage" stdDeviation="10"/>
<feComposite in2="SourceAlpha" operator="in" result="effect1_backgroundBlur_72_785"/>
<feColorMatrix in="SourceAlpha" type="matrix" values="0 0 0 0 0 0 0 0 0 0 0 0 0 0 0 0 0 0 127 0" result="hardAlpha"/>
<feOffset dy="50"/>
<feGaussianBlur stdDeviation="50"/>
<feComposite in2="hardAlpha" operator="out"/>
<feColorMatrix type="matrix" values="0 0 0 0 0.294118 0 0 0 0 0.333333 0 0 0 0 0.439216 0 0 0 0.1 0"/>
<feBlend mode="normal" in2="effect1_backgroundBlur_72_785" result="effect2_dropShadow_72_785"/>
<feBlend mode="normal" in="SourceGraphic" in2="effect2_dropShadow_72_785" result="shape"/>
</filter>
</defs>
</svg>
