<svg width="1792" height="189" viewBox="0 0 1792 189" fill="none" xmlns="http://www.w3.org/2000/svg">
<g filter="url(#filter0_b_173_5151)">
<path d="M183.209 0V189H120.425V49.41H62.7836V189H0V0H183.209Z" fill="white" fill-opacity="0.4"/>
<path d="M366.629 156.06H294.645L281.926 189H216.977L299.786 0H362.57L445.379 189H379.348L366.629 156.06ZM349.039 110.16L330.637 62.64L312.235 110.16H349.039Z" fill="white" fill-opacity="0.4"/>
<path d="M570.3 0C587.8 0 603.044 2.88 616.034 8.64C629.024 14.4 639.037 22.68 646.073 33.48C653.109 44.28 656.627 56.88 656.627 71.28C656.627 85.68 653.109 98.28 646.073 109.08C639.037 119.88 629.024 128.16 616.034 133.92C603.044 139.68 587.8 142.56 570.3 142.56H542.967V189H479.101V0H570.3ZM566.24 93.42C574.9 93.42 581.395 91.53 585.725 87.75C590.055 83.79 592.22 78.3 592.22 71.28C592.22 64.26 590.055 58.86 585.725 55.08C581.395 51.12 574.9 49.14 566.24 49.14H542.967V93.42H566.24Z" fill="white" fill-opacity="0.4"/>
<path d="M849.284 49.41H793.807V189H731.024V49.41H675.547V0H849.284V49.41Z" fill="white" fill-opacity="0.4"/>
<path d="M1073.31 0V189H1009.44V119.34H950.449V189H886.583V0H950.449V66.96H1009.44V0H1073.31Z" fill="white" fill-opacity="0.4"/>
<path d="M1280.73 140.94V189H1123.23V0H1277.21V48.06H1186.01V70.2H1266.11V116.1H1186.01V140.94H1280.73Z" fill="white" fill-opacity="0.4"/>
<path d="M1414.07 0C1431.57 0 1446.82 2.88 1459.8 8.64C1472.79 14.4 1482.81 22.68 1489.84 33.48C1496.88 44.28 1500.4 56.88 1500.4 71.28C1500.4 85.68 1496.88 98.28 1489.84 109.08C1482.81 119.88 1472.79 128.16 1459.8 133.92C1446.82 139.68 1431.57 142.56 1414.07 142.56H1386.74V189H1322.87V0H1414.07ZM1410.01 93.42C1418.67 93.42 1425.17 91.53 1429.5 87.75C1433.83 83.79 1435.99 78.3 1435.99 71.28C1435.99 64.26 1433.83 58.86 1429.5 55.08C1425.17 51.12 1418.67 49.14 1410.01 49.14H1386.74V93.42H1410.01Z" fill="white" fill-opacity="0.4"/>
<path d="M1638.02 58.05C1661.65 58.05 1679.87 63.36 1692.68 73.98C1705.49 84.42 1711.9 99.9 1711.9 120.42C1711.9 142.56 1704.59 159.57 1689.98 171.45C1675.36 183.15 1655.34 189 1629.9 189H1535.99V0H1598.78V58.05H1638.02ZM1625.57 144.45C1632.06 144.45 1637.39 142.47 1641.54 138.51C1645.69 134.37 1647.76 128.7 1647.76 121.5C1647.76 108.9 1640.36 102.6 1625.57 102.6H1598.78V144.45H1625.57ZM1729.22 0H1792V189H1729.22V0Z" fill="white" fill-opacity="0.4"/>
</g>
<defs>
<filter id="filter0_b_173_5151" x="-20" y="-20" width="1832" height="229" filterUnits="userSpaceOnUse" color-interpolation-filters="sRGB">
<feFlood flood-opacity="0" result="BackgroundImageFix"/>
<feGaussianBlur in="BackgroundImage" stdDeviation="10"/>
<feComposite in2="SourceAlpha" operator="in" result="effect1_backgroundBlur_173_5151"/>
<feBlend mode="normal" in="SourceGraphic" in2="effect1_backgroundBlur_173_5151" result="shape"/>
</filter>
</defs>
</svg>
