<svg width="1344" height="142" viewBox="0 0 1344 142" fill="none" xmlns="http://www.w3.org/2000/svg">
<g filter="url(#filter0_b_123_1839)">
<path d="M137.407 0V142H90.319V37.1229H47.0877V142H0V0H137.407Z" fill="white" fill-opacity="0.4"/>
<path d="M274.972 117.251H220.984L211.444 142H162.733L224.84 0H271.928L334.035 142H284.511L274.972 117.251ZM261.779 82.7657L247.978 47.0629L234.176 82.7657H261.779Z" fill="white" fill-opacity="0.4"/>
<path d="M427.725 0C440.85 0 452.283 2.16381 462.026 6.49143C471.768 10.819 479.278 17.04 484.555 25.1543C489.832 33.2686 492.47 42.7352 492.47 53.5543C492.47 64.3733 489.832 73.84 484.555 81.9543C479.278 90.0686 471.768 96.2895 462.026 100.617C452.283 104.945 440.85 107.109 427.725 107.109H407.225V142H359.326V0H427.725ZM424.68 70.1886C431.175 70.1886 436.046 68.7686 439.294 65.9286C442.541 62.9533 444.165 58.8286 444.165 53.5543C444.165 48.28 442.541 44.2229 439.294 41.3829C436.046 38.4076 431.175 36.92 424.68 36.92H407.225V70.1886H424.68Z" fill="white" fill-opacity="0.4"/>
<path d="M636.963 37.1229H595.356V142H548.268V37.1229H506.66V0H636.963V37.1229Z" fill="white" fill-opacity="0.4"/>
<path d="M804.983 0V142H757.083V89.6629H712.837V142H664.937V0H712.837V50.3086H757.083V0H804.983Z" fill="white" fill-opacity="0.4"/>
<path d="M960.545 105.891V142H842.42V0H957.907V36.1086H889.508V52.7429H949.585V87.2286H889.508V105.891H960.545Z" fill="white" fill-opacity="0.4"/>
<path d="M1060.55 0C1073.68 0 1085.11 2.16381 1094.85 6.49143C1104.6 10.819 1112.11 17.04 1117.38 25.1543C1122.66 33.2686 1125.3 42.7352 1125.3 53.5543C1125.3 64.3733 1122.66 73.84 1117.38 81.9543C1112.11 90.0686 1104.6 96.2895 1094.85 100.617C1085.11 104.945 1073.68 107.109 1060.55 107.109H1040.05V142H992.154V0H1060.55ZM1057.51 70.1886C1064 70.1886 1068.87 68.7686 1072.12 65.9286C1075.37 62.9533 1076.99 58.8286 1076.99 53.5543C1076.99 48.28 1075.37 44.2229 1072.12 41.3829C1068.87 38.4076 1064 36.92 1057.51 36.92H1040.05V70.1886H1057.51Z" fill="white" fill-opacity="0.4"/>
<path d="M1228.51 43.6143C1246.24 43.6143 1259.91 47.6038 1269.51 55.5829C1279.12 63.4267 1283.92 75.0571 1283.92 90.4743C1283.92 107.109 1278.44 119.889 1267.48 128.814C1256.52 137.605 1241.5 142 1222.42 142H1152V0H1199.08V43.6143H1228.51ZM1219.18 108.529C1224.05 108.529 1228.04 107.041 1231.15 104.066C1234.26 100.955 1235.82 96.6952 1235.82 91.2857C1235.82 81.819 1230.27 77.0857 1219.18 77.0857H1199.08V108.529H1219.18ZM1296.91 0H1344V142H1296.91V0Z" fill="white" fill-opacity="0.4"/>
</g>
<defs>
<filter id="filter0_b_123_1839" x="-15" y="-15" width="1374" height="172" filterUnits="userSpaceOnUse" color-interpolation-filters="sRGB">
<feFlood flood-opacity="0" result="BackgroundImageFix"/>
<feGaussianBlur in="BackgroundImage" stdDeviation="7.5"/>
<feComposite in2="SourceAlpha" operator="in" result="effect1_backgroundBlur_123_1839"/>
<feBlend mode="normal" in="SourceGraphic" in2="effect1_backgroundBlur_123_1839" result="shape"/>
</filter>
</defs>
</svg>
