<svg width="944" height="293" viewBox="0 0 944 293" fill="none" xmlns="http://www.w3.org/2000/svg">
<g filter="url(#filter0_b_173_5044)">
<path d="M134.771 6.40436C160.632 6.40436 183.16 10.6739 202.356 19.2131C221.552 27.7523 236.348 40.0273 246.746 56.0382C257.144 72.0492 262.343 90.7286 262.343 112.076C262.343 133.424 257.144 152.104 246.746 168.115C236.348 184.126 221.552 196.401 202.356 204.94C183.16 213.479 160.632 217.749 134.771 217.749H94.3794V286.596H0V6.40436H134.771ZM128.772 144.899C141.569 144.899 151.167 142.097 157.566 136.493C163.964 130.622 167.163 122.484 167.163 112.076C167.163 101.669 163.964 93.6639 157.566 88.0601C151.167 82.1894 141.569 79.2541 128.772 79.2541H94.3794V144.899H128.772Z" fill="white" fill-opacity="0.4"/>
<path d="M437.264 216.148H411.669V286.596H317.29V6.40436H452.061C477.922 6.40436 500.45 10.6739 519.646 19.2131C538.842 27.7523 553.638 40.0273 564.036 56.0382C574.434 72.0492 579.633 90.7286 579.633 112.076C579.633 132.09 575.1 149.569 566.036 164.512C556.971 179.456 543.907 191.331 526.844 200.137L585.631 286.596H484.853L437.264 216.148ZM484.453 112.076C484.453 101.669 481.254 93.6639 474.856 88.0601C468.457 82.1894 458.859 79.2541 446.062 79.2541H411.669V144.899H446.062C458.859 144.899 468.457 142.097 474.856 136.493C481.254 130.622 484.453 122.484 484.453 112.076Z" fill="white" fill-opacity="0.4"/>
<path d="M786.034 293C755.908 293 728.847 286.729 704.852 274.187C680.857 261.645 662.062 244.3 648.465 222.152C634.867 199.736 628.069 174.519 628.069 146.5C628.069 118.481 634.867 93.3971 648.465 71.2486C662.062 48.8333 680.857 31.3547 704.852 18.8128C728.847 6.27094 755.908 0 786.034 0C816.161 0 843.222 6.27094 867.217 18.8128C891.211 31.3547 910.007 48.8333 923.604 71.2486C937.201 93.3971 944 118.481 944 146.5C944 174.519 937.201 199.736 923.604 222.152C910.007 244.3 891.211 261.645 867.217 274.187C843.222 286.729 816.161 293 786.034 293ZM786.034 216.548C797.765 216.548 808.296 213.746 817.628 208.142C827.225 202.271 834.824 194.132 840.423 183.725C846.021 173.051 848.821 160.643 848.821 146.5C848.821 132.357 846.021 120.082 840.423 109.675C834.824 99.0009 827.225 90.862 817.628 85.2582C808.296 79.3875 797.765 76.4522 786.034 76.4522C774.304 76.4522 763.639 79.3875 754.041 85.2582C744.71 90.862 737.245 99.0009 731.646 109.675C726.048 120.082 723.248 132.357 723.248 146.5C723.248 160.643 726.048 173.051 731.646 183.725C737.245 194.132 744.71 202.271 754.041 208.142C763.639 213.746 774.304 216.548 786.034 216.548Z" fill="white" fill-opacity="0.4"/>
</g>
<defs>
<filter id="filter0_b_173_5044" x="-20" y="-20" width="984" height="333" filterUnits="userSpaceOnUse" color-interpolation-filters="sRGB">
<feFlood flood-opacity="0" result="BackgroundImageFix"/>
<feGaussianBlur in="BackgroundImage" stdDeviation="10"/>
<feComposite in2="SourceAlpha" operator="in" result="effect1_backgroundBlur_173_5044"/>
<feBlend mode="normal" in="SourceGraphic" in2="effect1_backgroundBlur_173_5044" result="shape"/>
</filter>
</defs>
</svg>
