<svg width="1792" height="878" viewBox="0 0 1792 878" fill="none" xmlns="http://www.w3.org/2000/svg">
<circle cx="896" cy="439" r="438.5" stroke="#C8D1E8"/>
<g filter="url(#filter0_b_72_903)">
<circle cx="896" cy="439" r="365.582" fill="#EBF0FB"/>
</g>
<g filter="url(#filter1_b_72_903)">
<path d="M214.425 309.064V530.635H140.944V366.989H73.4811V530.635H0V309.064H214.425Z" fill="white" fill-opacity="0.4"/>
<path d="M379.372 309.064C399.854 309.064 417.696 312.441 432.899 319.193C448.102 325.946 459.821 335.653 468.056 348.314C476.291 360.975 480.408 375.747 480.408 392.628C480.408 409.51 476.291 424.281 468.056 436.943C459.821 449.604 448.102 459.311 432.899 466.063C417.696 472.816 399.854 476.192 379.372 476.192H347.382V530.635H272.634V309.064H379.372ZM374.621 418.584C384.756 418.584 392.358 416.368 397.425 411.937C402.493 407.294 405.027 400.858 405.027 392.628C405.027 384.399 402.493 378.068 397.425 373.637C392.358 368.994 384.756 366.673 374.621 366.673H347.382V418.584H374.621Z" fill="white" fill-opacity="0.4"/>
<path d="M637.919 535.7C614.059 535.7 592.627 530.741 573.623 520.823C554.62 510.905 539.733 497.189 528.964 479.674C518.196 461.948 512.811 442.007 512.811 419.85C512.811 397.693 518.196 377.857 528.964 360.342C539.733 342.617 554.62 328.795 573.623 318.877C592.627 308.959 614.059 304 637.919 304C661.779 304 683.211 308.959 702.215 318.877C721.219 328.795 736.105 342.617 746.874 360.342C757.643 377.857 763.027 397.693 763.027 419.85C763.027 442.007 757.643 461.948 746.874 479.674C736.105 497.189 721.219 510.905 702.215 520.823C683.211 530.741 661.779 535.7 637.919 535.7ZM637.919 475.243C647.21 475.243 655.55 473.027 662.941 468.596C670.542 463.953 676.56 457.517 680.994 449.287C685.429 440.846 687.646 431.034 687.646 419.85C687.646 408.666 685.429 398.959 680.994 390.729C676.56 382.288 670.542 375.852 662.941 371.421C655.55 366.778 647.21 364.457 637.919 364.457C628.628 364.457 620.182 366.778 612.581 371.421C605.191 375.852 599.278 382.288 594.844 390.729C590.41 398.959 588.193 408.666 588.193 419.85C588.193 431.034 590.41 440.846 594.844 449.287C599.278 457.517 605.191 463.953 612.581 468.596C620.182 473.027 628.628 475.243 637.919 475.243Z" fill="white" fill-opacity="0.4"/>
<path d="M1055.35 472.71V574H986.935V530.635H808.933V309.064H882.414V472.71H952.728V309.064H1026.21V472.71H1055.35Z" fill="white" fill-opacity="0.4"/>
<path d="M1283.84 474.293V530.635H1099.51V309.064H1279.73V365.407H1172.99V391.362H1266.74V445.172H1172.99V474.293H1283.84Z" fill="white" fill-opacity="0.4"/>
<path d="M1444.66 535.7C1421.22 535.7 1400.1 530.846 1381.31 521.139C1362.52 511.222 1347.74 497.505 1336.97 479.991C1326.41 462.265 1321.13 442.218 1321.13 419.85C1321.13 397.482 1326.41 377.54 1336.97 360.026C1347.74 342.3 1362.52 328.584 1381.31 318.877C1400.1 308.959 1421.22 304 1444.66 304C1466.19 304 1485.41 307.798 1502.3 315.395C1519.19 322.992 1533.13 333.965 1544.11 348.314L1496.92 390.413C1483.19 373.109 1467.04 364.457 1448.46 364.457C1432.83 364.457 1420.27 369.522 1410.77 379.651C1401.27 389.569 1396.51 402.968 1396.51 419.85C1396.51 436.732 1401.27 450.237 1410.77 460.366C1420.27 470.284 1432.83 475.243 1448.46 475.243C1467.04 475.243 1483.19 466.591 1496.92 449.287L1544.11 491.386C1533.13 505.735 1519.19 516.708 1502.3 524.305C1485.41 531.902 1466.19 535.7 1444.66 535.7Z" fill="white" fill-opacity="0.4"/>
<path d="M1692.55 535.7C1669.11 535.7 1647.99 530.846 1629.2 521.139C1610.41 511.222 1595.63 497.505 1584.86 479.991C1574.3 462.265 1569.02 442.218 1569.02 419.85C1569.02 397.482 1574.3 377.54 1584.86 360.026C1595.63 342.3 1610.41 328.584 1629.2 318.877C1647.99 308.959 1669.11 304 1692.55 304C1714.08 304 1733.3 307.798 1750.19 315.395C1767.08 322.992 1781.02 333.965 1792 348.314L1744.81 390.413C1731.08 373.109 1714.93 364.457 1696.35 364.457C1680.72 364.457 1668.16 369.522 1658.66 379.651C1649.16 389.569 1644.4 402.968 1644.4 419.85C1644.4 436.732 1649.16 450.237 1658.66 460.366C1668.16 470.284 1680.72 475.243 1696.35 475.243C1714.93 475.243 1731.08 466.591 1744.81 449.287L1792 491.386C1781.02 505.735 1767.08 516.708 1750.19 524.305C1733.3 531.902 1714.08 535.7 1692.55 535.7Z" fill="white" fill-opacity="0.4"/>
</g>
<defs>
<filter id="filter0_b_72_903" x="510.418" y="53.418" width="771.164" height="771.164" filterUnits="userSpaceOnUse" color-interpolation-filters="sRGB">
<feFlood flood-opacity="0" result="BackgroundImageFix"/>
<feGaussianBlur in="BackgroundImage" stdDeviation="10"/>
<feComposite in2="SourceAlpha" operator="in" result="effect1_backgroundBlur_72_903"/>
<feBlend mode="normal" in="SourceGraphic" in2="effect1_backgroundBlur_72_903" result="shape"/>
</filter>
<filter id="filter1_b_72_903" x="-20" y="284" width="1832" height="310" filterUnits="userSpaceOnUse" color-interpolation-filters="sRGB">
<feFlood flood-opacity="0" result="BackgroundImageFix"/>
<feGaussianBlur in="BackgroundImage" stdDeviation="10"/>
<feComposite in2="SourceAlpha" operator="in" result="effect1_backgroundBlur_72_903"/>
<feBlend mode="normal" in="SourceGraphic" in2="effect1_backgroundBlur_72_903" result="shape"/>
</filter>
</defs>
</svg>
