<svg width="1792" height="878" viewBox="0 0 1792 878" fill="none" xmlns="http://www.w3.org/2000/svg">
<circle cx="896" cy="439" r="438.5" stroke="#C8D1E8"/>
<g filter="url(#filter0_b_201_1502)">
<circle cx="896" cy="439" r="365.582" fill="#EBF0FB"/>
</g>
<g filter="url(#filter1_b_201_1502)">
<path d="M290.887 304.117L183.335 505.596C170.577 529.554 154.885 547.778 136.258 560.267C117.886 572.756 97.6003 579 75.401 579C58.305 579 40.9538 575.432 23.3475 568.295L44.3986 503.302C55.6258 506.361 64.8117 507.89 71.9563 507.89C78.5906 507.89 84.2042 506.743 88.7971 504.449C93.6453 502.155 98.2382 498.332 102.576 492.98L0 304.117H95.3038L148.506 416.899L203.621 304.117H290.887Z" fill="white" fill-opacity="0.5"/>
<path d="M463.231 577.853C434.907 577.853 409.391 571.991 386.681 560.267C363.972 548.288 346.11 531.721 333.097 510.566C320.339 489.156 313.96 464.943 313.96 437.927C313.96 410.91 320.339 386.824 333.097 365.669C346.11 344.26 363.972 327.693 386.681 315.969C409.391 303.99 434.907 298 463.231 298C489.257 298 512.477 302.588 532.89 311.763C553.304 320.939 570.144 334.192 583.413 351.524L526.384 402.371C509.798 381.472 490.278 371.022 467.824 371.022C448.941 371.022 433.759 377.139 422.277 389.373C410.794 401.352 405.053 417.537 405.053 437.927C405.053 458.317 410.794 474.629 422.277 486.863C433.759 498.842 448.941 504.831 467.824 504.831C490.278 504.831 509.798 494.381 526.384 473.482L583.413 524.329C570.144 541.661 553.304 554.914 532.89 564.09C512.477 573.265 489.257 577.853 463.231 577.853Z" fill="white" fill-opacity="0.5"/>
<path d="M889.105 304.117V571.736H800.307V374.08H739.068L738.303 405.048C737.282 443.279 734.22 474.629 729.117 499.097C724.013 523.565 715.083 542.68 702.324 556.444C689.566 569.952 671.322 576.706 647.592 576.706C635.599 576.706 622.841 575.049 609.317 571.736L613.91 499.479C617.227 500.244 620.544 500.626 623.861 500.626C633.302 500.626 640.447 496.803 645.295 489.156C650.398 481.51 653.843 471.315 655.629 458.571C657.416 445.828 658.691 429.133 659.457 408.488L662.902 304.117H889.105Z" fill="white" fill-opacity="0.5"/>
<path d="M1227.31 304.117L1119.76 505.596C1107 529.554 1091.31 547.778 1072.69 560.267C1054.31 572.756 1034.03 579 1011.83 579C994.733 579 977.381 575.432 959.775 568.295L980.826 503.302C992.053 506.361 1001.24 507.89 1008.38 507.89C1015.02 507.89 1020.63 506.743 1025.22 504.449C1030.07 502.155 1034.67 498.332 1039 492.98L936.428 304.117H1031.73L1084.93 416.899L1140.05 304.117H1227.31Z" fill="white" fill-opacity="0.5"/>
<path d="M1473.05 374.08H1357.84V571.736H1269.04V304.117H1473.05V374.08Z" fill="white" fill-opacity="0.5"/>
<path d="M1525.99 304.117H1614.79V443.279L1707.03 304.117H1792V571.736H1703.2V432.956L1611.34 571.736H1525.99V304.117Z" fill="white" fill-opacity="0.5"/>
</g>
<defs>
<filter id="filter0_b_201_1502" x="510.418" y="53.4185" width="771.164" height="771.164" filterUnits="userSpaceOnUse" color-interpolation-filters="sRGB">
<feFlood flood-opacity="0" result="BackgroundImageFix"/>
<feGaussianBlur in="BackgroundImage" stdDeviation="10"/>
<feComposite in2="SourceAlpha" operator="in" result="effect1_backgroundBlur_201_1502"/>
<feBlend mode="normal" in="SourceGraphic" in2="effect1_backgroundBlur_201_1502" result="shape"/>
</filter>
<filter id="filter1_b_201_1502" x="-20" y="278" width="1832" height="321" filterUnits="userSpaceOnUse" color-interpolation-filters="sRGB">
<feFlood flood-opacity="0" result="BackgroundImageFix"/>
<feGaussianBlur in="BackgroundImage" stdDeviation="10"/>
<feComposite in2="SourceAlpha" operator="in" result="effect1_backgroundBlur_201_1502"/>
<feBlend mode="normal" in="SourceGraphic" in2="effect1_backgroundBlur_201_1502" result="shape"/>
</filter>
</defs>
</svg>
