<svg width="945" height="878" viewBox="0 0 945 878" fill="none" xmlns="http://www.w3.org/2000/svg">
<circle cx="472" cy="439" r="438.5" stroke="#C8D1E8"/>
<g filter="url(#filter0_b_72_639)">
<circle cx="472" cy="439" r="365.582" fill="#EBF0FB"/>
</g>
<g filter="url(#filter1_b_72_639)">
<path d="M134.8 299.4C160.667 299.4 183.2 303.667 202.4 312.2C221.6 320.733 236.4 333 246.8 349C257.2 365 262.4 383.667 262.4 405C262.4 426.333 257.2 445 246.8 461C236.4 477 221.6 489.267 202.4 497.8C183.2 506.333 160.667 510.6 134.8 510.6H94.4V579.4H0V299.4H134.8ZM128.8 437.8C141.6 437.8 151.2 435 157.6 429.4C164 423.533 167.2 415.4 167.2 405C167.2 394.6 164 386.6 157.6 381C151.2 375.133 141.6 372.2 128.8 372.2H94.4V437.8H128.8Z" fill="white" fill-opacity="0.4"/>
<path d="M437.359 509H411.759V579.4H317.359V299.4H452.159C478.026 299.4 500.559 303.667 519.759 312.2C538.959 320.733 553.759 333 564.159 349C574.559 365 579.759 383.667 579.759 405C579.759 425 575.226 442.467 566.159 457.4C557.093 472.333 544.026 484.2 526.959 493L585.759 579.4H484.959L437.359 509ZM484.559 405C484.559 394.6 481.359 386.6 474.959 381C468.559 375.133 458.959 372.2 446.159 372.2H411.759V437.8H446.159C458.959 437.8 468.559 435 474.959 429.4C481.359 423.533 484.559 415.4 484.559 405Z" fill="white" fill-opacity="0.4"/>
<path d="M786.206 585.8C756.073 585.8 729.006 579.533 705.006 567C681.006 554.467 662.206 537.133 648.606 515C635.006 492.6 628.206 467.4 628.206 439.4C628.206 411.4 635.006 386.333 648.606 364.2C662.206 341.8 681.006 324.333 705.006 311.8C729.006 299.267 756.073 293 786.206 293C816.34 293 843.406 299.267 867.406 311.8C891.406 324.333 910.206 341.8 923.806 364.2C937.406 386.333 944.206 411.4 944.206 439.4C944.206 467.4 937.406 492.6 923.806 515C910.206 537.133 891.406 554.467 867.406 567C843.406 579.533 816.34 585.8 786.206 585.8ZM786.206 509.4C797.94 509.4 808.473 506.6 817.806 501C827.406 495.133 835.006 487 840.606 476.6C846.206 465.933 849.006 453.533 849.006 439.4C849.006 425.267 846.206 413 840.606 402.6C835.006 391.933 827.406 383.8 817.806 378.2C808.473 372.333 797.94 369.4 786.206 369.4C774.473 369.4 763.806 372.333 754.206 378.2C744.873 383.8 737.406 391.933 731.806 402.6C726.206 413 723.406 425.267 723.406 439.4C723.406 453.533 726.206 465.933 731.806 476.6C737.406 487 744.873 495.133 754.206 501C763.806 506.6 774.473 509.4 786.206 509.4Z" fill="white" fill-opacity="0.4"/>
</g>
<defs>
<filter id="filter0_b_72_639" x="86.4182" y="53.4185" width="771.164" height="771.164" filterUnits="userSpaceOnUse" color-interpolation-filters="sRGB">
<feFlood flood-opacity="0" result="BackgroundImageFix"/>
<feGaussianBlur in="BackgroundImage" stdDeviation="10"/>
<feComposite in2="SourceAlpha" operator="in" result="effect1_backgroundBlur_72_639"/>
<feBlend mode="normal" in="SourceGraphic" in2="effect1_backgroundBlur_72_639" result="shape"/>
</filter>
<filter id="filter1_b_72_639" x="-20" y="273" width="984.206" height="332.8" filterUnits="userSpaceOnUse" color-interpolation-filters="sRGB">
<feFlood flood-opacity="0" result="BackgroundImageFix"/>
<feGaussianBlur in="BackgroundImage" stdDeviation="10"/>
<feComposite in2="SourceAlpha" operator="in" result="effect1_backgroundBlur_72_639"/>
<feBlend mode="normal" in="SourceGraphic" in2="effect1_backgroundBlur_72_639" result="shape"/>
</filter>
</defs>
</svg>
