<svg width="504" height="157" viewBox="0 0 504 157" fill="none" xmlns="http://www.w3.org/2000/svg">
<g filter="url(#filter0_b_123_3542)">
<path d="M72.0118 3.53087C85.8043 3.53087 97.8195 5.81057 108.057 10.37C118.295 14.9294 126.187 21.4835 131.732 30.0324C137.278 38.5813 140.05 48.555 140.05 59.9535C140.05 71.352 137.278 81.3256 131.732 89.8745C126.187 98.4234 118.295 104.978 108.057 109.537C97.8195 114.096 85.8043 116.376 72.0118 116.376H50.4698V153.136H0.134155V3.53087H72.0118ZM68.8125 77.4786C75.6376 77.4786 80.7565 75.9826 84.1691 72.9905C87.5817 69.8559 89.288 65.5102 89.288 59.9535C89.288 54.3967 87.5817 50.1222 84.1691 47.1301C80.7565 43.9956 75.6376 42.4283 68.8125 42.4283H50.4698V77.4786H68.8125Z" fill="white" fill-opacity="0.4"/>
<path d="M233.342 115.521H219.691V153.136H169.355V3.53087H241.233C255.026 3.53087 267.041 5.81057 277.279 10.37C287.516 14.9294 295.408 21.4835 300.953 30.0324C306.499 38.5813 309.272 48.555 309.272 59.9535C309.272 70.6395 306.854 79.9721 302.02 87.951C297.185 95.93 290.218 102.27 281.118 106.972L312.471 153.136H258.723L233.342 115.521ZM258.509 59.9535C258.509 54.3967 256.803 50.1222 253.39 47.1301C249.978 43.9956 244.859 42.4283 238.034 42.4283H219.691V77.4786H238.034C244.859 77.4786 249.978 75.9826 253.39 72.9905C256.803 69.8559 258.509 65.5102 258.509 59.9535Z" fill="white" fill-opacity="0.4"/>
<path d="M419.353 156.556C403.285 156.556 388.853 153.207 376.055 146.511C363.258 139.814 353.234 130.553 345.982 118.727C338.73 106.759 335.104 93.2941 335.104 78.3335C335.104 63.373 338.73 49.9798 345.982 38.1538C353.234 26.1854 363.258 16.8529 376.055 10.1563C388.853 3.45964 403.285 0.111328 419.353 0.111328C435.42 0.111328 449.853 3.45964 462.65 10.1563C475.447 16.8529 485.471 26.1854 492.723 38.1538C499.975 49.9798 503.601 63.373 503.601 78.3335C503.601 93.2941 499.975 106.759 492.723 118.727C485.471 130.553 475.447 139.814 462.65 146.511C449.853 153.207 435.42 156.556 419.353 156.556ZM419.353 115.735C425.609 115.735 431.225 114.239 436.202 111.247C441.321 108.112 445.374 103.766 448.36 98.2097C451.346 92.5104 452.839 85.885 452.839 78.3335C452.839 70.782 451.346 64.2279 448.36 58.6711C445.374 52.9719 441.321 48.6262 436.202 45.6341C431.225 42.4995 425.609 40.9322 419.353 40.9322C413.096 40.9322 407.408 42.4995 402.29 45.6341C397.313 48.6262 393.332 52.9719 390.346 58.6711C387.36 64.2279 385.867 70.782 385.867 78.3335C385.867 85.885 387.36 92.5104 390.346 98.2097C393.332 103.766 397.313 108.112 402.29 111.247C407.408 114.239 413.096 115.735 419.353 115.735Z" fill="white" fill-opacity="0.4"/>
</g>
<defs>
<filter id="filter0_b_123_3542" x="-10.5325" y="-10.5553" width="524.8" height="177.778" filterUnits="userSpaceOnUse" color-interpolation-filters="sRGB">
<feFlood flood-opacity="0" result="BackgroundImageFix"/>
<feGaussianBlur in="BackgroundImage" stdDeviation="5.33333"/>
<feComposite in2="SourceAlpha" operator="in" result="effect1_backgroundBlur_123_3542"/>
<feBlend mode="normal" in="SourceGraphic" in2="effect1_backgroundBlur_123_3542" result="shape"/>
</filter>
</defs>
</svg>
