<svg width="1792" height="226" viewBox="0 0 1792 226" fill="none" xmlns="http://www.w3.org/2000/svg">
<g filter="url(#filter0_b_173_5351)">
<path d="M179.24 4.23915V189.702H117.817V52.7245H61.4236V189.702H0V4.23915H179.24Z" fill="white" fill-opacity="0.4"/>
<path d="M322.151 193.941C302.206 193.941 284.291 189.791 268.405 181.489C252.52 173.187 240.076 161.706 231.075 147.046C222.073 132.209 217.572 115.517 217.572 96.9707C217.572 78.4244 222.073 61.821 231.075 47.1606C240.076 32.3236 252.52 20.7542 268.405 12.4525C284.291 4.15084 302.206 0 322.151 0C342.096 0 360.011 4.15084 375.897 12.4525C391.782 20.7542 404.226 32.3236 413.227 47.1606C422.229 61.821 426.73 78.4244 426.73 96.9707C426.73 115.517 422.229 132.209 413.227 147.046C404.226 161.706 391.782 173.187 375.897 181.489C360.011 189.791 342.096 193.941 322.151 193.941ZM322.151 143.336C329.917 143.336 336.889 141.482 343.067 137.773C349.421 133.887 354.451 128.499 358.158 121.611C361.865 114.546 363.718 106.332 363.718 96.9707C363.718 87.6092 361.865 79.4842 358.158 72.5955C354.451 65.5303 349.421 60.143 343.067 56.4338C336.889 52.5479 329.917 50.6049 322.151 50.6049C314.385 50.6049 307.325 52.5479 300.97 56.4338C294.793 60.143 289.851 65.5303 286.144 72.5955C282.438 79.4842 280.584 87.6092 280.584 96.9707C280.584 106.332 282.438 114.546 286.144 121.611C289.851 128.499 294.793 133.887 300.97 137.773C307.325 141.482 314.385 143.336 322.151 143.336Z" fill="white" fill-opacity="0.4"/>
<path d="M667.766 141.217V226H610.579V189.702H505.206V226H448.018V141.217H453.313C464.08 141.217 471.67 134.417 476.082 120.816C480.495 107.215 483.319 87.1676 484.555 60.6729L486.673 4.23915H643.409V141.217H667.766ZM538.83 65.9719C538.124 83.8116 536.712 99.0019 534.594 111.543C532.475 123.907 529.21 133.798 524.798 141.217H581.985V52.7245H539.359L538.83 65.9719Z" fill="white" fill-opacity="0.4"/>
<path d="M883.876 4.23915V189.702H822.452V52.7245H766.059V189.702H704.636V4.23915H883.876Z" fill="white" fill-opacity="0.4"/>
<path d="M932.533 4.23915H993.957V100.68L1057.76 4.23915H1116.54V189.702H1055.12V93.5264L991.574 189.702H932.533V4.23915Z" fill="white" fill-opacity="0.4"/>
<path d="M1258.54 193.941C1238.95 193.941 1221.3 189.879 1205.59 181.754C1189.88 173.452 1177.52 161.971 1168.52 147.311C1159.7 132.474 1155.28 115.694 1155.28 96.9707C1155.28 78.2477 1159.7 61.5561 1168.52 46.8957C1177.52 32.0586 1189.88 20.5776 1205.59 12.4525C1221.3 4.15084 1238.95 0 1258.54 0C1276.54 0 1292.6 3.17937 1306.72 9.5381C1320.84 15.8968 1332.49 25.0817 1341.67 37.0926L1302.22 72.3306C1290.75 57.8468 1277.25 50.6049 1261.71 50.6049C1248.65 50.6049 1238.15 54.8441 1230.21 63.3224C1222.27 71.6241 1218.29 82.8402 1218.29 96.9707C1218.29 111.101 1222.27 122.406 1230.21 130.884C1238.15 139.186 1248.65 143.336 1261.71 143.336C1277.25 143.336 1290.75 136.095 1302.22 121.611L1341.67 156.849C1332.49 168.86 1320.84 178.045 1306.72 184.403C1292.6 190.762 1276.54 193.941 1258.54 193.941Z" fill="white" fill-opacity="0.4"/>
<path d="M1505.9 94.3212L1560.71 189.702H1490.28L1454.8 122.671H1437.33V189.702H1374.85V4.23915H1437.33V73.3904H1456.39L1495.84 4.23915H1560.97L1505.9 94.3212Z" fill="white" fill-opacity="0.4"/>
<path d="M1714.96 157.379H1644.53L1632.09 189.702H1568.55L1649.56 4.23915H1710.98L1792 189.702H1727.4L1714.96 157.379ZM1697.75 112.338L1679.74 65.7069L1661.74 112.338H1697.75Z" fill="white" fill-opacity="0.4"/>
</g>
<defs>
<filter id="filter0_b_173_5351" x="-20" y="-20" width="1832" height="266" filterUnits="userSpaceOnUse" color-interpolation-filters="sRGB">
<feFlood flood-opacity="0" result="BackgroundImageFix"/>
<feGaussianBlur in="BackgroundImage" stdDeviation="10"/>
<feComposite in2="SourceAlpha" operator="in" result="effect1_backgroundBlur_173_5351"/>
<feBlend mode="normal" in="SourceGraphic" in2="effect1_backgroundBlur_173_5351" result="shape"/>
</filter>
</defs>
</svg>
