<svg width="48" height="48" viewBox="0 0 48 48" fill="none" xmlns="http://www.w3.org/2000/svg">
<g clip-path="url(#clip0_258_913)">
<path d="M17.7981 10.7097C17.5303 10.9908 17.5411 11.4359 17.8223 11.7037C17.9584 11.8334 18.1329 11.8977 18.3072 11.8977C18.4928 11.8977 18.6782 11.8245 18.8164 11.6795C21.0973 9.28485 20.0969 7.35463 19.2932 5.80373C18.4699 4.21504 17.8751 3.06717 19.8303 1.21345C20.1121 0.946262 20.124 0.501231 19.8568 0.219512C19.5895 -0.0623937 19.1444 -0.0741125 18.8628 0.192981C16.1397 2.77467 17.1959 4.81289 18.0447 6.4507C18.8241 7.95463 19.3872 9.04129 17.7981 10.7097Z" fill="#E1ADAE"/>
<path d="M24.1948 10.9867C23.927 11.2679 23.9378 11.7129 24.2189 11.9807C24.3551 12.1104 24.5295 12.1747 24.7038 12.1747C24.8894 12.1747 25.0749 12.1016 25.2131 11.9565C26.7489 10.3443 26.0561 9.00839 25.5504 8.03292C25.0484 7.06486 24.7719 6.53161 25.8262 5.53176C26.1079 5.26458 26.1197 4.81954 25.8524 4.53782C25.5852 4.25611 25.14 4.24439 24.8585 4.51148C23.0364 6.23948 23.7678 7.65014 24.302 8.68017C24.7769 9.59629 25.0385 10.101 24.1948 10.9867Z" fill="#E1ADAE"/>
<path d="M43.2365 38.0558L43.2056 37.5814C43.1793 37.1933 42.8428 36.8999 42.4565 36.9261C42.0693 36.9514 41.7759 37.287 41.8021 37.6741L41.8331 38.1476C42.0515 41.511 40.8946 44.254 38.6597 45.6733C37.1332 46.6438 35.3175 46.8534 33.7684 46.2724L36.2439 41.7754L39.0039 40.9752C39.3769 40.8671 39.5915 40.4771 39.4833 40.1041C39.3752 39.7312 38.9852 39.5166 38.6122 39.6247L37.2028 40.0334L38.0312 38.5286C38.2184 38.1884 38.0945 37.7609 37.7543 37.5736C37.4143 37.3865 36.9867 37.5104 36.7993 37.8505L34.3687 42.2661L33.9599 40.8561C33.8519 40.4832 33.4621 40.2686 33.0889 40.3766C32.7159 40.4847 32.5013 40.8747 32.6094 41.2476L33.4097 44.0083L32.5374 45.5929C32.4853 45.5534 32.4328 45.5143 32.3824 45.4727C32.373 45.4652 32.3646 45.4577 32.3552 45.4502C32.1387 45.2702 31.9371 45.0705 31.7533 44.8559C30.9096 43.8726 30.424 42.5564 30.4268 41.1409C30.4277 40.2138 30.6377 39.3111 31.0362 38.4608C31.0455 38.4411 31.0549 38.4224 31.0634 38.4036C31.8096 36.8503 33.1896 35.4722 35.0879 34.4354L41.37 31.0027L41.5857 34.3362C41.611 34.7234 41.9447 35.0186 42.3328 34.9923C42.72 34.967 43.0144 34.6323 42.9891 34.2452L42.7566 30.6539C42.7275 30.188 42.5044 29.8065 42.1425 29.6069C41.7816 29.4062 41.3391 29.4194 40.9266 29.6425L37.3661 31.5876C37.0979 30.533 36.7164 29.4981 36.2251 28.5035C34.7279 25.4718 32.2971 22.9727 29.1415 21.1991C30.003 20.6197 30.5721 19.6354 30.5721 18.5208V17.0115C30.5721 16.0666 29.8024 15.2979 28.8555 15.2979H13.7254C12.7795 15.2979 12.0098 16.0665 12.0098 17.0115V18.5208C12.0098 19.6354 12.5779 20.6197 13.4395 21.1991C10.7714 22.699 8.6227 24.7182 7.11707 27.1386C7.11426 27.1424 7.11238 27.147 7.10957 27.1508C6.8377 27.5895 6.58645 28.0404 6.35676 28.5035C4.80895 31.6401 4.34864 35.1817 5.06207 38.4759C5.62832 41.0941 6.8827 43.3393 8.68917 44.9695C10.6382 46.729 13.1338 47.659 15.9069 47.659H26.6739C26.9758 47.659 27.2739 47.6477 27.5683 47.6252C28.0783 47.7977 28.6061 47.8849 29.132 47.8849C29.7142 47.8849 30.2926 47.778 30.8401 47.5587C31.2414 47.3974 31.6164 47.1799 31.9586 46.909C32.1123 47.0136 32.2716 47.1108 32.4351 47.2014C32.4401 47.2043 32.4446 47.2076 32.4496 47.2104C32.4525 47.212 32.4556 47.213 32.4586 47.2146C33.4154 47.7401 34.4837 48.0002 35.5679 48.0002C36.8833 48.0002 38.222 47.6177 39.4135 46.8603C42.0946 45.1577 43.4887 41.9489 43.2365 38.0558ZM13.416 18.5208V17.0115C13.416 16.8447 13.5576 16.704 13.7254 16.704H28.8555C29.0233 16.704 29.1658 16.8447 29.1658 17.0115V18.5208C29.1658 19.5229 28.3512 20.3394 27.3499 20.3394H15.232C14.2307 20.3394 13.416 19.5229 13.416 18.5208ZM15.907 46.2526C10.2127 46.2526 7.28113 42.0811 6.43654 38.1777C5.79154 35.1985 6.16185 31.7431 7.85873 28.615C9.3156 29.7539 11.5571 30.666 13.9505 31.0635C13.9899 31.0701 14.0283 31.0739 14.0668 31.0739C14.4043 31.0739 14.7024 30.8301 14.7596 30.4861C14.8233 30.1027 14.5646 29.7409 14.1811 29.6772C11.9593 29.3078 9.84248 28.4369 8.59467 27.4039C10.1012 25.1775 12.3465 23.1854 15.4561 21.7456H27.125C30.3847 23.2549 32.6946 25.3707 34.2002 27.7274C28.5547 26.0793 25.1142 27.2305 21.0107 29.0135C19.8295 29.5254 18.4936 29.8122 17.0396 29.8656C16.6514 29.8797 16.3477 30.2059 16.3627 30.5939C16.3758 30.9736 16.688 31.2717 17.0649 31.2717C17.0733 31.2717 17.0818 31.2717 17.0911 31.2707C18.7205 31.2117 20.2279 30.8854 21.5714 30.3033C25.8444 28.4454 29.12 27.386 35.1743 29.5197C35.5858 30.4252 35.8924 31.3514 36.1015 32.2795L34.414 33.2009C32.5315 34.2293 31.0897 35.5661 30.1728 37.0904L26.5926 34.5227C26.2701 34.2921 25.8932 34.2377 25.5595 34.3718C25.2257 34.5068 24.9932 34.8068 24.9201 35.1939L23.9732 40.1885C23.5129 42.6268 24.0417 44.7969 25.4282 46.2527L15.907 46.2526ZM30.3161 46.2526C29.5098 46.577 28.5967 46.547 27.767 46.1992C27.4295 46.0567 27.1061 45.8636 26.8089 45.6189C25.472 44.5202 24.9423 42.6359 25.3548 40.4489L26.2033 35.9746L29.5426 38.3698C29.2004 39.2537 29.0214 40.1828 29.0204 41.138C29.0176 42.7795 29.5483 44.3187 30.482 45.5214C30.6011 45.6761 30.7276 45.8251 30.8617 45.9676C30.6901 46.0812 30.5073 46.1768 30.3161 46.2526Z" fill="#E1ADAE"/>
</g>
<defs>
<clipPath id="clip0_258_913">
<rect width="48" height="48" fill="white"/>
</clipPath>
</defs>
</svg>
