<svg width="48" height="48" viewBox="0 0 48 48" fill="none" xmlns="http://www.w3.org/2000/svg">
<g clip-path="url(#clip0_258_318)">
<path d="M47.9999 26.2765V26.1711C48.0012 25.6467 47.8985 25.1273 47.6978 24.6429C47.497 24.1585 47.2022 23.7187 46.8304 23.349L42.1777 18.6955C42.0271 18.55 41.8254 18.4696 41.6161 18.4714C41.4068 18.4732 41.2065 18.5572 41.0585 18.7052C40.9105 18.8532 40.8265 19.0534 40.8247 19.2628C40.8229 19.4721 40.9034 19.6737 41.0488 19.8243L43.6777 22.4532L42.0124 24.1186L40.581 22.6871C40.4693 22.5755 40.3271 22.4995 40.1723 22.4687C40.0174 22.4379 39.8569 22.4537 39.7111 22.5142C39.5652 22.5746 39.4405 22.6769 39.3528 22.8081C39.2651 22.9394 39.2183 23.0937 39.2182 23.2516V31.2349H26.4448V23.2516C26.4448 23.0937 26.398 22.9394 26.3102 22.8081C26.2225 22.6769 26.0978 22.5746 25.952 22.5142C25.8061 22.4537 25.6456 22.4379 25.4908 22.4687C25.336 22.4995 25.1937 22.5755 25.0821 22.6871L23.6507 24.1186L21.9853 22.4532L25.2753 19.1625C25.4973 18.9395 25.7614 18.7628 26.0521 18.6425C26.3429 18.5221 26.6547 18.4607 26.9693 18.4615H38.6937C38.8258 18.4616 38.9578 18.4725 39.0881 18.4943C39.2971 18.5288 39.5112 18.4789 39.6834 18.3555C39.8555 18.2321 39.9717 18.0454 40.0062 17.8364C40.0407 17.6275 39.9908 17.4133 39.8674 17.2412C39.744 17.069 39.5573 16.9529 39.3483 16.9184C39.1319 16.8831 38.913 16.8652 38.6937 16.8649H36.7346C37.2681 16.346 37.6921 15.7253 37.9815 15.0397C38.271 14.3541 38.4201 13.6174 38.4199 12.8732V8.08316C38.4193 7.23028 38.191 6.39303 37.7586 5.65789C37.3262 4.92276 36.7053 4.3164 35.9602 3.90148C36.0014 3.70127 36.023 3.49754 36.0249 3.29314C36.0285 2.84581 35.9381 2.4027 35.7595 1.99254C35.5809 1.58237 35.3181 1.21431 34.9882 0.912196C34.6583 0.610082 34.2686 0.38066 33.8443 0.238796C33.42 0.0969324 32.9707 0.0457927 32.5254 0.0886914C32.0801 0.13159 31.6488 0.26757 31.2594 0.487819C30.87 0.708067 30.5313 1.00767 30.2651 1.36721C29.9989 1.72676 29.8112 2.13821 29.7142 2.57492C29.6173 3.01164 29.6131 3.46385 29.702 3.90228C28.9572 4.31724 28.3366 4.92351 27.9043 5.65849C27.472 6.39346 27.2438 7.2305 27.2432 8.08316V12.8732C27.243 13.6174 27.392 14.3541 27.6815 15.0397C27.971 15.7253 28.395 16.346 28.9285 16.8649H26.9693C26.4449 16.8634 25.9254 16.9659 25.4408 17.1665C24.9563 17.3671 24.5163 17.6619 24.1464 18.0336L18.8327 23.349C18.4609 23.7187 18.166 24.1585 17.9653 24.6429C17.7645 25.1273 17.6618 25.6467 17.6631 26.1711V26.2765C17.662 27.0646 17.8955 27.8352 18.3337 28.4902L21.7602 33.6299H18.7968C18.6994 33.4438 18.5873 33.2657 18.4615 33.0974L15.2681 28.8399C14.8952 28.3453 14.4129 27.9438 13.8589 27.6667C13.3048 27.3897 12.6942 27.2448 12.0748 27.2432H6.05372C5.84304 26.874 5.56062 26.5506 5.22307 26.2922C4.88552 26.0337 4.49968 25.8454 4.08825 25.7383C3.67683 25.6313 3.24814 25.6076 2.82742 25.6687C2.40671 25.7298 2.00248 25.8745 1.63852 26.0942C1.27457 26.3139 0.958256 26.6042 0.708203 26.948C0.45815 27.2919 0.279413 27.6822 0.182516 28.0962C0.0856192 28.5101 0.0725211 28.9393 0.143993 29.3583C0.215465 29.7774 0.370061 30.178 0.598681 30.5364C0.270354 31.257 0.100216 32.0397 0.0997205 32.8316V34.4283C0.101654 35.5536 0.442949 36.6522 1.07902 37.5805C1.71509 38.5088 2.61636 39.2237 3.66509 39.6318C3.42378 40.0214 3.29502 40.4701 3.29307 40.9283C3.29597 41.1606 3.33199 41.3912 3.40004 41.6133H0.898057C0.686325 41.6133 0.483265 41.6974 0.333548 41.8471C0.183831 41.9968 0.0997205 42.1999 0.0997205 42.4116V47.2017C0.0997205 47.4134 0.183831 47.6164 0.333548 47.7662C0.483265 47.9159 0.686325 48 0.898057 48H47.2016C47.4133 48 47.6164 47.9159 47.7661 47.7662C47.9158 47.6164 47.9999 47.4134 47.9999 47.2017V32.0333C47.9999 31.8215 47.9158 31.6185 47.7661 31.4688C47.6164 31.319 47.4133 31.2349 47.2016 31.2349H45.5003L47.3293 28.491C47.7675 27.8357 48.0009 27.0648 47.9999 26.2765ZM31.2348 3.29314C31.2348 2.86968 31.4031 2.46356 31.7025 2.16413C32.0019 1.86469 32.4081 1.69647 32.8315 1.69647C33.255 1.69647 33.6611 1.86469 33.9605 2.16413C34.26 2.46356 34.4282 2.86968 34.4282 3.29314C34.4282 3.31709 34.4178 3.33945 34.417 3.3634C34.157 3.31853 33.8937 3.29504 33.6299 3.29314H32.0332C31.7677 3.29484 31.5028 3.31861 31.2412 3.3642C31.2396 3.34025 31.2348 3.31709 31.2348 3.29314ZM28.8398 8.08316C28.8398 7.23624 29.1763 6.424 29.7752 5.82513C30.374 5.22626 31.1863 4.88982 32.0332 4.88982H33.6299C34.4768 4.88982 35.289 5.22626 35.8879 5.82513C36.4868 6.424 36.8232 7.23624 36.8232 8.08316V9.62236C36.3799 9.52401 35.974 9.30071 35.6536 8.9789L34.9926 8.31708C34.8429 8.16741 34.6399 8.08333 34.4282 8.08333C34.2165 8.08333 34.0135 8.16741 33.8638 8.31708C33.4328 8.75051 32.9201 9.09413 32.3553 9.32805C31.7906 9.56197 31.1851 9.68154 30.5738 9.67984H28.8398V8.08316ZM28.8398 12.8732V11.2765H30.5738C31.9561 11.2805 33.3001 10.8225 34.3923 9.97522L34.5248 10.1077C35.1461 10.7244 35.9545 11.1175 36.8232 11.2254V12.8732C36.8232 13.9318 36.4027 14.9471 35.6541 15.6957C34.9055 16.4443 33.8902 16.8649 32.8315 16.8649C31.7729 16.8649 30.7576 16.4443 30.009 15.6957C29.2604 14.9471 28.8398 13.9318 28.8398 12.8732ZM42.2383 26.6022L40.8149 29.4498V25.1787L42.2383 26.6022ZM36.0249 37.6216H40.0166V41.6133H25.977L26.2109 41.3794C26.3563 41.2288 26.4368 41.0272 26.435 40.8178C26.4332 40.6085 26.3492 40.4083 26.2012 40.2603C26.0532 40.1122 25.8529 40.0283 25.6436 40.0265C25.4343 40.0246 25.2326 40.1051 25.0821 40.2505L23.5245 41.8081L20.6417 43.97L5.67211 41.8312C5.44314 41.7993 5.23488 41.6815 5.08948 41.5017C4.94407 41.322 4.87238 41.0937 4.88892 40.8631C4.90546 40.6325 5.00898 40.4168 5.17855 40.2596C5.34811 40.1025 5.57105 40.0156 5.80224 40.0166H19.2598C19.3724 40.0166 19.4838 39.9928 19.5866 39.9467C19.6894 39.9006 19.7812 39.8333 19.8562 39.7492L23.2746 35.9028L24.1839 37.2664C24.2569 37.3757 24.3556 37.4653 24.4715 37.5273C24.5874 37.5892 24.7168 37.6216 24.8482 37.6216H29.6382C29.8499 37.6216 30.053 37.5375 30.2027 37.3878C30.3524 37.2381 30.4365 37.035 30.4365 36.8233C30.4365 35.9764 30.1001 35.1641 29.5012 34.5652C28.9023 33.9664 28.0901 33.6299 27.2432 33.6299H26.9382L26.539 32.8316H39.124L38.7248 33.6299H38.4199C37.573 33.6299 36.7607 33.9664 36.1618 34.5652C35.563 35.1641 35.2265 35.9764 35.2265 36.8233C35.2265 37.035 35.3106 37.2381 35.4604 37.3878C35.6101 37.5375 35.8131 37.6216 36.0249 37.6216ZM24.8482 29.4498L23.4247 26.6046L24.2151 25.8142L24.8482 25.1787V29.4498ZM19.2598 26.2765V26.1711C19.2614 25.5362 19.5136 24.9277 19.9615 24.4778L20.8565 23.5829L22.5218 25.2474L21.8887 25.8805C21.7702 25.9989 21.6919 26.1516 21.665 26.3169C21.6381 26.4822 21.6638 26.6519 21.7386 26.8018L25.7303 34.7851C25.7966 34.9178 25.8986 35.0294 26.0248 35.1074C26.151 35.1854 26.2965 35.2267 26.4448 35.2266H27.2432C27.5233 35.2268 27.7985 35.3006 28.041 35.4407C28.2836 35.5809 28.485 35.7823 28.6251 36.0249H25.2721L19.659 27.6049C19.3971 27.2115 19.2581 26.7491 19.2598 26.2765ZM21.7402 35.2266L18.9013 38.42H18.4407C18.9691 37.7331 19.2569 36.8915 19.2598 36.0249V35.4925C19.2598 35.4038 19.2438 35.3152 19.2382 35.2266H21.7402ZM17.6631 35.4925V36.0249C17.6631 36.6601 17.4108 37.2693 16.9616 37.7185C16.5125 38.1676 15.9033 38.42 15.2681 38.42H6.48641V35.5571L9.44585 32.5977C9.59558 32.448 9.67972 32.245 9.67976 32.0333V31.2349H11.088L12.5163 31.9534C12.6274 32.0073 12.7496 32.0346 12.8731 32.0333H15.6673L17.1841 34.0555C17.4941 34.4705 17.6621 34.9744 17.6631 35.4925ZM1.69639 28.8399C1.69398 28.5575 1.76714 28.2796 1.90829 28.0351C2.04945 27.7905 2.25346 27.5881 2.49917 27.4489C2.74488 27.3097 3.02335 27.2388 3.3057 27.2435C3.58806 27.2482 3.86402 27.3283 4.10498 27.4756C3.19485 27.7452 2.3684 28.2422 1.70358 28.9197C1.70198 28.8934 1.69639 28.8671 1.69639 28.8399ZM1.69639 34.4283V32.8316C1.69766 31.7733 2.11862 30.7588 2.86693 30.0105C3.61524 29.2621 4.62981 28.8412 5.68808 28.8399H12.0748C12.4464 28.841 12.8127 28.928 13.1451 29.0942C13.4775 29.2604 13.767 29.5012 13.9908 29.7979L14.4698 30.4366H13.0615L11.6333 29.7181C11.5221 29.6642 11.4 29.6369 11.2764 29.6383H8.88142C8.66969 29.6383 8.46663 29.7224 8.31692 29.8721C8.1672 30.0218 8.08309 30.2249 8.08309 30.4366V31.7028L5.12365 34.6622C4.97393 34.8119 4.88979 35.0149 4.88974 35.2266V38.3401C3.98875 38.1548 3.17918 37.6646 2.59749 36.952C2.0158 36.2394 1.69756 35.3481 1.69639 34.4283ZM1.69639 43.21H4.78596C4.99537 43.308 5.21768 43.3758 5.44618 43.4112L20.7431 45.597C20.7807 45.6024 20.8185 45.6051 20.8565 45.605C21.0292 45.605 21.1973 45.549 21.3355 45.4453L24.3157 43.21H40.0166V46.4033H1.69639V43.21ZM46.4032 32.8316V46.4033H41.6132V37.0676L44.4353 32.8316H46.4032ZM46.4032 26.2765C46.4049 26.7491 46.266 27.2115 46.0041 27.6049L40.3878 36.0249H37.0348C37.1751 35.7819 37.377 35.5801 37.6202 35.4399C37.8634 35.2998 38.1392 35.2262 38.4199 35.2266H39.2182C39.3673 35.2274 39.5135 35.1865 39.6405 35.1085C39.7675 35.0305 39.8701 34.9184 39.9367 34.7851L43.9284 26.8018C44.0032 26.6519 44.029 26.4822 44.002 26.3169C43.9751 26.1516 43.8968 25.9989 43.7783 25.8805L43.1452 25.2474L44.8066 23.5829L45.7015 24.4778C46.1494 24.9277 46.4016 25.5362 46.4032 26.1711V26.2765Z" fill="#E1ADAE"/>
</g>
<defs>
<clipPath id="clip0_258_318">
<rect width="48" height="48" fill="white"/>
</clipPath>
</defs>
</svg>
