<svg width="48" height="48" viewBox="0 0 48 48" fill="none" xmlns="http://www.w3.org/2000/svg">
<path d="M18.5591 18.6437C18.1548 18.2012 17.5791 17.9419 16.9797 17.9327C15.7742 17.9172 14.7769 18.8783 14.7565 20.0829C14.7499 20.4712 15.0594 20.7913 15.4476 20.7978C15.4517 20.7979 15.4557 20.7979 15.4598 20.7979C15.8426 20.7979 16.1561 20.4909 16.1625 20.1066C16.1697 19.6764 16.5234 19.3312 16.9577 19.3387C17.1746 19.3421 17.3745 19.4321 17.5209 19.5922C17.7828 19.879 18.2276 19.8991 18.5142 19.6371C18.8009 19.3753 18.8211 18.9304 18.5591 18.6437Z" fill="#E1ADAE"/>
<path d="M22.2999 20.9351C22.0844 20.4285 21.6649 20.0286 21.1486 19.838C20.1104 19.4551 18.9531 19.9873 18.5684 21.0242C18.4333 21.3884 18.619 21.793 18.9831 21.9281C19.0637 21.958 19.1463 21.9722 19.2275 21.9722C19.5131 21.9722 19.7816 21.7968 19.8868 21.5133C20.0023 21.2019 20.3504 21.0425 20.6616 21.1574C20.8181 21.2151 20.9404 21.3317 21.0057 21.4854C21.1577 21.8427 21.5707 22.0094 21.9279 21.8573C22.2854 21.7053 22.4518 21.2925 22.2999 20.9351Z" fill="#E1ADAE"/>
<path d="M26.8317 14.7082C26.5568 14.4338 26.1116 14.4343 25.8374 14.7092L25.1746 15.3733C24.9003 15.6482 24.9007 16.0934 25.1756 16.3676C25.3128 16.5046 25.4925 16.573 25.6722 16.573C25.8524 16.573 26.0326 16.5042 26.1699 16.3666L26.8327 15.7025C27.107 15.4276 27.1066 14.9824 26.8317 14.7082Z" fill="#E1ADAE"/>
<path d="M22.4572 23.7854H21.5201C21.1317 23.7854 20.817 24.1002 20.817 24.4885C20.817 24.8768 21.1317 25.1916 21.5201 25.1916H22.4572C22.8456 25.1916 23.1603 24.8768 23.1603 24.4885C23.1603 24.1002 22.8456 23.7854 22.4572 23.7854Z" fill="#E1ADAE"/>
<path d="M29.6426 23.7854H28.7054C28.317 23.7854 28.0023 24.1002 28.0023 24.4885C28.0023 24.8768 28.3171 25.1916 28.7054 25.1916H29.6426C30.031 25.1916 30.3458 24.8768 30.3458 24.4885C30.3458 24.1002 30.031 23.7854 29.6426 23.7854Z" fill="#E1ADAE"/>
<path d="M47.9774 36.463L47.7943 35.4747C47.6776 34.8432 47.1262 34.3849 46.4831 34.3849C46.4024 34.3849 46.321 34.3923 46.241 34.407L42.5135 35.0917L44.2015 33.9633C44.6439 33.6676 44.8675 33.1387 44.7711 32.6139C44.7443 32.4702 44.694 32.3323 44.6213 32.2032L44.1104 31.2986C43.9354 30.9879 43.6369 30.7569 43.2924 30.6654C43.1236 30.6204 42.9472 30.6104 42.7751 30.6328C42.963 29.5954 43.06 28.5358 43.06 27.4572C43.06 26.9787 42.7721 26.5668 42.3611 26.3839C42.8982 25.1063 42.9349 23.6436 42.4039 22.3041C42.3609 22.1952 42.2969 22.098 42.2141 22.0151C42.132 21.933 42.0359 21.8695 41.9269 21.8257C41.2906 21.5723 40.6219 21.4439 39.9393 21.4439C39.852 21.4439 39.7651 21.4461 39.6785 21.4502C39.5811 19.4878 37.9569 17.9211 35.9741 17.9211C35.713 17.9211 35.4584 17.9489 35.2125 18.0006C35.3833 16.9788 35.2827 15.9097 34.8847 14.906C34.842 14.7957 34.7777 14.6967 34.6905 14.608C34.6065 14.524 34.5079 14.4592 34.3986 14.4158C33.7132 14.1428 32.9928 14.0045 32.2575 14.0045C31.1497 14.0045 30.0901 14.3159 29.1753 14.8949C28.841 13.9267 28.2899 13.0178 27.5198 12.246C27.2943 12.0201 26.9943 11.8956 26.6751 11.8956C26.3558 11.8956 26.0558 12.0201 25.83 12.2462L22.4257 15.6583C21.7957 15.0964 20.9666 14.7605 20.0668 14.7605C19.8626 14.7605 19.6565 14.7784 19.4541 14.8136C18.7207 14.9413 18.0458 15.3003 17.5284 15.826C16.8649 15.5059 16.1049 15.3966 15.3745 15.5238C15.2138 15.5517 15.0579 15.5911 14.9066 15.6391V13.0098C14.9066 11.1991 13.4513 9.72338 11.6511 9.69226V8.20108C12.2022 8.10573 12.6229 7.62545 12.6229 7.04758V3.66894C12.6229 3.02282 12.0973 2.49707 11.451 2.49707H5.73316C5.08695 2.49707 4.56129 3.02282 4.56129 3.66894V7.04758C4.56129 7.62545 4.98204 8.10573 5.5331 8.20108V9.69207C3.73292 9.7231 2.27774 11.1988 2.27774 13.0096V33.531C0.873934 34.7988 0 36.5677 0 38.5239C0 42.372 3.37733 45.5026 7.52875 45.5026L35.6712 45.4944C36.6317 45.494 37.5351 45.0719 38.1495 44.3363C38.748 43.6202 39.0024 42.6901 38.8558 41.7729L44.4768 42.783C44.5546 42.797 44.6343 42.8041 44.7133 42.8041C44.9936 42.8041 45.2622 42.7181 45.4897 42.5555C45.7821 42.3466 45.98 42.0233 46.0328 41.6687L46.185 40.6471C46.2069 40.5007 46.2045 40.3533 46.1778 40.2089C46.081 39.6865 45.6833 39.272 45.1644 39.1532L43.1831 38.6987L46.907 38.0146C47.2582 37.9501 47.5628 37.7529 47.765 37.4594C47.9667 37.1666 48.0421 36.8128 47.9774 36.463ZM39.9393 22.8499C40.3626 22.8499 40.7787 22.917 41.1789 23.049C41.5364 24.1379 41.4026 25.3123 40.8427 26.2824H38.9486L39.553 25.6766C39.8273 25.4017 39.8267 24.9565 39.5517 24.6822C39.2768 24.4079 38.8316 24.4083 38.5574 24.6833L38.2377 25.0038C38.0878 24.5102 37.826 24.0683 37.4819 23.7058C38.1798 23.1516 39.0365 22.8499 39.9393 22.8499ZM35.9741 19.3272C37.2439 19.3272 38.2769 20.3633 38.2769 21.6369C38.2769 21.6605 38.2758 21.6839 38.2752 21.7073C37.534 21.9483 36.8508 22.351 36.2682 22.8978C36.1755 22.8627 36.0814 22.83 35.9849 22.8033C35.7792 21.6922 35.0304 20.8016 34.0412 20.3856C34.4518 19.7496 35.1641 19.3272 35.9741 19.3272ZM32.2574 15.4105C32.7349 15.4105 33.2042 15.4878 33.6565 15.6406C34.02 16.7213 33.9457 17.8822 33.4826 18.8878C33.1019 19.2346 32.793 19.6592 32.5818 20.1366C32.4563 20.1439 32.3308 20.1578 32.2067 20.1794C31.6558 20.2753 31.142 20.5143 30.7121 20.861C30.5655 20.5929 30.3859 20.3455 30.1803 20.1227L31.7927 18.5067C32.067 18.2318 32.0664 17.7866 31.7914 17.5124C31.5166 17.2381 31.0713 17.2385 30.797 17.5135L29.0347 19.2798C28.6994 19.1213 28.337 19.0111 27.956 18.9595C28.1206 18.1204 28.5277 17.3298 29.1575 16.6985C29.9862 15.8679 31.0871 15.4105 32.2574 15.4105ZM26.8696 26.2824H26.2601C26.1575 26.0212 25.9037 25.836 25.606 25.836C25.3084 25.836 25.0546 26.0213 24.9519 26.2824H24.2349C24.4014 26.0112 24.3678 25.652 24.1327 25.4174C23.8579 25.1431 23.4127 25.1436 23.1383 25.4185L22.4756 26.0826C22.4161 26.1422 22.3704 26.2102 22.3367 26.2824H20.9056C20.3696 25.4599 20.0425 24.4891 20.0038 23.4448H31.1587C31.12 24.4891 30.7929 25.4599 30.2569 26.2824H28.7677C28.7342 26.2102 28.6882 26.1421 28.6288 26.0825L27.9662 25.4184C27.6918 25.1436 27.2467 25.1428 26.9719 25.4173C26.7366 25.6518 26.703 26.0112 26.8696 26.2824ZM25.2343 22.0385C25.4993 21.0563 26.3953 20.3315 27.4571 20.3315C28.519 20.3315 29.415 21.0564 29.68 22.0385H25.2343ZM26.6721 13.3928C27.341 14.1156 27.7832 14.9738 28 15.8759C27.641 16.266 27.3428 16.697 27.1076 17.1558C27.0008 17.0903 26.8757 17.052 26.7413 17.052H25.8044C25.4161 17.052 25.1013 17.3668 25.1013 17.7551C25.1013 18.1434 25.4161 18.4582 25.8044 18.4582H26.6263C26.5801 18.6524 26.5442 18.8489 26.5181 19.0469C26.2389 19.1202 25.9723 19.2246 25.7227 19.3576C25.2541 18.5488 24.478 17.9461 23.5585 17.7043C23.5583 17.7023 23.5579 17.7003 23.5575 17.6984C23.5024 17.3802 23.4062 17.0783 23.275 16.7977L26.6721 13.3928ZM13.9618 19.7374C13.9205 19.6221 13.8893 19.5038 13.8688 19.3851C13.6671 18.2225 14.4508 17.1118 15.6155 16.909C15.7383 16.8876 15.8631 16.8768 15.9863 16.8768C16.4495 16.8768 16.8922 17.0245 17.2663 17.304C17.4211 17.4197 17.6169 17.4664 17.8074 17.4334C17.9979 17.4003 18.1663 17.2904 18.2732 17.1292C18.6033 16.6313 19.1083 16.3009 19.6952 16.1988C19.8183 16.1773 19.9434 16.1665 20.0668 16.1665C21.1086 16.1665 21.9939 16.9118 22.1719 17.9388C22.1923 18.0565 22.2028 18.1791 22.203 18.3033C22.2037 18.6673 22.482 18.9707 22.8446 19.0025C23.6307 19.0716 24.2999 19.5663 24.6101 20.2633C24.1948 20.7617 23.9069 21.3704 23.7976 22.0385H19.7877C19.2892 22.0385 18.8614 22.3463 18.683 22.7819C17.8008 22.181 16.7611 21.8573 15.6716 21.8573C14.989 21.8573 14.3203 21.9858 13.6835 22.2393C13.5755 22.2825 13.4789 22.3461 13.3966 22.4284C13.3132 22.5119 13.2492 22.6096 13.2072 22.7169C13.0454 23.125 12.9374 23.5445 12.8791 23.9667C12.6271 23.6798 12.4496 23.3231 12.3802 22.9228C12.2148 21.9688 12.7142 21.0189 13.5943 20.6128C13.925 20.4601 14.0845 20.0803 13.9618 19.7374ZM16.0578 26.0901L16.2496 26.2824H14.5609C14.1818 25.4028 14.1242 24.4017 14.432 23.4627C14.8327 23.3304 15.2487 23.2634 15.6716 23.2634C16.731 23.2634 17.7277 23.6775 18.4778 24.4293C18.5775 24.5293 18.6704 24.6342 18.7577 24.7424C18.8769 25.2819 19.06 25.7972 19.2958 26.2823H18.2362L17.0533 25.0967C16.7789 24.8219 16.3337 24.8212 16.059 25.0956C15.7841 25.37 15.7835 25.8152 16.0578 26.0901ZM13.0634 26.2824H10.5569C10.6686 25.6013 11.0783 25.0207 11.647 24.6783C11.9836 25.1293 12.423 25.494 12.9293 25.7411C12.9651 25.9235 13.0091 26.1043 13.0634 26.2824ZM5.96754 3.90331H11.2167V6.81321H5.96754V3.90331ZM10.2449 8.21945V9.69066H6.93944V8.21945H10.2449ZM3.68408 15.8611H8.24997C8.63837 15.8611 8.95309 15.5463 8.95309 15.158C8.95309 14.7696 8.63837 14.4548 8.24997 14.4548H3.68408V13.0096C3.68408 11.9549 4.53945 11.0969 5.59085 11.0969H11.5935C12.645 11.0969 13.5003 11.9549 13.5003 13.0096V14.4548H12.1875C11.799 14.4548 11.4843 14.7696 11.4843 15.158C11.4843 15.5463 11.799 15.8611 12.1875 15.8611H13.5003V16.4852C12.6947 17.275 12.2763 18.4333 12.483 19.6247C12.4833 19.6271 12.4838 19.6295 12.4842 19.632C11.3562 20.4059 10.7551 21.7817 10.9945 23.1629C11.0085 23.2436 11.026 23.3229 11.0451 23.4014C10.6938 23.595 10.3784 23.8452 10.108 24.1379H3.68408V15.8611ZM3.68399 25.544H9.29153C9.2169 25.781 9.16421 26.0277 9.13853 26.2824H9.02003C8.37287 26.2824 7.84628 26.8093 7.84628 27.4571C7.84628 28.5735 7.95006 29.6695 8.15116 30.7419C7.94912 30.7256 7.74194 30.7169 7.53119 30.7169C6.68088 30.7169 5.8707 30.8518 5.25017 31.0969C4.30095 31.4717 4.03855 32.0039 3.98127 32.3722C3.88067 32.4222 3.78186 32.4751 3.68399 32.5292V25.544ZM12.5875 34.1816C12.8407 34.3842 12.9955 34.5564 13.0852 34.6806C13.0768 34.6807 13.0679 34.6808 13.059 34.6808C12.6611 34.6808 11.946 34.5204 11.133 34.0703C10.8302 33.9026 10.5513 33.7132 10.3263 33.5226C10.064 33.3003 9.67937 33.3005 9.41724 33.5227C9.19224 33.7134 8.91343 33.9028 8.611 34.0702C7.79772 34.5204 7.08269 34.6808 6.68482 34.6808C6.67572 34.6808 6.66701 34.6807 6.65847 34.6806C6.7481 34.5564 6.90288 34.3841 7.15619 34.1814C7.37753 34.0042 7.47081 33.7114 7.39272 33.4388C7.31453 33.1662 7.08035 32.9672 6.79863 32.9342C6.11248 32.8538 5.6786 32.6791 5.47545 32.552C5.72998 32.3934 6.37347 32.1232 7.53147 32.1232C8.49053 32.1232 9.19149 32.3248 9.52768 32.5136C9.74152 32.6336 10.0022 32.6336 10.2161 32.5137C10.5525 32.3249 11.2535 32.1233 12.2126 32.1233C13.3707 32.1233 14.0141 32.3936 14.2685 32.5521C14.0654 32.6793 13.6315 32.8538 12.9451 32.9343C12.6634 32.9674 12.4291 33.1663 12.351 33.439C12.2727 33.7117 12.366 34.0045 12.5875 34.1816ZM11.181 42.7396L11.2051 42.87C11.2888 43.3215 11.4651 43.736 11.7115 44.0964H7.52875C4.15283 44.0964 1.40624 41.5966 1.40624 38.5239C1.40624 36.424 2.68949 34.5925 4.57911 33.6428C4.79614 33.8048 5.0667 33.9445 5.3877 34.0572C5.26039 34.2746 5.1717 34.5084 5.15079 34.7523C5.12304 35.0765 5.22223 35.3843 5.43035 35.6193C5.70532 35.9298 6.12738 36.0872 6.68482 36.0872C7.42769 36.0872 8.4024 35.7931 9.29209 35.3005C9.49693 35.1872 9.69062 35.0675 9.87193 34.9424C10.0531 35.0674 10.2468 35.1871 10.4518 35.3006C11.3415 35.7931 12.3162 36.0871 13.059 36.0872C13.6163 36.0872 14.0384 35.9298 14.3133 35.6194C14.5215 35.3844 14.6208 35.0766 14.593 34.7523C14.5721 34.5084 14.4834 34.2746 14.3561 34.0572C14.6771 33.9444 14.9477 33.8047 15.1648 33.6428C16.6633 34.396 17.78 35.7039 18.1781 37.2604L13.2052 39.1496C11.7495 39.7027 10.8982 41.2125 11.181 42.7396ZM37.0703 43.4347C36.7236 43.8498 36.2133 44.088 35.6705 44.0881L34.9325 44.0884L34.4715 41.5989C34.4007 41.2171 34.034 40.9646 33.652 41.0356C33.2702 41.1062 33.018 41.4731 33.0886 41.8549L33.5025 44.0889L31.0832 44.0898L30.7714 42.4064C30.7007 42.0245 30.3339 41.7723 29.952 41.843C29.5702 41.9137 29.3179 42.2806 29.3886 42.6624L29.653 44.0904L24.0257 44.0925L23.6021 41.8062C23.5313 41.4243 23.1647 41.1722 22.7827 41.2429C22.4008 41.3136 22.1486 41.6806 22.2193 42.0624L22.5955 44.0931L14.3789 44.0963C14.3791 44.0963 14.3788 44.0963 14.3789 44.0963C13.5003 44.0963 12.7468 43.4729 12.5876 42.6136L12.5634 42.4832C12.4045 41.6249 12.8843 40.7758 13.7043 40.4642L16.4678 39.4143L16.6737 40.5255C16.7364 40.864 17.0319 41.1006 17.3641 41.1006C17.4067 41.1006 17.4498 41.0967 17.4931 41.0887C17.8749 41.0179 18.1271 40.6511 18.0563 40.2692L17.8038 38.9068L21.9058 37.3485C22.2688 37.2106 22.4513 36.8045 22.3134 36.4415C22.1755 36.0784 21.7689 35.8959 21.4065 36.0338L19.4977 36.759C18.9622 34.8631 17.5865 33.2794 15.7622 32.3721C15.7049 32.0038 15.4425 31.4716 14.4934 31.0968C13.8729 30.8517 13.0627 30.7168 12.2124 30.7168C11.6272 30.7168 11.0684 30.7814 10.5751 30.8991V30.4744C10.5751 30.0861 10.2603 29.7713 9.87193 29.7713C9.70777 29.7713 9.55721 29.8279 9.43749 29.9222C9.32659 29.1888 9.26453 28.4439 9.25421 27.6884H32.1561C32.5445 27.6884 32.8592 27.3736 32.8592 26.9853C32.8592 26.597 32.5445 26.2822 32.1561 26.2822H31.8684C32.3162 25.3601 32.5691 24.3262 32.5691 23.2335C32.5691 22.6132 32.0944 22.1022 31.4896 22.0441C31.7529 21.7958 32.0816 21.6284 32.448 21.5645C32.5553 21.5459 32.6642 21.5364 32.7719 21.5364C33.6796 21.5364 34.451 22.1858 34.606 23.0804C34.6239 23.1839 34.6331 23.2908 34.6332 23.3982C34.6336 23.7623 34.9121 24.0659 35.2748 24.0977C36.1151 24.1715 36.8025 24.8035 36.9466 25.6345C36.9849 25.8554 36.9801 26.0735 36.9418 26.2822H36.1874C35.799 26.2822 35.4842 26.597 35.4842 26.9853C35.4842 27.3736 35.799 27.6884 36.1874 27.6884H41.6522C41.6348 28.9782 41.4687 30.2381 41.1588 31.4605L37.3483 33.71C37.1152 32.8988 36.5735 32.2108 35.8272 31.7931C34.9901 31.3246 33.9953 31.2514 33.0981 31.5922L25.2502 34.5736C24.8872 34.7115 24.7047 35.1176 24.8426 35.4806C24.9805 35.8437 25.387 36.026 25.7496 35.8882L26.7834 35.4955L27.1044 37.2287C27.1671 37.5672 27.4626 37.8039 27.795 37.8039C27.8375 37.8039 27.8806 37.8 27.9239 37.792C28.3056 37.7213 28.5579 37.3545 28.4872 36.9726L28.1196 34.988L33.5973 32.907C34.1049 32.7142 34.6672 32.7556 35.1404 33.0204C35.6127 33.2847 35.9399 33.7403 36.0381 34.2702L37.4606 41.9497C37.5586 42.4793 37.4164 43.0205 37.0703 43.4347ZM39.579 37.931C39.251 37.9913 39.0105 38.2737 39.0031 38.6072C38.9958 38.9406 39.2238 39.2333 39.5488 39.3078L44.7838 40.5086L44.653 41.386L38.5843 40.2954L37.6356 35.1735L42.9216 32.0531L43.3619 32.8328L38.9034 35.8132C38.6262 35.9986 38.5172 36.3531 38.6427 36.6621C38.768 36.9711 39.0933 37.1496 39.4213 37.0894L46.4249 35.8028L46.5809 36.6447L39.579 37.931Z" fill="#E1ADAE"/>
</svg>
