<svg width="48" height="48" viewBox="0 0 48 48" fill="none" xmlns="http://www.w3.org/2000/svg">
<g clip-path="url(#clip0_258_274)">
<path fill-rule="evenodd" clip-rule="evenodd" d="M5.04503 36.0855C5.28784 36.4254 5.20911 36.8978 4.86917 37.1407C4.49675 37.4067 4.10006 37.691 3.72484 37.9599C3.4857 38.1313 3.25528 38.2964 3.04543 38.4466C2.76855 38.6447 2.43521 38.7624 2.08338 38.7718C1.48392 38.7878 0.711406 38.786 0.0574861 38.7788C-0.0930962 38.7772 -0.209829 38.8978 -0.209829 39.0377V44.6618C-0.209829 44.8011 -0.0969431 44.914 0.0423092 44.914H2.4028L2.44338 44.9184C5.72082 45.2731 12.3672 45.9861 12.9517 46.0251C13.0457 46.0313 13.1634 46.0432 13.302 46.0572C14.4064 46.1685 16.8355 46.4135 19.1703 45.0208C21.4631 43.6532 23.6795 42.2716 24.4987 41.7534C24.8517 41.53 25.319 41.6351 25.5423 41.9882C25.7657 42.3412 25.6606 42.8085 25.3075 43.0318C24.4794 43.5557 22.2515 44.9444 19.9453 46.32C17.1385 47.9942 14.1835 47.6755 13.1304 47.5619C13.0125 47.5492 12.9184 47.539 12.851 47.5345C12.2278 47.493 5.58063 46.7796 2.32116 46.4268H0.0423092C-0.932454 46.4268 -1.72266 45.6366 -1.72266 44.6618V39.0377C-1.72266 38.0451 -0.907702 37.2553 0.074024 37.2661C0.723053 37.2732 1.47273 37.2747 2.04305 37.2595C2.08161 37.2585 2.12434 37.2455 2.16505 37.2163C2.37291 37.0676 2.60257 36.903 2.84145 36.7318C3.21777 36.4621 3.61696 36.176 3.98985 35.9096C4.32979 35.6668 4.80221 35.7455 5.04503 36.0855Z" fill="#E1ADAE"/>
<path fill-rule="evenodd" clip-rule="evenodd" d="M20.9764 32.9222L14.3754 36.6143L13.6369 35.294L20.2566 31.5915L20.2658 31.5867C21.5418 30.9183 22.7731 31.1001 23.4164 31.9617C24.0358 32.7913 23.8649 34.0179 22.8101 34.6264C22.3872 34.8704 21.6357 35.3169 20.9855 35.705C20.6614 35.8985 20.364 36.0765 20.1476 36.2063C20.0394 36.2711 19.9515 36.3239 19.8906 36.3604L19.7962 36.4171C19.7961 36.4171 19.7961 36.4172 19.4065 35.7688C19.0169 35.1204 19.0169 35.1204 19.0169 35.1204L19.112 35.0633C19.1731 35.0266 19.2613 34.9737 19.3698 34.9087C19.5867 34.7786 19.885 34.6001 20.2101 34.406C20.8585 34.0189 21.6198 33.5666 22.0541 33.3161C22.2073 33.2277 22.2469 33.134 22.2578 33.0795C22.2707 33.0151 22.2571 32.9377 22.2042 32.8668C22.1418 32.7832 21.8119 32.4878 20.9764 32.9222ZM18.3685 35.51L19.0169 35.1204L19.4065 35.7688L19.7962 36.4171L19.1477 36.8067L18.3685 35.51Z" fill="#E1ADAE"/>
<path fill-rule="evenodd" clip-rule="evenodd" d="M25.1907 33.9554C25.1767 33.9394 24.7682 33.5834 23.4961 34.2666L22.8297 34.6245L22.1139 33.2917L22.7803 32.9338C24.2313 32.1546 25.5877 32.1101 26.3302 32.9603C27.0908 33.8314 26.707 35.074 25.735 35.6348C25.3083 35.881 24.8559 36.1448 24.5099 36.3474C24.337 36.4486 24.1908 36.5344 24.0878 36.5949C24.0364 36.6251 23.9957 36.649 23.968 36.6653L23.9255 36.6903L23.2738 37.0742L22.5059 35.7708L23.1577 35.3868L23.5199 36.0018C23.1577 35.3868 23.1576 35.3868 23.1577 35.3868L23.2008 35.3614C23.2288 35.3449 23.2698 35.3209 23.3215 35.2905C23.425 35.2297 23.5719 35.1435 23.7457 35.0418C24.093 34.8385 24.5484 34.5728 24.979 34.3244C25.145 34.2286 25.197 34.121 25.2104 34.0647C25.2237 34.0086 25.2092 33.9767 25.1907 33.9554Z" fill="#E1ADAE"/>
<path fill-rule="evenodd" clip-rule="evenodd" d="M31.4957 35.7301C32.1359 36.6322 31.9636 37.9369 30.997 38.7776L30.9797 38.7927L27.1795 41.7136C26.8483 41.9682 26.3734 41.906 26.1188 41.5748C25.8642 41.2436 25.9264 40.7687 26.2576 40.5141L30.0196 37.6226C30.4485 37.2385 30.4017 36.8025 30.262 36.6057C30.1933 36.509 30.0818 36.4287 29.8995 36.4102C29.7072 36.3907 29.3833 36.4374 28.9296 36.7158L28.2848 37.1114L27.4936 35.822L28.1383 35.4264C28.794 35.024 29.4471 34.8437 30.0522 34.9051C30.6673 34.9676 31.1735 35.2761 31.4957 35.7301Z" fill="#E1ADAE"/>
<path fill-rule="evenodd" clip-rule="evenodd" d="M28.6573 36.8974C29.1497 36.629 29.4135 36.1655 29.4715 35.687C29.5285 35.2178 29.3917 34.7393 29.1206 34.3548C28.8437 33.9622 28.4151 33.6499 27.8693 33.5302C27.3231 33.4105 26.7167 33.4952 26.0914 33.7923L26.0582 33.808L26.0268 33.8269C24.4365 34.7811 22.4385 35.8203 21.64 36.2195C21.6333 36.2229 21.6266 36.2263 21.6199 36.2299C21.5259 36.1155 21.4163 36.009 21.2914 35.9124C20.8409 35.564 20.2297 35.3717 19.496 35.3338C18.5301 35.2838 16.0429 35.215 13.5772 35.324C12.4099 34.7339 11.047 34.5587 9.85095 34.56C8.57781 34.5613 7.40933 34.763 6.70144 34.956C6.29841 35.0659 6.06079 35.4818 6.17071 35.8848C6.28063 36.2878 6.69646 36.5255 7.0995 36.4155C7.68592 36.2556 8.72113 36.074 9.85254 36.0728C10.9931 36.0716 12.1483 36.2541 13.0372 36.7498C13.1607 36.8187 13.301 36.8516 13.4422 36.8447C15.912 36.7252 18.4611 36.7951 19.4179 36.8446C19.9448 36.8719 20.2287 37.003 20.366 37.1091C20.4916 37.2063 20.5197 37.2981 20.5233 37.366C20.5322 37.532 20.3829 37.8114 20.0125 37.8608C17.7965 38.1563 13.7819 38.6669 11.7974 38.9192C11.473 38.9604 11.2118 39.2055 11.15 39.5267C11.0882 39.8478 11.2398 40.1723 11.5258 40.331C12.373 40.8011 13.6887 41.2375 15.0003 41.517C16.3019 41.7944 17.7286 41.9453 18.7825 41.758C21.217 41.3252 22.9076 40.397 28.6573 36.8974ZM22.0172 37.6516C21.8918 38.5113 21.1709 39.2326 20.2125 39.3604C18.903 39.535 16.9686 39.7843 15.195 40.0112C15.2351 40.0201 15.2753 40.0288 15.3156 40.0374C16.5607 40.3027 17.7562 40.4039 18.5177 40.2685C20.6191 39.8949 22.0541 39.1457 27.8885 35.5944L27.9092 35.5817L27.9308 35.5704C27.9521 35.5593 27.9641 35.5511 27.9697 35.5049C27.9774 35.4415 27.9598 35.3337 27.8842 35.2266C27.8143 35.1275 27.704 35.0427 27.5454 35.0079C27.3915 34.9742 27.1379 34.9766 26.7713 35.1444C25.1402 36.1209 23.1263 37.1678 22.3166 37.5726C22.2202 37.6208 22.1184 37.6465 22.0172 37.6516Z" fill="#E1ADAE"/>
<path fill-rule="evenodd" clip-rule="evenodd" d="M41.1295 12.4684C41.4396 12.1885 41.9179 12.2129 42.1979 12.523C43.9369 14.4495 44.8106 16.9821 45.2464 19.4368C45.6835 21.8982 45.6926 24.3545 45.6469 26.188C45.6459 26.2259 45.653 26.262 45.6682 26.2968L47.3063 30.0409C47.6867 30.9105 47.3114 31.9252 46.4566 32.3378L41.482 34.7393C41.1058 34.921 40.6535 34.7632 40.4719 34.387C40.2903 34.0108 40.4481 33.5586 40.8243 33.377L45.7989 30.9754C45.921 30.9165 45.9746 30.7715 45.9203 30.6473L44.2822 26.9031C44.1783 26.6656 44.128 26.4096 44.1345 26.1503C44.1795 24.3456 44.1669 22.0107 43.7569 19.7013C43.3457 17.3852 42.5469 15.1673 41.0749 13.5367C40.795 13.2266 40.8194 12.7483 41.1295 12.4684ZM25.7028 13.5983C26.0853 13.7662 26.2592 14.2124 26.0913 14.5949L25.7597 15.3501C25.7597 15.3503 25.7598 15.35 25.7597 15.3501C25.2291 16.5634 25.6611 16.9265 25.7579 16.9755C25.9222 17.0587 26.5061 17.0948 27.0937 16.2344C27.5172 15.6142 28.166 15.3089 28.8352 15.2104C29.4951 15.1133 30.2143 15.2076 30.8992 15.415C32.2584 15.8266 33.6826 16.746 34.5132 17.9443C35.448 19.2928 36.187 21.1897 36.2815 22.8588C36.3288 23.6946 36.2187 24.5496 35.8121 25.254C35.3855 25.993 34.6743 26.491 33.7012 26.6369C32.1852 26.8643 30.9351 26.2019 29.9697 25.354C29.0134 24.5143 28.2457 23.414 27.6728 22.589C27.2705 22.0098 26.8705 21.6808 26.5595 21.5266C26.2387 21.3676 26.0927 21.4245 26.0751 21.4337C26.066 21.4385 26.0483 21.4493 26.0271 21.4898C26.0035 21.5348 25.9718 21.6261 25.9683 21.7842C25.9612 22.1084 26.0757 22.6351 26.4678 23.3616L26.4747 23.3743L29.3513 29.2322C29.3741 29.2785 29.4004 29.3011 29.4181 29.3112C29.7968 29.5274 30.3272 29.7943 30.9356 30.1005C31.1252 30.1959 31.3224 30.2951 31.525 30.3978C32.3574 30.8199 33.2641 31.2928 33.9938 31.755C35.2943 32.5788 36.6073 33.6881 37.4153 34.5495C37.5545 34.6978 37.7291 34.7182 37.8296 34.6787L38.8886 34.2622C39.2773 34.1093 39.7165 34.3005 39.8694 34.6893C40.0222 35.0781 39.831 35.5172 39.4423 35.6701L38.3833 36.0866C37.62 36.3867 36.8079 36.1131 36.312 35.5845C35.5933 34.8184 34.3795 33.7902 33.1842 33.0331C32.5223 32.6138 31.6743 32.1697 30.8409 31.7471C30.6551 31.6529 30.469 31.5593 30.286 31.4672C29.6677 31.1562 29.0847 30.8629 28.6681 30.6251C28.3611 30.4498 28.1354 30.1883 27.9934 29.8991L25.1294 24.067C24.6689 23.21 24.4411 22.424 24.4559 21.7509C24.471 21.0643 24.7525 20.4208 25.3696 20.0955C25.9617 19.7833 26.6464 19.8812 27.2314 20.1712C27.8263 20.4661 28.4072 20.9944 28.9154 21.7261C29.5023 22.5713 30.1718 23.5182 30.9679 24.2173C31.7548 24.9084 32.5722 25.2765 33.4768 25.1409C34.0165 25.0599 34.3167 24.8185 34.5019 24.4976C34.7071 24.1422 34.8092 23.617 34.7711 22.9443C34.6948 21.5965 34.0722 19.9635 33.2699 18.8061C32.6675 17.9372 31.5549 17.1943 30.4608 16.8629C29.919 16.6989 29.4323 16.6516 29.0555 16.7071C28.688 16.7612 28.4694 16.9025 28.343 17.0875C27.5187 18.2946 26.1811 18.8853 25.0747 18.3253C23.9009 17.7312 23.7133 16.2533 24.3737 14.7438L24.7061 13.9868C24.874 13.6043 25.3203 13.4303 25.7028 13.5983Z" fill="#E1ADAE"/>
<path fill-rule="evenodd" clip-rule="evenodd" d="M29.7241 10.8366L31.1763 11.3013C31.5742 11.4287 31.7935 11.8544 31.6662 12.2523C31.5389 12.6502 31.1131 12.8695 30.7152 12.7422L29.6461 12.4001L26.7666 13.0137C26.3581 13.1008 25.9563 12.8401 25.8692 12.4316C25.7821 12.023 26.0427 11.6212 26.4513 11.5341L29.7241 10.8366Z" fill="#E1ADAE"/>
<path fill-rule="evenodd" clip-rule="evenodd" d="M26.7166 9.5354C26.9272 9.78958 27.3942 10.1106 28.2986 10.3281C30.716 10.9095 32.9582 12.0049 34.7625 13.1495C36.56 14.2898 37.9681 15.5081 38.7035 16.3722C38.9742 16.6903 38.9358 17.1677 38.6177 17.4385C38.2995 17.7092 37.8222 17.6708 37.5514 17.3527C36.942 16.6367 35.6633 15.5126 33.9521 14.427C32.2477 13.3457 30.1594 12.3316 27.9449 11.799C26.8574 11.5375 26.0448 11.0958 25.5517 10.5006C25.0378 9.8804 24.9085 9.12877 25.1663 8.44539C25.6602 7.136 27.3261 6.49579 29.0684 6.94703L31.3445 7.3967C31.7543 7.47768 32.0209 7.87555 31.9399 8.28538C31.8589 8.69522 31.4611 8.96181 31.0512 8.88084L28.7289 8.42203L28.7056 8.41586C27.4101 8.07288 26.7086 8.64323 26.5818 8.97932C26.5281 9.12173 26.5267 9.30618 26.7166 9.5354Z" fill="#E1ADAE"/>
<path fill-rule="evenodd" clip-rule="evenodd" d="M28.5545 3.26211C29.5204 2.35852 31.1038 2.4278 32.4739 3.51112C32.7 3.68987 33.0224 3.93875 33.4106 4.23848C34.228 4.86942 35.3371 5.72566 36.4539 6.62727C38.1009 7.95695 39.8588 9.45914 40.8664 10.617C41.1407 10.9322 41.1075 11.41 40.7924 11.6842C40.4773 11.9584 39.9995 11.9253 39.7252 11.6101C38.8166 10.566 37.1584 9.14038 35.5036 7.80436C34.3956 6.90981 33.3315 6.08857 32.5221 5.4639C32.1229 5.15577 31.7856 4.89548 31.5356 4.6978C30.5459 3.91529 29.8349 4.13585 29.588 4.36688C29.4543 4.49197 29.3693 4.67576 29.3855 4.91975C29.4016 5.16412 29.5255 5.51643 29.9022 5.92299L33.5247 8.94178L33.5497 8.96689C34.8535 10.2783 35.8953 12.3621 36.9173 14.4066C36.9341 14.4401 36.9509 14.4737 36.9677 14.5072L37.3059 15.1838L35.9528 15.8604L35.6145 15.1838C34.5426 13.04 33.6054 11.1819 32.501 10.0579L28.8646 7.02761L28.8344 6.99588C28.2499 6.38142 27.9208 5.6988 27.8759 5.01945C27.8306 4.33368 28.0817 3.70433 28.5545 3.26211Z" fill="#E1ADAE"/>
<path fill-rule="evenodd" clip-rule="evenodd" d="M27.2853 18.603C27.4613 18.9819 27.2967 19.4317 26.9178 19.6076L5.69838 29.4595C5.31948 29.6354 4.8697 29.4709 4.69378 29.0919C4.51785 28.713 4.68241 28.2633 5.06132 28.0873L26.2807 18.2355C26.6596 18.0595 27.1094 18.2241 27.2853 18.603Z" fill="#E1ADAE"/>
<path fill-rule="evenodd" clip-rule="evenodd" d="M6.83376 6.74528C7.07192 6.40206 7.54322 6.31689 7.88644 6.55504C8.48605 6.97109 9.07549 7.80679 9.17827 8.98944C9.28165 10.1792 8.88989 11.649 7.66784 13.3642C7.00575 14.2934 6.74941 15.0387 6.69471 15.6213C6.64076 16.196 6.77747 16.6688 7.00093 17.0715C7.23017 17.4846 7.5543 17.8296 7.87811 18.1223C8.0144 18.2454 8.14279 18.3526 8.26584 18.4554C8.28963 18.4752 8.31321 18.4949 8.33661 18.5145L8.34078 18.518C8.46212 18.6197 8.62811 18.7587 8.7423 18.8957C9.05942 19.2763 9.70501 20.2691 9.67382 21.579C9.64114 22.9516 8.87378 24.4571 6.75403 25.816C6.40233 26.0414 5.93446 25.9391 5.70901 25.5874C5.48356 25.2357 5.58591 24.7678 5.93761 24.5423C7.7512 23.3798 8.14368 22.2883 8.16142 21.543C8.18066 20.7349 7.76727 20.0888 7.58012 19.8642C7.58052 19.8647 7.58073 19.8649 7.58012 19.8642C7.57725 19.8612 7.56214 19.8452 7.52637 19.8128C7.48558 19.7759 7.43348 19.7315 7.36511 19.6742C7.34493 19.6573 7.32357 19.6395 7.30119 19.6208C7.17817 19.5181 7.02411 19.3896 6.86372 19.2446C6.48312 18.9006 6.02247 18.4261 5.6781 17.8055C5.32795 17.1745 5.10221 16.3991 5.18851 15.4799C5.27406 14.5686 5.66068 13.5742 6.43577 12.4863C7.51322 10.9741 7.73499 9.85535 7.67112 9.12041C7.60664 8.37842 7.24805 7.95342 7.02401 7.79796C6.68078 7.55981 6.59561 7.08851 6.83376 6.74528Z" fill="#E1ADAE"/>
<path fill-rule="evenodd" clip-rule="evenodd" d="M2.27832 1.80874C2.57114 1.51078 3.05006 1.50662 3.34801 1.79944C3.92371 2.36521 4.60548 3.37178 4.80739 4.60859C5.01686 5.8917 4.69617 7.35679 3.35724 8.71881C2.67533 9.41248 2.51898 9.83763 2.49915 10.0711C2.48162 10.2775 2.55726 10.4859 2.81206 10.8077C2.9253 10.9508 3.05272 11.0907 3.20272 11.2553C3.22426 11.279 3.24628 11.3032 3.26878 11.3279C3.43882 11.5151 3.63302 11.7322 3.80618 11.9712C4.1622 12.4625 4.46763 13.0993 4.37645 13.92C4.22519 15.2813 3.62689 16.0416 3.08278 16.6919C3.06032 16.7188 3.03801 16.7454 3.01586 16.7718C2.52291 17.3596 2.10932 17.8529 1.8885 18.7562C1.63851 19.7789 1.7091 20.498 2.00238 21.0662C2.30352 21.6497 2.90337 22.1995 3.96891 22.7441C4.3409 22.9342 4.48832 23.3899 4.2982 23.7619C4.10807 24.1339 3.65239 24.2813 3.28041 24.0912C2.07671 23.476 1.16374 22.7399 0.658046 21.7601C0.144484 20.7651 0.114226 19.6436 0.418941 18.397C0.724995 17.145 1.33826 16.4159 1.83637 15.8237C1.86551 15.7891 1.89426 15.7549 1.92253 15.7211C2.41218 15.1359 2.77199 14.6608 2.87287 13.7529C2.90776 13.4389 2.80977 13.1743 2.58115 12.8588C2.46198 12.6944 2.31855 12.5317 2.14919 12.3454C2.12891 12.323 2.10809 12.3002 2.08687 12.2769C1.94043 12.1163 1.77432 11.9342 1.62593 11.7467C1.2819 11.3122 0.925757 10.72 0.991746 9.94306C1.05544 9.19319 1.49792 8.4522 2.2784 7.65826C3.27932 6.64009 3.44609 5.65944 3.31433 4.85233C3.17501 3.99891 2.68686 3.27078 2.28763 2.87843C1.98967 2.58561 1.98551 2.10669 2.27832 1.80874Z" fill="#E1ADAE"/>
</g>
<defs>
<clipPath id="clip0_258_274">
<rect width="48" height="48" fill="white"/>
</clipPath>
</defs>
</svg>
