<svg width="48" height="48" viewBox="0 0 48 48" fill="none" xmlns="http://www.w3.org/2000/svg">
<path d="M47.43 3.32848C47.2538 3.06392 46.9734 2.88007 46.6612 2.82438L40.8057 1.77457C40.4973 1.71898 40.1861 1.78685 39.9288 1.96601C39.6722 2.1447 39.5002 2.41273 39.4446 2.72117L38.1185 10.1196C37.0432 6.95641 34.9168 4.21141 32.0927 2.38798C27.5348 -0.56599 21.7557 -0.765584 17.0562 1.71251C16.7127 1.89363 16.5811 2.31898 16.7622 2.66238C16.9433 3.00598 17.3687 3.1376 17.7121 2.95638C21.6594 0.874947 26.4285 0.882634 30.4063 3.02351C27.2481 4.15292 23.6338 5.77976 20.6497 7.42901C17.5679 9.13235 13.6834 11.6762 12.6294 14.142C12.6271 14.147 12.6246 14.152 12.6224 14.1571L10.8728 11.7422C11.5208 9.05107 13.0188 6.57504 15.1147 4.74232C15.407 4.48667 15.4368 4.04248 15.1812 3.75016C14.9255 3.45785 14.4813 3.42804 14.189 3.6837C12.215 5.40991 10.7216 7.65382 9.88094 10.1213L8.55437 2.72051C8.49897 2.41263 8.32703 2.1447 8.07034 1.96601C7.81309 1.78685 7.50166 1.71888 7.19453 1.77438L1.33844 2.8242C1.02578 2.88007 0.745373 3.06382 0.569216 3.32838C0.392872 3.59332 0.331466 3.92332 0.401122 4.23513L4.2505 21.3293C4.71409 23.3915 5.90866 25.217 7.61416 26.4696L16.1842 32.7616C16.4663 32.9684 16.7977 33.0682 17.1267 33.0682C17.2279 33.0682 17.3285 33.0568 17.4277 33.038V35.727C17.4277 35.9281 17.2986 36.1021 17.1058 36.1604C16.6236 36.3064 16.1095 36.4517 15.5652 36.6055C13.2637 37.2559 10.6552 37.9931 8.54716 39.3074C6.01253 40.8876 4.7274 43.0444 4.7274 45.718V46.3846C4.7274 47.2753 5.45209 47.9999 6.34272 47.9999H41.6566C42.5473 47.9999 43.2719 47.2752 43.2719 46.3846V45.718C43.2719 42.6647 41.6728 40.3717 38.3833 38.708C38.0368 38.5327 37.6138 38.6716 37.4385 39.0182C37.2633 39.3647 37.4021 39.7877 37.7486 39.963C40.5574 41.3835 41.8656 43.2122 41.8656 45.718V46.3846C41.8656 46.4999 41.7719 46.5936 41.6566 46.5936H6.34272C6.2275 46.5936 6.13366 46.4999 6.13366 46.3846V45.718C6.13366 40.7322 11.5752 39.1944 15.9476 37.9588C16.4985 37.8031 17.0187 37.6561 17.5129 37.5063C18.3031 37.2677 18.834 36.5526 18.834 35.727V31.6913C18.8758 31.5926 18.9128 31.4925 18.945 31.3911C20.7482 32.3076 22.585 32.8413 23.9996 32.8413C25.4137 32.8413 27.2507 32.3078 29.0543 31.3917C29.0865 31.4929 29.1235 31.593 29.1652 31.6915V35.727C29.1652 36.5526 29.6961 37.2677 30.4857 37.5062C30.982 37.6565 31.5041 37.8041 32.0569 37.9604C32.9403 38.2101 33.854 38.4684 34.771 38.769C34.8438 38.7928 34.9175 38.8041 34.9901 38.8041C35.2858 38.8041 35.561 38.6161 35.6582 38.3198C35.7791 37.9507 35.578 37.5536 35.209 37.4327C34.2645 37.1231 33.3366 36.8608 32.4394 36.6072C31.8932 36.4528 31.3773 36.3069 30.8929 36.1602C30.7007 36.1022 30.5716 35.9281 30.5716 35.727V33.0379C30.6708 33.0566 30.7714 33.0681 30.8726 33.0681C31.2017 33.0681 31.5333 32.9682 31.8155 32.7613L40.3853 26.4696C42.0907 25.2171 43.2853 23.3915 43.7489 21.3296L47.5984 4.23382C47.6677 3.92332 47.6063 3.59332 47.43 3.32848ZM37.1267 11.7421L35.379 14.1546C34.0096 10.1156 30.2064 7.31801 25.8193 7.31801H23.9047C26.9286 5.82963 29.862 4.67267 31.9348 3.98417C34.6071 5.92526 36.4039 8.73523 37.1267 11.7421ZM17.0161 31.6278L8.44647 25.3363C7.01462 24.2847 6.01169 22.7521 5.62244 21.0208L1.82687 4.16529L7.21169 3.19995L8.58503 10.862C8.60369 10.9662 8.64559 11.0648 8.70775 11.1505L13.1191 17.2397L13.9477 21.8661C14.0258 22.2993 13.8003 22.73 13.4001 22.9134C13.3259 22.9474 13.2478 22.972 13.1688 22.9862C12.6452 23.0797 12.1419 22.7297 12.0476 22.2061L11.1898 17.422C11.1213 17.0397 10.7552 16.7853 10.3736 16.854C9.99137 16.9225 9.73703 17.2879 9.80556 17.6702L10.6635 22.4547C10.8788 23.6515 11.9621 24.4784 13.1488 24.4028C13.2168 24.6546 13.1939 24.8864 13.4068 25.104L17.1183 28.8943C17.8357 29.6269 17.9018 30.7896 17.2718 31.5991C17.2129 31.6751 17.0979 31.6878 17.0161 31.6278ZM19.0767 29.8698C18.98 29.151 18.6604 28.4591 18.1233 27.9106L14.5566 24.2683L14.479 23.8886C15.147 23.3552 15.4886 22.4883 15.3317 21.6176L14.4748 16.8335C14.4561 16.7294 14.4142 16.6307 14.3521 16.545L13.675 15.6104C13.74 15.3023 13.8233 14.9943 13.9236 14.6907C14.6108 13.0862 17.1495 10.9983 21.0897 8.79382C22.0067 8.67766 22.312 8.73401 25.8192 8.72426C29.9496 8.71282 33.4793 11.6041 34.3229 15.6123L33.6472 16.5449C33.5852 16.6306 33.5433 16.7292 33.5245 16.8333L32.6669 21.6172C32.5084 22.5015 32.8644 23.3612 33.5202 23.8875L33.4424 24.2682L29.8758 27.9105C29.3384 28.4593 29.0188 29.1514 28.9222 29.8707C27.1698 30.8405 25.3098 31.4353 23.9994 31.4353C22.6887 31.4353 20.8285 30.8402 19.0767 29.8698ZM42.3768 21.021C41.9876 22.7521 40.9847 24.2847 39.5529 25.3362L30.9836 31.6275C30.9014 31.6877 30.7864 31.6749 30.7269 31.5986C30.0972 30.7895 30.1634 29.6269 30.8808 28.8943L34.5923 25.104C34.8056 24.8861 34.7823 24.6546 34.8504 24.4025C36.0357 24.479 37.1209 23.6518 37.3356 22.4542L38.1933 17.6703C38.2618 17.2881 38.0075 16.9227 37.6252 16.8542C37.2429 16.7856 36.8776 17.0399 36.809 17.4222L35.9514 22.2061C35.8575 22.7299 35.3553 23.0796 34.8309 22.9858C34.7526 22.9717 34.6783 22.9486 34.6086 22.9175C34.6027 22.9147 34.5967 22.912 34.5907 22.9094C34.2052 22.7281 33.9725 22.3041 34.0512 21.8653L34.8805 17.2397L39.2915 11.1504C39.3536 11.0647 39.3955 10.9661 39.4143 10.8619L40.7876 3.19985L46.1724 4.1652L42.3768 21.021Z" fill="#E1ADAE"/>
<path d="M20.4262 17.7649C19.294 17.0702 18.0971 17.0702 16.9649 17.7649C16.6339 17.9679 16.5302 18.4009 16.7333 18.7319C16.9364 19.0628 17.3692 19.1666 17.7003 18.9634C18.3794 18.5469 19.0119 18.5469 19.6908 18.9634C19.8056 19.0338 19.9325 19.0673 20.0579 19.0673C20.2943 19.0673 20.5251 18.9482 20.6579 18.7318C20.8608 18.4009 20.7572 17.9679 20.4262 17.7649Z" fill="#E1ADAE"/>
<path d="M30.2991 18.9636C30.4138 19.034 30.5408 19.0674 30.6661 19.0674C30.9025 19.0674 31.1334 18.9483 31.2661 18.7319C31.4693 18.4009 31.3655 17.9679 31.0345 17.7649C29.9023 17.0702 28.7054 17.0703 27.5732 17.7649C27.2423 17.9679 27.1385 18.4009 27.3416 18.7319C27.5447 19.0629 27.9775 19.1666 28.3087 18.9635C28.9874 18.5471 29.62 18.547 30.2991 18.9636Z" fill="#E1ADAE"/>
<path d="M26.2374 24.9608C24.8153 25.5762 23.1841 25.5762 21.762 24.9608C21.4054 24.8066 20.9916 24.9706 20.8374 25.3269C20.6832 25.6832 20.8471 26.0972 21.2035 26.2515C22.0921 26.6359 23.0459 26.8282 23.9997 26.8282C24.9535 26.8282 25.9074 26.6359 26.7959 26.2515C27.1523 26.0972 27.3162 25.6832 27.162 25.3269C27.0077 24.9706 26.5937 24.8066 26.2374 24.9608Z" fill="#E1ADAE"/>
</svg>
