<svg width="48" height="48" viewBox="0 0 48 48" fill="none" xmlns="http://www.w3.org/2000/svg">
<g clip-path="url(#clip0_258_470)">
<path d="M1.17668 29.9128C1.43993 30.0951 1.71765 30.2557 2.00708 30.3928C2.35348 30.5696 2.93268 30.8656 2.97348 31.0736C3.0244 31.3467 2.99178 31.6288 2.87988 31.8832C2.76068 32.1392 2.63508 32.3592 2.52788 32.5496C2.23428 33.0664 1.74468 33.9328 2.48388 34.5376C2.65668 34.6976 2.95508 34.9288 3.22788 35.1376C3.02742 35.4876 2.93657 35.8897 2.96708 36.292C3.00911 36.6068 3.17897 36.8903 3.43668 37.076C3.61668 37.204 3.80948 37.316 3.99668 37.424C4.46708 37.692 4.65108 37.8168 4.71668 38.064C4.75971 38.3894 4.72965 38.7204 4.62868 39.0328C4.58148 39.2408 4.53588 39.448 4.50628 39.6608C4.42699 40.3904 4.51959 41.1285 4.77668 41.816C5.13572 43.0899 6.28774 43.9775 7.61108 44C7.83071 43.9991 8.0497 43.9761 8.26468 43.9312C10.5501 43.3895 12.8022 42.7156 15.0095 41.9128C16.8111 42.9704 17.9503 46.1864 18.2471 47.3936C18.336 47.7501 18.6564 48.0002 19.0239 48L39.1039 47.944C39.3584 47.9435 39.5974 47.8219 39.7478 47.6166C39.8981 47.4113 39.9418 47.1467 39.8655 46.904C39.6676 46.3619 39.3948 45.8503 39.0551 45.384C38.8629 45.108 38.6897 44.8194 38.5367 44.52C38.1749 43.7862 37.8729 43.0246 37.6335 42.2424C37.1771 40.6962 36.8604 39.1123 36.6871 37.5096C36.4063 35.1161 36.7691 32.6911 37.7383 30.4848C38.3297 29.2611 39.0587 28.1089 39.9111 27.0504C40.3911 26.4024 40.8895 25.7312 41.3367 25.0264C42.1056 23.8319 42.6631 22.514 42.9847 21.1304C43.0767 20.7032 42.8091 20.2813 42.3835 20.1825C41.9578 20.0838 41.5317 20.3448 41.4263 20.7688C41.145 21.9763 40.6579 23.1265 39.9863 24.1688C39.5711 24.8256 39.0911 25.472 38.6263 26.0976C37.7006 27.2526 36.9106 28.5102 36.2719 29.8456C35.1885 32.3131 34.7836 35.0252 35.0991 37.7016C35.2836 39.4013 35.6212 41.0809 36.1079 42.72C36.3707 43.5806 36.7027 44.4185 37.1007 45.2256C37.2831 45.5861 37.4902 45.9336 37.7207 46.2656L37.7743 46.3456L19.6287 46.4C19.0969 44.5023 18.1328 42.7537 16.8119 41.2912L17.5319 41.0408C18.0695 40.8528 18.4751 40.7112 18.6847 40.6408C22.1103 39.5488 23.8239 37.9888 23.7767 36.0008C23.7745 35.7884 23.6864 35.586 23.5325 35.4397C23.3786 35.2933 23.1721 35.2155 22.9599 35.224C22.5183 35.2344 22.1688 35.6008 22.1791 36.0424C22.1983 36.8608 21.5239 38.0592 18.1983 39.1184C17.9807 39.188 17.5583 39.3344 17.0055 39.5288C16.4111 39.736 15.6575 40 14.8255 40.2824H14.8199C12.5701 41.1073 10.2745 41.8018 7.94468 42.3624C7.19954 42.5024 6.4752 42.0344 6.29668 41.2976C6.12463 40.846 6.05707 40.3613 6.09908 39.88C6.12228 39.72 6.15988 39.552 6.19668 39.3888C6.36694 38.8303 6.39444 38.2381 6.27668 37.6664C6.04435 36.9338 5.50555 36.338 4.79988 36.0336L4.62788 35.9352C4.71412 35.76 4.81756 35.5938 4.93668 35.4392C5.07072 35.2689 5.12996 35.0516 5.10086 34.8368C5.07176 34.6221 4.9568 34.4284 4.78228 34.3C4.59108 34.1592 4.14228 33.82 3.80628 33.5528C3.84468 33.4832 3.88628 33.4064 3.92708 33.3376C4.05268 33.1168 4.19668 32.8576 4.33588 32.564C4.58941 32.0036 4.66373 31.3786 4.54868 30.7744C4.35748 29.7984 3.42228 29.32 2.73988 28.9712C2.50998 28.8618 2.2895 28.7336 2.08068 28.588C1.90924 28.4732 1.74858 28.343 1.60068 28.1992C1.60068 28.0776 1.73108 27.784 2.33988 27.0424C3.77142 25.1979 4.9986 23.2036 5.99988 21.0944C6.18784 20.7637 6.29374 20.3928 6.30868 20.0128C6.2249 19.2078 5.79693 18.4785 5.13508 18.0128C4.81108 17.7152 4.50468 17.4352 4.47028 17.1992C4.47762 17.0031 4.52157 16.8102 4.59988 16.6304C4.73028 16.288 4.88148 15.952 5.03188 15.6152C5.36923 14.9203 5.6372 14.1938 5.83188 13.4464C6.01521 12.5498 6.2557 11.6658 6.55188 10.8C7.18244 9.05932 8.15885 7.46436 9.42228 6.11116C10.9519 4.49116 13.3599 3.34556 16.5919 2.70396C19.0641 2.16119 21.5726 1.7997 24.0975 1.62236C24.947 1.57858 25.7986 1.59676 26.6455 1.67676C26.9307 1.70334 27.2085 1.57572 27.3741 1.34199C27.5398 1.10825 27.5681 0.803905 27.4485 0.543589C27.3289 0.283273 27.0795 0.106538 26.7943 0.079957C25.8699 -0.00474588 24.9405 -0.023193 24.0135 0.024757C21.4106 0.205361 18.8245 0.576488 16.2759 1.13516C12.6687 1.85516 10.0471 3.11996 8.25828 5.01116C6.84574 6.52118 5.7539 8.30182 5.04868 10.2456C4.72448 11.1915 4.46127 12.1572 4.26068 13.1368C4.0897 13.765 3.85988 14.3757 3.57428 14.9608C3.41428 15.3248 3.24948 15.6888 3.10548 16.0672C2.92341 16.4901 2.84867 16.9515 2.88788 17.4104C3.05337 18.1244 3.46843 18.756 4.05828 19.1912C4.45028 19.5504 4.70868 19.8032 4.71188 20.024C4.68276 20.1454 4.637 20.2622 4.57588 20.3712C3.61808 22.3884 2.44428 24.2958 1.07508 26.06C0.495884 26.7664 -0.112116 27.5896 0.0150837 28.4136C0.18544 29.0489 0.604009 29.5891 1.17668 29.9128Z" fill="#E1ADAE"/>
<path d="M9.55031 11.9112C10.0321 10.5756 10.7788 9.35106 11.7455 8.31118C12.8119 7.18237 14.6559 6.35117 17.2271 5.83997C17.6605 5.75404 17.9422 5.33301 17.8563 4.89957C17.7704 4.46614 17.3493 4.18444 16.9159 4.27037C14.0127 4.84797 11.8823 5.83677 10.5831 7.20958C9.46676 8.40774 8.60463 9.81959 8.04871 11.36C7.7794 12.1592 7.56005 12.9744 7.39191 13.8008L8.95431 14.1472C9.10765 13.3905 9.30668 12.6438 9.55031 11.9112Z" fill="#E1ADAE"/>
<path d="M26.2871 4.47998L25.8071 6.87358C25.3444 7.02553 24.894 7.21274 24.4599 7.43358L22.4287 6.07358C21.7941 5.65795 20.9548 5.74515 20.4191 6.28238L19.0911 7.60958C18.5433 8.14738 18.4547 8.99844 18.8799 9.63758L20.2335 11.6592C20.0127 12.0933 19.8255 12.5437 19.6735 13.0064L17.2831 13.4864C16.5362 13.6373 15.9993 14.294 15.9999 15.056V16.944C15.9994 17.7047 16.5346 18.3606 17.2799 18.5128L19.6735 18.9928C19.8255 19.4555 20.0127 19.9059 20.2335 20.34L18.8735 22.3712C18.4579 23.0058 18.5451 23.8451 19.0823 24.3808L20.4103 25.7088C20.9491 26.2541 21.7983 26.3422 22.4375 25.9192L24.4591 24.5656C24.8932 24.7864 25.3436 24.9736 25.8063 25.1256L26.2863 27.516C26.4369 28.2632 27.0936 28.8005 27.8559 28.8H29.7439C30.5046 28.8005 31.1606 28.2653 31.3127 27.52L31.7927 25.1264C32.2554 24.9744 32.7058 24.7872 33.1399 24.5664L35.1711 25.9264C35.8058 26.342 36.645 26.2548 37.1807 25.7176L38.5079 24.3904C39.0557 23.8526 39.1443 23.0015 38.7191 22.3624L37.3655 20.3408C37.5863 19.9067 37.7736 19.4563 37.9255 18.9936L40.3159 18.5136C40.7907 18.4176 41.1961 18.1108 41.4175 17.68L42.6231 18.488C42.8557 18.6345 43.125 18.7124 43.3999 18.7128C43.7834 18.7129 44.1511 18.56 44.4215 18.288L45.4855 17.224C45.9694 16.7377 46.0471 15.9791 45.6719 15.4048L44.6399 13.8608C44.7896 13.5599 44.9189 13.2493 45.0271 12.9312L46.8375 12.5704C47.5148 12.4373 48.0025 11.8423 47.9999 11.152V9.64798C48.0023 8.96026 47.5181 8.36681 46.8439 8.23118L45.0255 7.86878C44.9182 7.55052 44.7894 7.23994 44.6399 6.93918L45.6879 5.37678C46.051 4.80454 45.9679 4.05684 45.4879 3.57838L44.4239 2.51438C43.9377 2.03021 43.179 1.95247 42.6047 2.32797L41.0607 3.35998C40.7598 3.21028 40.4493 3.08093 40.1311 2.97278L39.7695 1.16237C39.6365 0.485315 39.0419 -0.00223459 38.3519 -2.58959e-05H36.8479C36.1602 -0.00245276 35.5667 0.481757 35.4311 1.15597L35.0687 2.97438C34.7504 3.08246 34.4398 3.21209 34.1391 3.36238L32.5767 2.31437C32.0043 1.95185 31.257 2.03496 30.7783 2.51438L30.0583 3.23438C29.9549 3.2128 29.8496 3.20128 29.7439 3.19998H27.8559C27.0952 3.19944 26.4393 3.73461 26.2871 4.47998ZM38.5175 7.61598L38.1439 7.24238C39.5305 7.428 40.6335 8.49722 40.862 9.87744C41.0905 11.2577 40.3911 12.6253 39.1383 13.248L37.9239 13.008C37.7719 12.5453 37.5847 12.0949 37.3639 11.6608L38.7239 9.62958C39.141 8.99513 39.0548 8.15488 38.5175 7.61838V7.61598ZM31.8215 3.73118L33.6503 4.95998C33.9068 5.13195 34.2393 5.14098 34.5047 4.98318C34.9627 4.71365 35.4552 4.50776 35.9687 4.37118C36.2621 4.29193 36.4853 4.05326 36.5447 3.75518L36.9743 1.59997H38.2255L38.6551 3.75998C38.7145 4.05806 38.9377 4.29673 39.2311 4.37598C39.7446 4.51256 40.2371 4.71845 40.6951 4.98798C40.9614 5.14435 41.294 5.13345 41.5495 4.95998L43.3783 3.73278L44.2663 4.62078L43.0399 6.45038C42.8679 6.70683 42.8589 7.03936 43.0167 7.30478C43.2862 7.76273 43.4921 8.25526 43.6287 8.76878C43.7079 9.06221 43.9466 9.28538 44.2447 9.34478L46.4047 9.77438V11.0256L44.2487 11.4552C43.9506 11.5146 43.7119 11.7377 43.6327 12.0312C43.4961 12.5447 43.2902 13.0372 43.0207 13.4952C42.8629 13.7606 42.8719 14.0931 43.0439 14.3496L44.2711 16.1784L43.3831 17.0664L41.5999 15.8736V15.056C41.6 14.5876 41.3954 14.1425 41.0399 13.8376C42.4483 12.4808 42.8902 10.4039 42.1561 8.59123C41.4221 6.77858 39.6595 5.59442 37.7039 5.59998C37.2202 5.60302 36.74 5.68184 36.2807 5.83358C35.8898 5.77663 35.4916 5.86424 35.1607 6.07998L33.1407 7.43358C32.7066 7.21274 32.2562 7.02553 31.7935 6.87358L31.3135 4.48318C31.2993 4.41908 31.2809 4.356 31.2583 4.29438L31.8215 3.73118ZM27.2799 7.66158L27.8559 4.79998H29.7439L30.3191 7.66398C30.3789 7.96123 30.6016 8.19913 30.8943 8.27838C31.5553 8.45656 32.1902 8.72012 32.7831 9.06238C33.0473 9.21562 33.3757 9.20507 33.6295 9.03518L36.0503 7.41598L37.3911 8.74958L35.7671 11.1728C35.5972 11.4266 35.5867 11.755 35.7399 12.0192C36.0822 12.6121 36.3457 13.247 36.5239 13.908C36.6031 14.2007 36.841 14.4234 37.1383 14.4832L39.9999 15.0552V16.944L37.1359 17.5192C36.8386 17.579 36.6007 17.8017 36.5215 18.0944C36.3433 18.7554 36.0798 19.3903 35.7375 19.9832C35.5843 20.2474 35.5948 20.5758 35.7647 20.8296L37.3839 23.2504L36.0503 24.5912L33.6271 22.9672C33.3733 22.7973 33.0449 22.7867 32.7807 22.94C32.1878 23.2822 31.5529 23.5458 30.8919 23.724C30.5992 23.8032 30.3765 24.0411 30.3167 24.3384L29.7439 27.2H27.8559L27.2807 24.336C27.2209 24.0387 26.9982 23.8008 26.7055 23.7216C26.0445 23.5434 25.4096 23.2798 24.8167 22.9376C24.5525 22.7843 24.2241 22.7949 23.9703 22.9648L21.5495 24.584L20.2087 23.2504L21.8327 20.8272C22.0026 20.5734 22.0132 20.245 21.8599 19.9808C21.5177 19.3879 21.2541 18.753 21.0759 18.092C20.9967 17.7993 20.7588 17.5766 20.4615 17.5168L17.5999 16.944V15.056L20.4639 14.4808C20.7612 14.421 20.9991 14.1983 21.0783 13.9056C21.2565 13.2446 21.52 12.6097 21.8623 12.0168C22.0156 11.7526 22.005 11.4242 21.8351 11.1704L20.2159 8.74958L21.5495 7.40878L23.9727 9.03278C24.2265 9.20267 24.5549 9.21322 24.8191 9.05998C25.412 8.71772 26.0469 8.45416 26.7079 8.27598C26.9993 8.19569 27.2206 7.958 27.2799 7.66158Z" fill="#E1ADAE"/>
<path d="M28.7999 21.6C31.8927 21.6 34.3999 19.0928 34.3999 16C34.3999 12.9072 31.8927 10.4 28.7999 10.4C25.7071 10.4 23.1999 12.9072 23.1999 16C23.2034 19.0913 25.7086 21.5965 28.7999 21.6ZM28.7999 12C31.0091 12 32.7999 13.7908 32.7999 16C32.7999 18.2091 31.0091 20 28.7999 20C26.5908 20 24.7999 18.2091 24.7999 16C24.8026 13.7919 26.5919 12.0026 28.7999 12Z" fill="#E1ADAE"/>
<path d="M28.7999 16.8C29.2417 16.8 29.5999 16.4418 29.5999 16C29.5999 15.5581 29.2417 15.2 28.7999 15.2C28.3581 15.2 27.9999 15.5581 27.9999 16C27.9999 16.4418 28.3581 16.8 28.7999 16.8Z" fill="#E1ADAE"/>
<path d="M7.19991 17.6C7.64174 17.6 7.99991 17.2418 7.99991 16.8C7.99991 16.3581 7.64174 16 7.19991 16C6.75808 16 6.39991 16.3581 6.39991 16.8C6.39991 17.2418 6.75808 17.6 7.19991 17.6Z" fill="#E1ADAE"/>
</g>
<defs>
<clipPath id="clip0_258_470">
<rect width="48" height="48" fill="white"/>
</clipPath>
</defs>
</svg>
